<?xml version="1.0" encoding="UTF-8"?>
<svg width="20px" height="20px" viewBox="0 0 20 20" version="1.1" xmlns="http://www.w3.org/2000/svg" xmlns:xlink="http://www.w3.org/1999/xlink">
    <!-- Generator: sketchtool 62 (101010) - https://sketch.com -->
    <title>84FAE45F-5CF1-4282-8505-DAA78FC338FF</title>
    <desc>Created with sketchtool.</desc>
    <g id="Page-1" stroke="none" stroke-width="1" fill="none" fill-rule="evenodd">
        <g id="My-information" transform="translate(-858.000000, -730.000000)" fill="#333333" fill-rule="nonzero">
            <g id="Group" transform="translate(0.000000, 60.000000)">
                <path d="M868,690 C868.338542,690 868.63151,689.876302 868.878906,689.628906 C869.126302,689.38151 869.25,689.088542 869.25,688.75 L869.25,681.25 L876.75,681.25 C877.088542,681.25 877.38151,681.126302 877.628906,680.878906 C877.876302,680.63151 878,680.338542 878,680 C878,679.661458 877.876302,679.36849 877.628906,679.121094 C877.38151,678.873698 877.088542,678.75 876.75,678.75 L869.25,678.75 L869.25,671.25 C869.25,670.911458 869.126302,670.61849 868.878906,670.371094 C868.63151,670.123698 868.338542,670 868,670 C867.661458,670 867.36849,670.123698 867.121094,670.371094 C866.873698,670.61849 866.75,670.911458 866.75,671.25 L866.75,678.75 L859.25,678.75 C858.911458,678.75 858.61849,678.873698 858.371094,679.121094 C858.123698,679.36849 858,679.661458 858,680 C858,680.338542 858.123698,680.63151 858.371094,680.878906 C858.61849,681.126302 858.911458,681.25 859.25,681.25 L866.75,681.25 L866.75,688.75 C866.75,689.088542 866.873698,689.38151 867.121094,689.628906 C867.36849,689.876302 867.661458,690 868,690 Z" id="add"></path>
            </g>
        </g>
    </g>
</svg>