<?xml version="1.0" encoding="UTF-8"?>
<svg width="80px" height="80px" viewBox="0 0 80 80" version="1.1" xmlns="http://www.w3.org/2000/svg" xmlns:xlink="http://www.w3.org/1999/xlink">
    <!-- Generator: sketchtool 62 (101010) - https://sketch.com -->
    <title>814097C1-42ED-42DB-8689-1728A835FDE3</title>
    <desc>Created with sketchtool.</desc>
    <g id="Page-1" stroke="none" stroke-width="1" fill="none" fill-rule="evenodd">
        <g id="Dashboard---No-connected-devices" transform="translate(-1027.000000, -284.000000)" fill-rule="nonzero">
            <g id="Group" transform="translate(98.000000, 60.000000)">
                <g id="ai" transform="translate(929.000000, 224.000000)">
                    <path d="M63.59375,80 L16.40625,80 C7.35984375,80 0,72.6401563 0,63.59375 L0,16.40625 C0,7.35984375 7.35984375,0 16.40625,0 L63.59375,0 C72.6401563,0 80,7.35984375 80,16.40625 L80,63.59375 C80,72.6401563 72.6401563,80 63.59375,80 Z" id="Path" fill="#333333"></path>
                    <g id="brain-(2)" transform="translate(15.000000, 15.000000)" fill="#F2F2F2">
                        <circle id="Oval" cx="25" cy="16.2109375" r="1.46484375"></circle>
                        <path d="M4.39453125,41.1132812 C6.30419922,41.1132812 7.93242188,39.8885742 8.53710938,38.1835938 L11.8164062,38.1835938 L11.8164062,45.6054688 C11.8164062,46.4144531 12.4722656,47.0703125 13.28125,47.0703125 C14.0902344,47.0703125 14.7460938,46.4144531 14.7460938,45.6054688 L14.7460938,38.1835938 L19.140625,38.1835938 C19.9496094,38.1835938 20.6054688,37.5277344 20.6054688,36.71875 L20.6054688,32.3242188 C21.6723633,32.3242188 22.6725586,32.0362305 23.5351562,31.5359375 L23.5351562,41.4628906 C21.8301758,42.0675781 20.6054688,43.6958008 20.6054688,45.6054688 C20.6054688,48.0286133 22.5768555,50 25,50 C27.4231445,50 29.3945312,48.0286133 29.3945312,45.6054688 C29.3945312,43.6958008 28.1698242,42.0675781 26.4648438,41.4628906 L26.4648438,31.5359375 C27.3274414,32.0362305 28.3276367,32.3242188 29.3945312,32.3242188 L29.3945312,36.71875 C29.3945312,37.5277344 30.0503906,38.1835938 30.859375,38.1835938 L35.2539062,38.1835938 L35.2539062,45.6054688 C35.2539062,46.4144531 35.9097656,47.0703125 36.71875,47.0703125 C37.5277344,47.0703125 38.1835938,46.4144531 38.1835938,45.6054688 L38.1835938,38.1835938 L41.4628906,38.1835938 C42.0675781,39.8885742 43.6958008,41.1132812 45.6054688,41.1132812 C48.0286133,41.1132812 50,39.1418945 50,36.71875 C50,34.2956055 48.0286133,32.3242188 45.6054688,32.3242188 C43.6958008,32.3242188 42.0675781,33.5489258 41.4628906,35.2539062 L32.3242188,35.2539062 L32.3242188,31.5424805 C33.6132812,30.797168 34.5946289,29.5681641 35.0162109,28.0693359 C36.9852539,26.7067383 38.1835938,24.4650391 38.1835938,22.0703125 C38.1835938,22.0595703 38.1835938,22.0489258 38.1834961,22.0383789 C40.0111328,20.6637695 41.1132812,18.5084961 41.1132812,16.2109375 C41.1132812,15.1999023 40.9008789,14.2176758 40.4807617,13.28125 C40.9008789,12.3448242 41.1132812,11.3625977 41.1132812,10.3515625 C41.1132812,6.49414062 38.1574219,3.30712891 34.4674805,2.96132813 C33.4394531,1.15546875 31.5125,0 29.3945312,0 C27.6457031,0 26.0745117,0.77109375 25,1.98994141 C23.9254883,0.77109375 22.3542969,0 20.6054688,0 C18.4875,0 16.5605469,1.15546875 15.5325195,2.96132813 C11.8415039,3.30722656 8.88671875,6.49521484 8.88671875,10.3515625 C8.88671875,11.3625977 9.09912109,12.3448242 9.51923828,13.28125 C9.09912109,14.2176758 8.88671875,15.1999023 8.88671875,16.2109375 C8.88671875,18.5084961 9.98886719,20.6637695 11.8165039,22.0383789 C11.8164062,22.0489258 11.8164062,22.0595703 11.8164062,22.0703125 C11.8164062,24.4650391 13.0147461,26.7067383 14.9837891,28.0693359 C15.4054688,29.5681641 16.3867188,30.797168 17.6757812,31.5424805 L17.6757812,35.2539062 L8.53710938,35.2539062 C7.93242188,33.5489258 6.30419922,32.3242188 4.39453125,32.3242188 C1.97138672,32.3242188 0,34.2956055 0,36.71875 C0,39.1418945 1.97138672,41.1132812 4.39453125,41.1132812 Z M45.6054688,35.2539062 C46.4131836,35.2539062 47.0703125,35.9110352 47.0703125,36.71875 C47.0703125,37.5264648 46.4131836,38.1835938 45.6054688,38.1835938 C44.7977539,38.1835938 44.140625,37.5264648 44.140625,36.71875 C44.140625,35.9110352 44.7977539,35.2539062 45.6054688,35.2539062 Z M29.3945312,11.8164062 L29.3945312,20.6054688 L20.6054688,20.6054688 L20.6054688,11.8164062 L29.3945312,11.8164062 Z M25,47.0703125 C24.1922852,47.0703125 23.5351562,46.4131836 23.5351562,45.6054688 C23.5351562,44.7977539 24.1922852,44.140625 25,44.140625 C25.8077148,44.140625 26.4648438,44.7977539 26.4648438,45.6054688 C26.4648438,46.4131836 25.8077148,47.0703125 25,47.0703125 Z M29.3945312,2.9296875 C30.6285156,2.9296875 31.7336914,3.72255859 32.1448242,4.90273438 C32.3588867,5.51728516 32.9563477,5.98515625 33.8416016,5.85976563 C36.2005859,5.88974609 38.1835938,7.93457031 38.1835938,10.3515625 C38.1835938,10.8495117 38.0918945,11.3395508 37.9139648,11.8164063 L36.71875,11.8164063 C35.9097656,11.8164063 35.2539062,12.4722656 35.2539062,13.28125 C35.2539062,14.0902344 35.9097656,14.7460938 36.71875,14.7460938 L37.9139648,14.7460938 C38.0918945,15.2229492 38.1835938,15.7129883 38.1835938,16.2109375 C38.1835938,17.7788086 37.3175781,19.2393555 35.9233398,20.0227539 C34.8661133,20.6167969 35.2539062,21.7585938 35.2539062,22.0703125 C35.2539062,23.6353516 34.3902344,25.0947266 33,25.8788086 C32.6107422,26.0983398 32.3428711,26.4835938 32.2728516,26.925 C32.0455078,28.355957 30.8350586,29.3945313 29.3945312,29.3945313 C27.7791016,29.3945313 26.4648438,28.0802734 26.4648438,26.4648438 L26.4648438,23.5351563 L30.859375,23.5351563 C31.6683594,23.5351563 32.3242188,22.8792969 32.3242188,22.0703125 L32.3242188,10.3515625 C32.3242188,9.54257813 31.6683594,8.88671875 30.859375,8.88671875 L26.4648438,8.88671875 C26.4648438,8.86191406 26.4648438,8.70390625 26.4648438,5.859375 C26.4648438,4.24394531 27.7791016,2.9296875 29.3945312,2.9296875 Z M17,25.8788086 C15.6097656,25.0947266 14.7460938,23.6353516 14.7460938,22.0703125 C14.7460938,21.7067383 15.1295898,20.6143555 14.0766602,20.0227539 C12.6824219,19.2393555 11.8164062,17.7788086 11.8164062,16.2109375 C11.8164062,15.7129883 11.9081055,15.2229492 12.0860352,14.7460938 L13.28125,14.7460938 C14.0902344,14.7460938 14.7460938,14.0902344 14.7460938,13.28125 C14.7460938,12.4722656 14.0902344,11.8164062 13.28125,11.8164062 L12.0860352,11.8164062 C11.9081055,11.3395508 11.8164062,10.8495117 11.8164062,10.3515625 C11.8164062,7.934375 13.7993164,5.88955078 16.1584961,5.85966797 C17.0305664,5.98330078 17.6393555,5.52207031 17.8551758,4.90263672 C18.2663086,3.72255859 19.3714844,2.9296875 20.6054688,2.9296875 C22.2208984,2.9296875 23.5351562,4.24394531 23.5351562,5.859375 L23.5351562,8.88671875 L19.140625,8.88671875 C18.3316406,8.88671875 17.6757812,9.54257812 17.6757812,10.3515625 L17.6757812,22.0703125 C17.6757812,22.8792969 18.3316406,23.5351562 19.140625,23.5351562 L23.5351562,23.5351562 L23.5351562,26.4648438 C23.5351562,28.0802734 22.2208984,29.3945312 20.6054688,29.3945312 C19.1649414,29.3945312 17.9544922,28.355957 17.7271484,26.9249023 C17.6571289,26.4835938 17.3892578,26.0983398 17,25.8788086 L17,25.8788086 Z M4.39453125,35.2539062 C5.20224609,35.2539062 5.859375,35.9110352 5.859375,36.71875 C5.859375,37.5264648 5.20224609,38.1835938 4.39453125,38.1835938 C3.58681641,38.1835938 2.9296875,37.5264648 2.9296875,36.71875 C2.9296875,35.9110352 3.58681641,35.2539062 4.39453125,35.2539062 Z" id="Shape"></path>
                    </g>
                </g>
            </g>
        </g>
    </g>
</svg>