<?xml version="1.0" encoding="UTF-8"?>
<svg width="80px" height="80px" viewBox="0 0 80 80" version="1.1" xmlns="http://www.w3.org/2000/svg" xmlns:xlink="http://www.w3.org/1999/xlink">
    <!-- Generator: sketchtool 62 (101010) - https://sketch.com -->
    <title>4DE64BB9-DAB9-4B5A-B4F3-862711F181AE</title>
    <desc>Created with sketchtool.</desc>
    <g id="Page-1" stroke="none" stroke-width="1" fill="none" fill-rule="evenodd">
        <g id="Dashboard---No-connected-devices" transform="translate(-494.000000, -284.000000)" fill-rule="nonzero">
            <g id="Group" transform="translate(98.000000, 60.000000)">
                <g id="apple-watch" transform="translate(396.000000, 224.000000)">
                    <path d="M63.59375,80 L16.40625,80 C7.35984375,80 0,72.6401563 0,63.59375 L0,16.40625 C0,7.35984375 7.35984375,0 16.40625,0 L63.59375,0 C72.6401563,0 80,7.35984375 80,16.40625 L80,63.59375 C80,72.6401563 72.6401563,80 63.59375,80 Z" id="Path" fill="#333333"></path>
                    <g id="smartwatch" transform="translate(24.000000, 12.000000)" fill="#F2F2F2">
                        <path d="M25.3423937,10.4725061 L23.7139465,1.12886353 C23.6001867,0.4761057 23.0366325,0 22.377947,0 L8.48930311,0 C7.83043669,0 7.26706339,0.4761057 7.15330358,1.12886353 L5.52051574,10.4972483 C2.38190251,11.0939723 0,13.8712859 0,17.1992957 L0,38.8007043 C0,42.1287141 2.38190251,44.9062096 5.52051574,45.5027517 L7.15330358,54.8711365 C7.26706339,55.5238943 7.83061754,56 8.48930311,56 L22.377947,56 C23.0368134,56 23.6001867,55.5238943 23.7139465,54.8711365 L25.3423937,45.5274939 C28.5486479,44.9868037 31,42.177107 31,38.8007043 L31,17.1992957 C31,13.822893 28.5486479,11.0131963 25.3423937,10.4725061 Z M2.71269216,37.9516461 L2.71269216,18.0481719 L28.287127,18.0481719 L28.287127,37.9516461 L2.71269216,37.9516461 Z M9.62852892,2.72892071 L21.2385403,2.72892071 L22.5714652,10.3769939 L8.29542312,10.3769939 L9.62852892,2.72892071 Z M6.78200169,13.1059146 L24.1863481,13.1059146 L24.2178174,13.1059146 C25.7882092,13.1059146 27.1526035,14.0057307 27.8308217,15.3192512 L3.16917826,15.3192512 C3.84739652,14.0057307 5.21179079,13.1059146 6.78200169,13.1059146 Z M21.2385403,53.2710793 L9.62852892,53.2710793 L8.29560398,45.6230061 L22.5716461,45.6230061 L21.2385403,53.2710793 Z M24.2179983,42.8940854 L24.186529,42.8940854 L6.78200169,42.8940854 C5.21160993,42.8940854 3.84721566,41.9940873 3.1689974,40.6805668 L27.8308217,40.6805668 C27.1527843,41.9942693 25.7882092,42.8940854 24.2179983,42.8940854 Z" id="Shape"></path>
                    </g>
                </g>
            </g>
        </g>
    </g>
</svg>