<?xml version="1.0" encoding="UTF-8"?>
<svg width="20px" height="21px" viewBox="0 0 20 21" version="1.1" xmlns="http://www.w3.org/2000/svg" xmlns:xlink="http://www.w3.org/1999/xlink">
    <!-- Generator: sketchtool 62 (101010) - https://sketch.com -->
    <title>9A72D851-D5FF-4062-BDF1-81A72D486E1E</title>
    <desc>Created with sketchtool.</desc>
    <g id="Page-1" stroke="none" stroke-width="1" fill="none" fill-rule="evenodd">
        <g id="Dashboard---No-connected-devices" transform="translate(-40.000000, -280.000000)" fill="#FFFFFF" fill-rule="nonzero">
            <path d="M58.75,300.25 C59.1015625,300.25 59.3977865,300.126302 59.6386719,299.878906 C59.8795573,299.63151 60,299.338542 60,299 L60,283.375 C60,283.023438 59.8795573,282.727214 59.6386719,282.486328 C59.3977865,282.245443 59.1015625,282.125 58.75,282.125 L53.75,282.125 L53.75,280.875 C53.75,280.705729 53.688151,280.559245 53.5644531,280.435547 C53.4407552,280.311849 53.2942708,280.25 53.125,280.25 C52.9557292,280.25 52.8092448,280.311849 52.6855469,280.435547 C52.561849,280.559245 52.5,280.705729 52.5,280.875 L52.5,282.125 L47.5,282.125 L47.5,280.875 C47.5,280.705729 47.438151,280.559245 47.3144531,280.435547 C47.1907552,280.311849 47.0442708,280.25 46.875,280.25 C46.7057292,280.25 46.5592448,280.311849 46.4355469,280.435547 C46.311849,280.559245 46.25,280.705729 46.25,280.875 L46.25,282.125 L41.25,282.125 C40.8984375,282.125 40.6022135,282.245443 40.3613281,282.486328 C40.1204427,282.727214 40,283.023438 40,283.375 L40,299 C40,299.338542 40.1204427,299.63151 40.3613281,299.878906 C40.6022135,300.126302 40.8984375,300.25 41.25,300.25 L58.75,300.25 Z M58.75,299 L41.25,299 L41.25,283.375 L46.25,283.375 L46.25,284 C46.25,284.169271 46.311849,284.315755 46.4355469,284.439453 C46.5592448,284.563151 46.7057292,284.625 46.875,284.625 C47.0442708,284.625 47.1907552,284.563151 47.3144531,284.439453 C47.438151,284.315755 47.5,284.169271 47.5,284 L47.5,283.375 L52.5,283.375 L52.5,284 C52.5,284.169271 52.561849,284.315755 52.6855469,284.439453 C52.8092448,284.563151 52.9557292,284.625 53.125,284.625 C53.2942708,284.625 53.4407552,284.563151 53.5644531,284.439453 C53.688151,284.315755 53.75,284.169271 53.75,284 L53.75,283.375 L58.75,283.375 L58.75,299 Z M55.625,290.25 C55.7942708,290.25 55.9407552,290.188151 56.0644531,290.064453 C56.188151,289.940755 56.25,289.794271 56.25,289.625 L56.25,288.375 C56.25,288.205729 56.188151,288.059245 56.0644531,287.935547 C55.9407552,287.811849 55.7942708,287.75 55.625,287.75 L54.375,287.75 C54.2057292,287.75 54.0592448,287.811849 53.9355469,287.935547 C53.811849,288.059245 53.75,288.205729 53.75,288.375 L53.75,289.625 C53.75,289.794271 53.811849,289.940755 53.9355469,290.064453 C54.0592448,290.188151 54.2057292,290.25 54.375,290.25 L55.625,290.25 Z M50.625,290.25 C50.7942708,290.25 50.9407552,290.188151 51.0644531,290.064453 C51.188151,289.940755 51.25,289.794271 51.25,289.625 L51.25,288.375 C51.25,288.205729 51.188151,288.059245 51.0644531,287.935547 C50.9407552,287.811849 50.7942708,287.75 50.625,287.75 L49.375,287.75 C49.2057292,287.75 49.0592448,287.811849 48.9355469,287.935547 C48.811849,288.059245 48.75,288.205729 48.75,288.375 L48.75,289.625 C48.75,289.794271 48.811849,289.940755 48.9355469,290.064453 C49.0592448,290.188151 49.2057292,290.25 49.375,290.25 L50.625,290.25 Z M45.625,290.25 C45.7942708,290.25 45.9407552,290.188151 46.0644531,290.064453 C46.188151,289.940755 46.25,289.794271 46.25,289.625 L46.25,288.375 C46.25,288.205729 46.188151,288.059245 46.0644531,287.935547 C45.9407552,287.811849 45.7942708,287.75 45.625,287.75 L44.375,287.75 C44.2057292,287.75 44.0592448,287.811849 43.9355469,287.935547 C43.811849,288.059245 43.75,288.205729 43.75,288.375 L43.75,289.625 C43.75,289.794271 43.811849,289.940755 43.9355469,290.064453 C44.0592448,290.188151 44.2057292,290.25 44.375,290.25 L45.625,290.25 Z M55.625,295.25 C55.7942708,295.25 55.9407552,295.188151 56.0644531,295.064453 C56.188151,294.940755 56.25,294.794271 56.25,294.625 L56.25,293.375 C56.25,293.205729 56.188151,293.059245 56.0644531,292.935547 C55.9407552,292.811849 55.7942708,292.75 55.625,292.75 L54.375,292.75 C54.2057292,292.75 54.0592448,292.811849 53.9355469,292.935547 C53.811849,293.059245 53.75,293.205729 53.75,293.375 L53.75,294.625 C53.75,294.794271 53.811849,294.940755 53.9355469,295.064453 C54.0592448,295.188151 54.2057292,295.25 54.375,295.25 L55.625,295.25 Z M50.625,295.25 C50.7942708,295.25 50.9407552,295.188151 51.0644531,295.064453 C51.188151,294.940755 51.25,294.794271 51.25,294.625 L51.25,293.375 C51.25,293.205729 51.188151,293.059245 51.0644531,292.935547 C50.9407552,292.811849 50.7942708,292.75 50.625,292.75 L49.375,292.75 C49.2057292,292.75 49.0592448,292.811849 48.9355469,292.935547 C48.811849,293.059245 48.75,293.205729 48.75,293.375 L48.75,294.625 C48.75,294.794271 48.811849,294.940755 48.9355469,295.064453 C49.0592448,295.188151 49.2057292,295.25 49.375,295.25 L50.625,295.25 Z M45.625,295.25 C45.7942708,295.25 45.9407552,295.188151 46.0644531,295.064453 C46.188151,294.940755 46.25,294.794271 46.25,294.625 L46.25,293.375 C46.25,293.205729 46.188151,293.059245 46.0644531,292.935547 C45.9407552,292.811849 45.7942708,292.75 45.625,292.75 L44.375,292.75 C44.2057292,292.75 44.0592448,292.811849 43.9355469,292.935547 C43.811849,293.059245 43.75,293.205729 43.75,293.375 L43.75,294.625 C43.75,294.794271 43.811849,294.940755 43.9355469,295.064453 C44.0592448,295.188151 44.2057292,295.25 44.375,295.25 L45.625,295.25 Z" id="appointments"></path>
        </g>
    </g>
</svg>