<?xml version="1.0" encoding="UTF-8"?>
<svg width="14px" height="17px" viewBox="0 0 14 17" version="1.1" xmlns="http://www.w3.org/2000/svg" xmlns:xlink="http://www.w3.org/1999/xlink">
    <!-- Generator: sketchtool 62 (101010) - https://sketch.com -->
    <title>E59E3429-504B-4BA3-A520-50119574F807</title>
    <desc>Created with sketchtool.</desc>
    <g id="Page-1" stroke="none" stroke-width="1" fill="none" fill-rule="evenodd">
        <g id="My-information" transform="translate(-1036.000000, -22.000000)" fill="#B0B0B0" fill-rule="nonzero">
            <path d="M1042.78572,30.2142776 C1045.03349,30.2142776 1046.85716,28.3906147 1046.85716,26.1428442 C1046.85716,23.8950737 1045.03349,22.0714108 1042.78572,22.0714108 C1040.53795,22.0714108 1038.71429,23.8950737 1038.71429,26.1428442 C1038.71429,28.3906147 1040.53795,30.2142776 1042.78572,30.2142776 Z M1047.31307,38.3571445 C1048.55359,38.3571445 1049.57144,37.0954242 1049.57144,35.5474313 C1049.57144,32.7589235 1048.88227,29.5357054 1046.10436,29.5357054 C1045.24555,30.373318 1044.07925,30.8928499 1042.78572,30.8928499 C1041.49219,30.8928499 1040.3259,30.373318 1039.46708,29.5357054 C1036.68917,29.5357054 1036,32.7589235 1036,35.5474313 C1036,37.0954242 1037.01786,38.3571445 1038.25837,38.3571445 L1047.31307,38.3571445 Z" id="avatar"></path>
        </g>
    </g>
</svg>