<?xml version="1.0" encoding="UTF-8"?>
<svg width="20px" height="21px" viewBox="0 0 20 21" version="1.1" xmlns="http://www.w3.org/2000/svg" xmlns:xlink="http://www.w3.org/1999/xlink">
    <!-- Generator: sketchtool 62 (101010) - https://sketch.com -->
    <title>5A8548FC-F2A1-4F8F-B4A7-C223102AE5B3</title>
    <desc>Created with sketchtool.</desc>
    <g id="Page-1" stroke="none" stroke-width="1" fill="none" fill-rule="evenodd">
        <g id="Dashboard---No-connected-devices" transform="translate(-40.000000, -199.000000)" fill="#FFFFFF" fill-rule="nonzero">
            <g id="Group-2" transform="translate(17.000000, 199.000000)">
                <path d="M33,20.25 C34.3802083,20.25 35.6790365,19.9895833 36.8964844,19.46875 C38.1139323,18.9479167 39.1751302,18.235026 40.0800781,17.3300781 C40.985026,16.4251302 41.6979167,15.3639323 42.21875,14.1464844 C42.7395833,12.9290365 43,11.6302083 43,10.25 C43,8.86979167 42.7395833,7.57096354 42.21875,6.35351562 C41.6979167,5.13606771 40.985026,4.07486979 40.0800781,3.16992188 C39.1751302,2.26497396 38.1139323,1.55208333 36.8964844,1.03125 C35.6790365,0.510416667 34.3802083,0.25 33,0.25 C31.6197917,0.25 30.3209635,0.510416667 29.1035156,1.03125 C27.8860677,1.55208333 26.8248698,2.26497396 25.9199219,3.16992188 C25.014974,4.07486979 24.3020833,5.13606771 23.78125,6.35351562 C23.2604167,7.57096354 23,8.86979167 23,10.25 C23,11.6302083 23.2604167,12.9290365 23.78125,14.1464844 C24.3020833,15.3639323 25.014974,16.4251302 25.9199219,17.3300781 C26.8248698,18.235026 27.8860677,18.9479167 29.1035156,19.46875 C30.3209635,19.9895833 31.6197917,20.25 33,20.25 Z M33,19.0195312 C31.7890625,19.0195312 30.6529948,18.7884115 29.5917969,18.3261719 C28.530599,17.8639323 27.6061198,17.2356771 26.8183594,16.4414062 C26.030599,15.6471354 25.405599,14.719401 24.9433594,13.6582031 C24.4811198,12.5970052 24.25,11.4609375 24.25,10.25 C24.25,9.0390625 24.4811198,7.90299479 24.9433594,6.84179688 C25.405599,5.78059896 26.030599,4.85611979 26.8183594,4.06835938 C27.6061198,3.28059896 28.530599,2.65559896 29.5917969,2.19335938 C30.6529948,1.73111979 31.7890625,1.5 33,1.5 C34.2109375,1.5 35.3470052,1.73111979 36.4082031,2.19335938 C37.469401,2.65559896 38.3938802,3.28059896 39.1816406,4.06835938 C39.969401,4.85611979 40.594401,5.78059896 41.0566406,6.84179688 C41.5188802,7.90299479 41.75,9.0390625 41.75,10.25 C41.75,11.4609375 41.5188802,12.5970052 41.0566406,13.6582031 C40.594401,14.719401 39.969401,15.6471354 39.1816406,16.4414062 C38.3938802,17.2356771 37.469401,17.8639323 36.4082031,18.3261719 C35.3470052,18.7884115 34.2109375,19.0195312 33,19.0195312 Z M31.1347656,14.0195312 C31.3105469,14.0195312 31.4570312,13.9544271 31.5742188,13.8242188 C31.5872396,13.8111979 31.6002604,13.7981771 31.6132812,13.7851562 C31.6263021,13.7721354 31.6393229,13.7591146 31.6523438,13.7460938 L37.8828125,7.4765625 C38,7.359375 38.0585938,7.21289062 38.0585938,7.03710938 C38.0585938,6.86132812 38,6.71484375 37.8828125,6.59765625 C37.7526042,6.46744792 37.6028646,6.40234375 37.4335938,6.40234375 C37.2643229,6.40234375 37.1145833,6.46744792 36.984375,6.59765625 L31.125,12.4960938 L28.4882812,9.859375 C28.3580729,9.72916667 28.2083333,9.6640625 28.0390625,9.6640625 C27.8697917,9.6640625 27.7200521,9.72916667 27.5898438,9.859375 C27.4726562,9.9765625 27.4140625,10.1230469 27.4140625,10.2988281 C27.4140625,10.4746094 27.4726562,10.6210938 27.5898438,10.7382812 L30.6953125,13.8242188 C30.8125,13.9544271 30.9589844,14.0195312 31.1347656,14.0195312 Z" id="book-service"></path>
            </g>
        </g>
    </g>
</svg>