<?xml version="1.0" encoding="UTF-8"?>
<svg width="20px" height="21px" viewBox="0 0 20 21" version="1.1" xmlns="http://www.w3.org/2000/svg" xmlns:xlink="http://www.w3.org/1999/xlink">
    <!-- Generator: sketchtool 62 (101010) - https://sketch.com -->
    <title>C90EDB12-0F41-40DC-8D06-F4ADAEF42A89</title>
    <desc>Created with sketchtool.</desc>
    <g id="Page-1" stroke="none" stroke-width="1" fill="none" fill-rule="evenodd">
        <g id="Sign-up" transform="translate(-735.000000, -472.000000)" fill="#333333" fill-rule="nonzero">
            <g id="Group" transform="translate(400.000000, 120.000000)">
                <path d="M353.75,372.25 C354.101562,372.25 354.397786,372.126302 354.638672,371.878906 C354.879557,371.63151 355,371.338542 355,371 L355,355.375 C355,355.023438 354.879557,354.727214 354.638672,354.486328 C354.397786,354.245443 354.101562,354.125 353.75,354.125 L348.75,354.125 L348.75,352.875 C348.75,352.705729 348.688151,352.559245 348.564453,352.435547 C348.440755,352.311849 348.294271,352.25 348.125,352.25 C347.955729,352.25 347.809245,352.311849 347.685547,352.435547 C347.561849,352.559245 347.5,352.705729 347.5,352.875 L347.5,354.125 L342.5,354.125 L342.5,352.875 C342.5,352.705729 342.438151,352.559245 342.314453,352.435547 C342.190755,352.311849 342.044271,352.25 341.875,352.25 C341.705729,352.25 341.559245,352.311849 341.435547,352.435547 C341.311849,352.559245 341.25,352.705729 341.25,352.875 L341.25,354.125 L336.25,354.125 C335.898438,354.125 335.602214,354.245443 335.361328,354.486328 C335.120443,354.727214 335,355.023438 335,355.375 L335,371 C335,371.338542 335.120443,371.63151 335.361328,371.878906 C335.602214,372.126302 335.898438,372.25 336.25,372.25 L353.75,372.25 Z M353.75,371 L336.25,371 L336.25,355.375 L341.25,355.375 L341.25,356 C341.25,356.169271 341.311849,356.315755 341.435547,356.439453 C341.559245,356.563151 341.705729,356.625 341.875,356.625 C342.044271,356.625 342.190755,356.563151 342.314453,356.439453 C342.438151,356.315755 342.5,356.169271 342.5,356 L342.5,355.375 L347.5,355.375 L347.5,356 C347.5,356.169271 347.561849,356.315755 347.685547,356.439453 C347.809245,356.563151 347.955729,356.625 348.125,356.625 C348.294271,356.625 348.440755,356.563151 348.564453,356.439453 C348.688151,356.315755 348.75,356.169271 348.75,356 L348.75,355.375 L353.75,355.375 L353.75,371 Z M350.625,362.25 C350.794271,362.25 350.940755,362.188151 351.064453,362.064453 C351.188151,361.940755 351.25,361.794271 351.25,361.625 L351.25,360.375 C351.25,360.205729 351.188151,360.059245 351.064453,359.935547 C350.940755,359.811849 350.794271,359.75 350.625,359.75 L349.375,359.75 C349.205729,359.75 349.059245,359.811849 348.935547,359.935547 C348.811849,360.059245 348.75,360.205729 348.75,360.375 L348.75,361.625 C348.75,361.794271 348.811849,361.940755 348.935547,362.064453 C349.059245,362.188151 349.205729,362.25 349.375,362.25 L350.625,362.25 Z M345.625,362.25 C345.794271,362.25 345.940755,362.188151 346.064453,362.064453 C346.188151,361.940755 346.25,361.794271 346.25,361.625 L346.25,360.375 C346.25,360.205729 346.188151,360.059245 346.064453,359.935547 C345.940755,359.811849 345.794271,359.75 345.625,359.75 L344.375,359.75 C344.205729,359.75 344.059245,359.811849 343.935547,359.935547 C343.811849,360.059245 343.75,360.205729 343.75,360.375 L343.75,361.625 C343.75,361.794271 343.811849,361.940755 343.935547,362.064453 C344.059245,362.188151 344.205729,362.25 344.375,362.25 L345.625,362.25 Z M340.625,362.25 C340.794271,362.25 340.940755,362.188151 341.064453,362.064453 C341.188151,361.940755 341.25,361.794271 341.25,361.625 L341.25,360.375 C341.25,360.205729 341.188151,360.059245 341.064453,359.935547 C340.940755,359.811849 340.794271,359.75 340.625,359.75 L339.375,359.75 C339.205729,359.75 339.059245,359.811849 338.935547,359.935547 C338.811849,360.059245 338.75,360.205729 338.75,360.375 L338.75,361.625 C338.75,361.794271 338.811849,361.940755 338.935547,362.064453 C339.059245,362.188151 339.205729,362.25 339.375,362.25 L340.625,362.25 Z M350.625,367.25 C350.794271,367.25 350.940755,367.188151 351.064453,367.064453 C351.188151,366.940755 351.25,366.794271 351.25,366.625 L351.25,365.375 C351.25,365.205729 351.188151,365.059245 351.064453,364.935547 C350.940755,364.811849 350.794271,364.75 350.625,364.75 L349.375,364.75 C349.205729,364.75 349.059245,364.811849 348.935547,364.935547 C348.811849,365.059245 348.75,365.205729 348.75,365.375 L348.75,366.625 C348.75,366.794271 348.811849,366.940755 348.935547,367.064453 C349.059245,367.188151 349.205729,367.25 349.375,367.25 L350.625,367.25 Z M345.625,367.25 C345.794271,367.25 345.940755,367.188151 346.064453,367.064453 C346.188151,366.940755 346.25,366.794271 346.25,366.625 L346.25,365.375 C346.25,365.205729 346.188151,365.059245 346.064453,364.935547 C345.940755,364.811849 345.794271,364.75 345.625,364.75 L344.375,364.75 C344.205729,364.75 344.059245,364.811849 343.935547,364.935547 C343.811849,365.059245 343.75,365.205729 343.75,365.375 L343.75,366.625 C343.75,366.794271 343.811849,366.940755 343.935547,367.064453 C344.059245,367.188151 344.205729,367.25 344.375,367.25 L345.625,367.25 Z M340.625,367.25 C340.794271,367.25 340.940755,367.188151 341.064453,367.064453 C341.188151,366.940755 341.25,366.794271 341.25,366.625 L341.25,365.375 C341.25,365.205729 341.188151,365.059245 341.064453,364.935547 C340.940755,364.811849 340.794271,364.75 340.625,364.75 L339.375,364.75 C339.205729,364.75 339.059245,364.811849 338.935547,364.935547 C338.811849,365.059245 338.75,365.205729 338.75,365.375 L338.75,366.625 C338.75,366.794271 338.811849,366.940755 338.935547,367.064453 C339.059245,367.188151 339.205729,367.25 339.375,367.25 L340.625,367.25 Z" id="calendar"></path>
            </g>
        </g>
    </g>
</svg>