<?xml version="1.0" encoding="UTF-8"?>
<svg width="24px" height="23px" viewBox="0 0 24 23" version="1.1" xmlns="http://www.w3.org/2000/svg" xmlns:xlink="http://www.w3.org/1999/xlink">
    <!-- Generator: sketchtool 62 (101010) - https://sketch.com -->
    <title>B2C194E3-1503-4A0A-8766-664605C8A6F2</title>
    <desc>Created with sketchtool.</desc>
    <g id="Page-1" stroke="none" stroke-width="1" fill="none" fill-rule="evenodd">
        <g id="Dashboard---No-connected-devices" transform="translate(-1134.000000, -795.000000)" fill="#FFFFFF" fill-rule="nonzero">
            <g id="Group" transform="translate(98.000000, 60.000000)">
                <path d="M1039.04688,753.34375 C1039.07812,753.34375 1039.10938,753.339844 1039.14062,753.332031 C1039.17188,753.324219 1039.1875,753.320312 1039.1875,753.320312 L1039.21094,753.320312 L1039.21094,753.320312 C1039.69531,753.242188 1040.21484,753.070312 1040.76953,752.804688 C1041.32422,752.539062 1041.85156,752.242188 1042.35156,751.914062 C1042.85156,751.585938 1043.28516,751.273438 1043.65234,750.976562 C1044.01953,750.679688 1044.25781,750.46875 1044.36719,750.34375 C1044.58594,750.375 1044.77734,750.394531 1044.94141,750.402344 C1045.10547,750.410156 1045.27344,750.414062 1045.44531,750.414062 L1045.96094,750.414062 L1045.96094,750.414062 C1047.30469,750.414062 1048.5625,750.230469 1049.73438,749.863281 C1050.90625,749.496094 1051.92188,748.976562 1052.78125,748.304688 C1053.64062,747.632812 1054.3125,746.824219 1054.79688,745.878906 C1055.28125,744.933594 1055.51562,743.890625 1055.5,742.75 C1055.5,741.734375 1055.24609,740.78125 1054.73828,739.890625 C1054.23047,739 1053.53906,738.226562 1052.66406,737.570312 C1051.78906,736.914062 1050.76172,736.394531 1049.58203,736.011719 C1048.40234,735.628906 1047.14062,735.4375 1045.79688,735.4375 C1044.4375,735.4375 1043.16406,735.628906 1041.97656,736.011719 C1040.78906,736.394531 1039.75,736.914062 1038.85938,737.570312 C1037.96875,738.226562 1037.26953,739 1036.76172,739.890625 C1036.25391,740.78125 1036,741.734375 1036,742.75 C1036,743.375 1036.07812,744.007812 1036.23438,744.648438 C1036.39062,745.289062 1036.625,745.898438 1036.9375,746.476562 C1037.25,747.054688 1037.64844,747.585938 1038.13281,748.070312 C1038.61719,748.554688 1039.17969,748.960938 1039.82031,749.289062 L1039.82031,749.335938 L1039.82031,749.335938 C1039.82031,749.882812 1039.65234,750.480469 1039.31641,751.128906 C1038.98047,751.777344 1038.71875,752.257812 1038.53125,752.570312 L1038.55469,752.570312 C1038.53906,752.601562 1038.52734,752.632812 1038.51953,752.664062 C1038.51172,752.695312 1038.50781,752.734375 1038.50781,752.78125 C1038.50781,752.9375 1038.55859,753.070312 1038.66016,753.179688 C1038.76172,753.289062 1038.89062,753.34375 1039.04688,753.34375 Z M1040.75781,751.1875 C1041.02344,750.46875 1041.17188,749.972656 1041.20312,749.699219 C1041.23438,749.425781 1041.25,749.289062 1041.25,749.289062 L1041.32031,748.375 L1040.5,747.953125 C1039.46875,747.421875 1038.71094,746.664062 1038.22656,745.679688 C1037.74219,744.695312 1037.5,743.71875 1037.5,742.75 C1037.5,741.9375 1037.71484,741.179688 1038.14453,740.476562 C1038.57422,739.773438 1039.16797,739.160156 1039.92578,738.636719 C1040.68359,738.113281 1041.56641,737.699219 1042.57422,737.394531 C1043.58203,737.089844 1044.65625,736.9375 1045.79688,736.9375 C1046.9375,736.9375 1048.00781,737.089844 1049.00781,737.394531 C1050.00781,737.699219 1050.875,738.113281 1051.60938,738.636719 C1052.34375,739.160156 1052.92578,739.773438 1053.35547,740.476562 C1053.78516,741.179688 1054,741.9375 1054,742.75 C1054,743.640625 1053.79688,744.464844 1053.39062,745.222656 C1052.98438,745.980469 1052.42578,746.636719 1051.71484,747.191406 C1051.00391,747.746094 1050.16016,748.175781 1049.18359,748.480469 C1048.20703,748.785156 1047.14844,748.9375 1046.00781,748.9375 L1045.5625,748.9375 L1045.5625,748.9375 C1045.26562,748.9375 1044.9375,748.914062 1044.57812,748.867188 L1043.75781,748.796875 L1042.79688,749.59375 C1042.6875,749.734375 1042.42578,749.972656 1042.01172,750.308594 C1041.59766,750.644531 1041.17969,750.9375 1040.75781,751.1875 Z M1057.09375,757.5625 C1057.23438,757.5625 1057.35156,757.515625 1057.44531,757.421875 C1057.53906,757.328125 1057.58594,757.210938 1057.58594,757.070312 C1057.58594,757.039062 1057.58203,757.007812 1057.57422,756.976562 C1057.56641,756.945312 1057.55469,756.914062 1057.53906,756.882812 C1057.38281,756.617188 1057.21094,756.164062 1057.02344,755.523438 C1056.83594,754.882812 1056.74219,754.320312 1056.74219,753.835938 L1056.74219,753.789062 L1056.74219,753.789062 C1057.85156,753.226562 1058.67188,752.527344 1059.20312,751.691406 C1059.73438,750.855469 1060,749.890625 1060,748.796875 C1060,747.78125 1059.78516,746.882812 1059.35547,746.101562 C1058.92578,745.320312 1058.21875,744.640625 1057.23438,744.0625 C1057.20312,744.328125 1057.15234,744.601562 1057.08203,744.882812 C1057.01172,745.164062 1056.9375,745.429688 1056.85938,745.679688 C1057.5,746.132812 1057.93359,746.601562 1058.16016,747.085938 C1058.38672,747.570312 1058.5,748.140625 1058.5,748.796875 C1058.5,749.609375 1058.30469,750.316406 1057.91406,750.917969 C1057.52344,751.519531 1056.88281,752.046875 1055.99219,752.5 L1055.26562,752.851562 C1055.26562,752.851562 1055.28125,753.195312 1055.3125,753.882812 C1055.34375,754.570312 1055.39062,755.03125 1055.45312,755.265625 C1054.71875,754.734375 1054.20703,754.273438 1053.91797,753.882812 C1053.62891,753.492188 1053.48438,753.296875 1053.48438,753.296875 L1052.6875,753.414062 C1052.53125,753.445312 1052.30078,753.460938 1051.99609,753.460938 L1051.53906,753.460938 L1051.53906,753.460938 C1050.52344,753.460938 1049.625,753.339844 1048.84375,753.097656 C1048.0625,752.855469 1047.35156,752.484375 1046.71094,751.984375 C1046.88281,751.96875 1046.57422,751.960938 1045.78516,751.960938 C1044.99609,751.960938 1044.58594,751.976562 1044.55469,752.007812 C1044.92969,752.460938 1045.35938,752.871094 1045.84375,753.238281 C1046.32812,753.605469 1046.86719,753.917969 1047.46094,754.175781 C1048.05469,754.433594 1048.69141,754.628906 1049.37109,754.761719 C1050.05078,754.894531 1050.77344,754.960938 1051.53906,754.960938 L1051.98438,754.960938 L1051.98438,754.960938 C1052.14062,754.960938 1052.28906,754.957031 1052.42969,754.949219 C1052.57031,754.941406 1052.73438,754.929688 1052.92188,754.914062 C1053.09375,755.132812 1053.60156,755.59375 1054.44531,756.296875 C1055.28906,757 1056.125,757.421875 1056.95312,757.5625 L1057.09375,757.5625 L1057.09375,757.5625 Z" id="chat"></path>
            </g>
        </g>
    </g>
</svg>