<?xml version="1.0" encoding="UTF-8"?>
<svg width="80px" height="80px" viewBox="0 0 80 80" version="1.1" xmlns="http://www.w3.org/2000/svg" xmlns:xlink="http://www.w3.org/1999/xlink">
    <!-- Generator: sketchtool 62 (101010) - https://sketch.com -->
    <title>D8F95F84-64D9-4295-9BDB-27931C51FFDA</title>
    <desc>Created with sketchtool.</desc>
    <g id="Page-1" stroke="none" stroke-width="1" fill="none" fill-rule="evenodd">
        <g id="Book-service" transform="translate(-129.000000, -373.000000)" fill-rule="nonzero">
            <g id="Group" transform="translate(100.000000, 345.000000)">
                <g id="applewatch">
                    <g id="Chiropractic-Copy" transform="translate(29.000000, 28.000000)">
                        <path d="M63.59375,80 L16.40625,80 C7.35984375,80 0,72.6401563 0,63.59375 L0,16.40625 C0,7.35984375 7.35984375,0 16.40625,0 L63.59375,0 C72.6401563,0 80,7.35984375 80,16.40625 L80,63.59375 C80,72.6401563 72.6401563,80 63.59375,80 Z" id="Path" fill="#333333"></path>
                        <path d="M45.5607865,16.1545776 C46.7299896,15.6986021 48.044053,16.2855961 48.495836,17.465674 C48.5966659,17.7290462 48.6483845,18.0089633 48.6483844,18.2915437 L48.6483844,18.2915437 L48.6470074,19.6691462 L48.777742,19.69695 C50.2315788,20.0411988 51.3264433,21.3259499 51.3978189,22.8805033 L51.3978189,22.8805033 L51.4015243,23.0422541 C51.4015243,24.6688365 50.2817111,26.0314388 48.7758197,26.3875543 L48.7758197,26.3875543 L48.647764,26.4137358 L48.6483845,26.7034136 C48.6483774,27.3667381 48.3645057,27.9864958 47.8873025,28.4149863 C48.1487044,28.6486821 48.3607922,28.9484313 48.495836,29.301172 C48.5966659,29.5645442 48.6483845,29.8444613 48.6483844,30.1270417 L48.6483844,30.1270417 L48.6470074,31.5042129 L48.777742,31.5324481 C50.2315788,31.8766968 51.3264433,33.1614479 51.3978189,34.7160013 L51.3978189,34.7160013 L51.4015243,34.8777521 C51.4015243,36.5043345 50.2817111,37.8669368 48.7758197,38.2230523 L48.7758197,38.2230523 L48.647764,38.249566 L48.6483845,38.5389116 C48.6483774,39.2022361 48.3645057,39.8219938 47.8873025,40.2504843 C48.1487044,40.4839746 48.3607922,40.7837238 48.495836,41.1364645 C48.5966659,41.3998367 48.6483845,41.6797538 48.6483844,41.9623342 L48.6483844,41.9623342 L48.6470074,43.3395054 L48.777742,43.3677406 C50.2315788,43.7119893 51.3264433,44.9967404 51.3978189,46.5512938 L51.3978189,46.5512938 L51.4015243,46.7130446 C51.4015243,48.339627 50.2817111,49.7022293 48.7758197,50.0583448 L48.7758197,50.0583448 L48.647764,50.0848585 L48.6483845,50.3742041 C48.6483774,51.0375286 48.3645057,51.6572863 47.8873025,52.0857768 C48.1487044,52.3192671 48.3607922,52.6190163 48.495836,52.971757 C48.5966659,53.2351292 48.6483845,53.5150463 48.6483844,53.7976267 L48.6483844,53.7976267 L48.6470074,55.1747979 L48.777742,55.2030331 C50.2315788,55.5472818 51.3264433,56.8320329 51.3978189,58.3865863 L51.3978189,58.3865863 L51.4015243,58.5483371 C51.4015243,60.1749195 50.2817111,61.5375218 48.7758197,61.8936373 L48.7758197,61.8936373 L48.647764,61.920151 L48.6483845,62.2094966 C48.6483757,63.0268153 48.217402,63.7779908 47.5248201,64.1867245 L47.5248201,64.1867245 L47.3919367,64.2592816 C45.093186,65.4167101 42.8637665,66 40.7078653,66 C38.5549664,66 36.4133482,65.4182553 34.2912555,64.2630448 C33.5568643,63.8632876 33.099031,63.0890449 33.099031,62.2470241 L33.099031,62.2470241 L33.0988527,61.9422945 L32.9941847,61.9258707 C31.4654226,61.6376752 30.2962945,60.3182467 30.2224577,58.7100879 L30.2224577,58.7100879 L30.2187522,58.5483371 C30.2187522,56.8675353 31.4144639,55.4686056 32.9932175,55.1708045 L32.9932175,55.1708045 L33.0988527,55.1526544 L33.099031,53.8641732 C33.0990281,53.1751377 33.400443,52.5571565 33.8774542,52.1372216 C33.3887704,51.7085241 33.099031,51.0815745 33.099031,50.4117316 L33.099031,50.4117316 L33.0988527,50.107002 L32.9941847,50.0905782 C31.4654226,49.8023827 30.2962945,48.4829542 30.2224577,46.8747954 L30.2224577,46.8747954 L30.2187522,46.7130446 C30.2187522,45.0322428 31.4144639,43.6333131 32.9932175,43.335512 L32.9932175,43.335512 L33.0988527,43.3173619 L33.099031,42.0288807 C33.0990281,41.3398452 33.400443,40.721864 33.8774542,40.3019291 C33.3887704,39.8732316 33.099031,39.246282 33.099031,38.5764391 L33.099031,38.5764391 L33.0988527,38.2717095 L32.9941847,38.2552857 C31.4654226,37.9670902 30.2962945,36.6476617 30.2224577,35.0395029 L30.2224577,35.0395029 L30.2187522,34.8777521 C30.2187522,33.1969503 31.4144639,31.7980206 32.9932175,31.5002195 L32.9932175,31.5002195 L33.0988527,31.4820694 L33.099031,30.1935882 C33.0990281,29.5045527 33.400443,28.8865715 33.8774542,28.4666366 C33.3887704,28.0377336 33.099031,27.410784 33.099031,26.7409411 L33.099031,26.7409411 L33.0988527,26.4366428 L32.9941847,26.4197877 C31.4654226,26.1315921 30.2962945,24.8121636 30.2224577,23.2040049 L30.2224577,23.2040049 L30.2187522,23.0422541 C30.2187522,21.3614523 31.4144639,19.9625226 32.9932175,19.6647215 L32.9932175,19.6647215 L33.0988527,19.6470027 L33.099031,18.3580902 C33.0990259,17.1381503 34.0438699,16.1409433 35.2352581,16.0712702 L35.2352581,16.0712702 L35.3686137,16.0673816 C35.6556899,16.0673816 35.9401598,16.1223517 36.2069344,16.2293762 C37.6615894,16.8129538 39.1602438,17.1041141 40.7078653,17.1041141 C42.3190202,17.1041141 43.9353417,16.7885006 45.5607865,16.1545776 Z M47.047933,53.4409749 C46.8715581,53.1026489 46.4680256,52.9440184 46.1061332,53.0851521 C45.1467775,53.4593006 44.1861548,53.7339216 43.2248667,53.908605 C42.374596,54.0786817 41.5358093,54.1647075 40.7078653,54.1647075 C39.894838,54.1647075 39.0834195,54.0817424 38.2740539,53.9162581 C37.3837976,53.7539354 36.5081184,53.4996373 35.6480548,53.1545975 C35.5591297,53.1189226 35.4643061,53.1005991 35.3686137,53.1005991 C34.9507934,53.1005991 34.6120844,53.4424605 34.6120861,53.8642383 L34.6120861,53.8642383 L34.6118403,56.6375841 L33.6231263,56.639419 C32.5785797,56.639419 31.7318074,57.4940707 31.7318074,58.5483371 C31.7318074,59.6026035 32.5785797,60.4572553 33.6217343,60.4572565 L33.6217343,60.4572565 L34.611775,60.4554179 L34.6120861,62.2468902 C34.6120861,62.5276076 34.7646932,62.7856817 35.0094983,62.9189385 C36.9175783,63.9576462 38.8142917,64.4728655 40.7078653,64.4728655 C42.6168038,64.4728655 44.6182902,63.9492104 46.7165115,62.8927491 C46.9731485,62.7635315 47.1353262,62.4989517 47.1353295,62.2099719 L47.1353295,62.2099719 L47.1342277,60.4537348 L47.9971503,60.4572553 C49.0416969,60.4572553 49.8884692,59.6026035 49.8884692,58.5483371 C49.8884692,57.4940707 49.0416969,56.639419 47.9940978,56.6394128 L47.9940978,56.6394128 L47.1344817,56.635912 L47.1353293,53.7973965 C47.1353293,53.7032805 47.1180899,53.6099755 47.0844802,53.5221854 L47.0844802,53.5221854 Z M47.047933,41.6056824 C46.8715581,41.2673564 46.4680256,41.1087259 46.1061332,41.2498596 C45.1381287,41.6273811 44.1688342,41.9035726 43.1988677,42.0780125 C42.3574925,42.2451345 41.5273675,42.329415 40.7078653,42.329415 C39.894838,42.329415 39.0834195,42.2464499 38.2740539,42.0809656 C37.3837976,41.9186429 36.5081184,41.6643448 35.6480548,41.319305 C35.5591297,41.2836301 35.4643061,41.2653066 35.3686137,41.2653066 C34.9507934,41.2653066 34.6120844,41.607168 34.6120861,42.0289458 L34.6120861,42.0289458 L34.6118403,44.8022916 L33.6231263,44.8041265 C32.5785797,44.8041265 31.7318074,45.6587782 31.7318074,46.7130446 C31.7318074,47.767311 32.5785797,48.6219628 33.6217343,48.6219641 L33.6217343,48.6219641 L34.611775,48.6201254 L34.6120861,50.4115977 C34.6120861,50.6923151 34.7646932,50.9503892 35.0094983,51.083646 C36.2281858,51.7470669 37.4422365,52.1969382 38.6537938,52.4354145 C39.3286,52.5515526 40.0133013,52.6101972 40.7078653,52.6101972 C41.4146346,52.6101972 42.1223981,52.5494625 42.8314898,52.4277657 C44.0879647,52.1853128 45.3826927,51.7290387 46.7165115,51.0574566 C46.9731485,50.928239 47.1353262,50.6636592 47.1353295,50.3746794 L47.1353295,50.3746794 L47.1342277,48.6184423 L47.9971503,48.6219628 C49.0416969,48.6219628 49.8884692,47.767311 49.8884692,46.7130446 C49.8884692,45.6587782 49.0416969,44.8041265 47.9940978,44.8041203 L47.9940978,44.8041203 L47.1344817,44.8006195 L47.1353293,41.9621041 C47.1353293,41.867988 47.1180899,41.774683 47.0844802,41.6868929 L47.0844802,41.6868929 Z M52.9106383,39.5064502 C53.066813,39.1183399 53.5109708,38.9291519 53.9026925,39.0838868 L53.9026925,39.0838868 L56.9847325,40.3013306 L57.0657395,40.3388091 C57.428519,40.5327628 57.5747317,40.9853654 57.3776649,41.3563839 L57.3776649,41.3563839 L56.6372992,42.7510086 L59.4202518,43.776067 L59.5019317,43.8115743 C59.8425272,43.9836152 60.0063937,44.3850898 59.869974,44.7487592 C59.7230604,45.1404031 59.2835189,45.3398943 58.8882307,45.1943351 L58.8882307,45.1943351 L55.2905916,43.8695571 L55.2074859,43.8333615 C54.83501,43.6445151 54.6806955,43.1850132 54.8808904,42.8081055 L54.8808904,42.8081055 L55.6316811,41.3960678 L53.3371337,40.4893581 L53.2563197,40.4519563 C52.9199047,40.2720222 52.7656189,39.8668382 52.9106383,39.5064502 Z M28.0893617,39.5064502 C28.2343811,39.8668382 28.0800953,40.2720222 27.7436803,40.4519563 L27.6628663,40.4893581 L25.3683189,41.3960678 L26.1191096,42.8081055 C26.3193045,43.1850132 26.16499,43.6445151 25.7925141,43.8333615 L25.7094084,43.8695571 L22.1117693,45.1943351 C21.7164811,45.3398943 21.2769396,45.1404031 21.130026,44.7487592 C20.9936063,44.3850898 21.1574728,43.9836152 21.4980683,43.8115743 L21.5797482,43.776067 L24.3627008,42.7510086 L23.6223351,41.3563839 C23.4252683,40.9853654 23.571481,40.5327628 23.9342605,40.3388091 L24.0152675,40.3013306 L27.0973075,39.0838868 C27.4890292,38.9291519 27.933187,39.1183399 28.0893617,39.5064502 Z M47.047933,29.77039 C46.8715581,29.4320639 46.4680256,29.2734334 46.1061332,29.4145671 C45.1414552,29.7907913 44.175496,30.0663807 43.2088674,30.2409181 C42.3640705,30.4089674 41.5306144,30.493917 40.7078653,30.493917 C39.8978505,30.493917 39.0894325,30.4115656 38.2830506,30.2473037 C37.3896902,30.0850605 36.5110121,29.8302132 35.6480548,29.4840125 C35.5591297,29.4483376 35.4643061,29.4300141 35.3686137,29.4300141 C34.9507934,29.4300141 34.6120844,29.7718755 34.6120861,30.1936533 L34.6120861,30.1936533 L34.6118403,32.9669991 L33.6231263,32.968834 C32.5785797,32.968834 31.7318074,33.8234857 31.7318074,34.8777521 C31.7318074,35.9320185 32.5785797,36.7866703 33.6217343,36.7866716 L33.6217343,36.7866716 L34.611775,36.7848329 L34.6120861,38.5763052 C34.6120861,38.8570226 34.7646932,39.1150968 35.0094983,39.2483535 C36.2281858,39.9117744 37.4422365,40.3616457 38.6537938,40.600122 C39.3286,40.7162602 40.0133013,40.7749047 40.7078653,40.7749047 C41.4146346,40.7749047 42.1223981,40.71417 42.8314898,40.5924732 C44.0879647,40.3500203 45.3826927,39.8937462 46.7165115,39.2221641 C46.9731485,39.0929465 47.1353262,38.8283667 47.1353295,38.5393869 L47.1353295,38.5393869 L47.1342277,36.7831498 L47.9971503,36.7866703 C49.0416969,36.7866703 49.8884692,35.9320185 49.8884692,34.8777521 C49.8884692,33.8234857 49.0416969,32.968834 47.9940978,32.9688278 L47.9940978,32.9688278 L47.1344817,32.965327 L47.1353293,30.1268116 C47.1353293,30.0326955 47.1180899,29.9393905 47.0844802,29.8516004 L47.0844802,29.8516004 Z M22.7856313,32.6308718 L22.8737469,32.6450993 L26.1096598,33.3592475 C26.5209385,33.4500144 26.7833694,33.8552284 26.6958156,34.2643181 C26.6145157,34.6441872 26.2600309,34.8938244 25.8805123,34.8548756 L25.7925997,34.8406925 L23.3833081,34.3092942 L23.2161403,35.8997634 C23.1713453,36.3241816 22.7864626,36.6188344 22.3720645,36.5671093 L22.2829264,36.5506447 L18.559542,35.6371612 C18.1504375,35.5367928 17.8975952,35.1256187 17.9948028,34.7187781 C18.085067,34.3409976 18.4454203,34.099793 18.8239908,34.1476233 L18.9115619,34.1638612 L21.7919396,34.8702566 L21.9580129,33.3000531 C22.002108,32.8822665 22.376416,32.588803 22.7856313,32.6308718 Z M58.2143687,32.6308718 C58.623584,32.588803 58.997892,32.8822665 59.0419871,33.3000531 L59.0419871,33.3000531 L59.2080604,34.8702566 L62.0884381,34.1638612 L62.1760092,34.1476233 C62.5545797,34.099793 62.914933,34.3409976 63.0051972,34.7187781 C63.1024048,35.1256187 62.8495625,35.5367928 62.440458,35.6371612 L62.440458,35.6371612 L58.7170736,36.5506447 L58.6279355,36.5671093 C58.2135374,36.6188344 57.8286547,36.3241816 57.7838597,35.8997634 L57.7838597,35.8997634 L57.6166919,34.3092942 L55.2074003,34.8406925 L55.1194877,34.8548756 C54.7399691,34.8938244 54.3854843,34.6441872 54.3041844,34.2643181 C54.2166306,33.8552284 54.4790615,33.4500144 54.8903402,33.3592475 L54.8903402,33.3592475 L58.1262531,32.6450993 Z M23.6169906,24.3520294 L23.6648383,24.4271491 L25.1123628,27.0152991 L26.3742622,26.0660666 C26.7098847,25.813386 27.1797878,25.8869959 27.4281047,26.2149679 L27.4777942,26.2891147 L29.1623865,29.1427595 C29.3764951,29.5054526 29.2591179,29.9737376 28.900217,30.1887033 C28.566952,30.3883144 28.1426209,30.2993128 27.9122751,29.9951875 L27.8626917,29.9212194 L26.6079354,27.7965769 L25.3309952,28.7592009 C24.9900452,29.0158925 24.5120605,28.9353598 24.2672711,28.5970118 L24.2185204,28.5205915 L22.3472579,25.1744863 C22.1416541,24.8068351 22.2699298,24.3414979 22.6337696,24.1351264 C22.9716208,23.9434958 23.393787,24.0425404 23.6169906,24.3520294 Z M58.1626952,24.3520294 C58.3858989,24.0425404 58.8080651,23.9434958 59.1459163,24.1351264 C59.5097561,24.3414979 59.6380317,24.8068351 59.432428,25.1744863 L59.432428,25.1744863 L57.5611654,28.5205915 L57.5124148,28.5970118 C57.2676254,28.9353598 56.7896406,29.0158925 56.4486906,28.7592009 L56.4486906,28.7592009 L55.1717505,27.7965769 L53.9169942,29.9212194 L53.8674107,29.9951875 C53.637065,30.2993128 53.2127339,30.3883144 52.8794688,30.1887033 C52.520568,29.9737376 52.4031907,29.5054526 52.6172993,29.1427595 L52.6172993,29.1427595 L54.3018917,26.2891147 L54.3515811,26.2149679 C54.5998981,25.8869959 55.0698012,25.813386 55.4054237,26.0660666 L55.4054237,26.0660666 L56.6673231,27.0152991 L58.1148475,24.4271491 Z M47.047933,17.9348919 C46.8715581,17.5965659 46.4680256,17.4379354 46.1061332,17.5790691 C44.3098362,18.2796245 42.509097,18.6312487 40.7078653,18.6312487 C38.9683451,18.6312487 37.2800857,18.3032516 35.6480548,17.6485145 C35.5591297,17.6128396 35.4643061,17.5945161 35.3686137,17.5945161 C34.9507934,17.5945161 34.6120844,17.9363775 34.6120861,18.3581553 L34.6120861,18.3581553 L34.6118403,21.1315011 L33.6231263,21.133336 C32.5785797,21.133336 31.7318074,21.9879877 31.7318074,23.0422541 C31.7318074,24.0965205 32.5785797,24.9511723 33.6217343,24.9511735 L33.6217343,24.9511735 L34.611775,24.9493349 L34.6120861,26.7408072 C34.6120861,27.0215246 34.7646932,27.2795987 35.0094983,27.4128555 C36.2359054,28.0804787 37.4576167,28.5318384 38.6768168,28.7691303 C39.3441243,28.8822897 40.0211746,28.9396122 40.7078653,28.9396122 C41.4129739,28.9396122 42.1190721,28.8791626 42.8264915,28.7580375 C44.0845359,28.5157302 45.3809265,28.0591375 46.7165115,27.3866661 C46.9731485,27.2574485 47.1353262,26.9928687 47.1353295,26.7038888 L47.1353295,26.7038888 L47.1342277,24.9476518 L47.9971503,24.9511723 C49.0416969,24.9511723 49.8884692,24.0965205 49.8884692,23.0422541 C49.8884692,21.9879877 49.0416969,21.133336 47.9940978,21.1333297 L47.9940978,21.1333297 L47.1344817,21.129829 L47.1353293,18.2913135 C47.1353293,18.1971975 47.1180899,18.1038925 47.0844802,18.0161024 L47.0844802,18.0161024 Z" id="Combined-Shape" fill="#FFFFFF"></path>
                    </g>
                </g>
            </g>
        </g>
    </g>
</svg>