<?xml version="1.0" encoding="UTF-8"?>
<svg width="12px" height="12px" viewBox="0 0 12 12" version="1.1" xmlns="http://www.w3.org/2000/svg" xmlns:xlink="http://www.w3.org/1999/xlink">
    <!-- Generator: sketchtool 62 (101010) - https://sketch.com -->
    <title>A0C02366-E4D3-4357-BECA-EC9852AAD3FD</title>
    <desc>Created with sketchtool.</desc>
    <g id="Page-1" stroke="none" stroke-width="1" fill="none" fill-rule="evenodd">
        <g id="Home-screen---Chat" transform="translate(-1142.000000, -257.000000)" fill="#FFFFFF" fill-rule="nonzero">
            <g id="bot" transform="translate(840.000000, 241.000000)">
                <path d="M312.79061,16.1572834 C313.084846,15.9285151 313.510295,15.9493127 313.780674,16.2196759 C314.073586,16.5125695 314.073586,16.9874432 313.780675,17.2803361 L313.780675,17.2803361 L309.06,21.9993508 L313.780675,26.7196639 C314.073586,27.0125568 314.073586,27.4874305 313.780674,27.7803241 C313.510295,28.0506873 313.084846,28.0714849 312.79061,27.8427166 L312.71995,27.7803252 L308,23.0603508 L303.28005,27.7803252 L303.20939,27.8427166 C302.915154,28.0714849 302.489705,28.0506873 302.219326,27.7803241 C301.926414,27.4874305 301.926414,27.0125568 302.219325,26.7196639 L302.219325,26.7196639 L306.939,21.9993508 L302.219325,17.2803361 C301.926414,16.9874432 301.926414,16.5125695 302.219326,16.2196759 C302.489705,15.9493127 302.915154,15.9285151 303.20939,16.1572834 L303.28005,16.2196748 L308,20.9393508 L312.71995,16.2196748 Z" id="close"></path>
            </g>
        </g>
    </g>
</svg>