<?xml version="1.0" encoding="UTF-8"?>
<svg width="20px" height="20px" viewBox="0 0 20 20" version="1.1" xmlns="http://www.w3.org/2000/svg" xmlns:xlink="http://www.w3.org/1999/xlink">
    <!-- Generator: sketchtool 62 (101010) - https://sketch.com -->
    <title>BC16400B-E277-4A33-AAD1-9BCDC79AD78D</title>
    <desc>Created with sketchtool.</desc>
    <g id="Page-1" stroke="none" stroke-width="1" fill="none" fill-rule="evenodd">
        <g id="Dashboard---No-connected-devices" transform="translate(-40.000000, -118.000000)" fill="#FFFFFF" fill-rule="nonzero">
            <g id="Group-2" transform="translate(13.000000, 112.000000)">
                <path d="M41.9023438,25.546875 C41.9544271,25.546875 42.0097656,25.5403646 42.0683594,25.5273438 C42.1269531,25.5143229 42.1822917,25.4882812 42.234375,25.4492188 C42.9765625,24.9934896 43.640625,24.4563802 44.2265625,23.8378906 C44.8125,23.219401 45.3105469,22.5455729 45.7207031,21.8164062 C46.1308594,21.0872396 46.4433594,20.3125 46.6582031,19.4921875 C46.8730469,18.671875 46.9804688,17.8190104 46.9804688,16.9335938 C46.9804688,15.5664062 46.7200521,14.2773438 46.1992188,13.0664062 C45.6783854,11.8554688 44.9654948,10.797526 44.0605469,9.89257812 C43.155599,8.98763021 42.0976562,8.27148438 40.8867188,7.74414062 C39.6757812,7.21679688 38.3802083,6.953125 37,6.953125 C35.6197917,6.953125 34.3242188,7.21679688 33.1132812,7.74414062 C31.9023438,8.27148438 30.844401,8.98763021 29.9394531,9.89257812 C29.0345052,10.797526 28.3216146,11.8554688 27.8007812,13.0664062 C27.2799479,14.2773438 27.0195312,15.5729167 27.0195312,16.953125 C27.0195312,17.8125 27.1236979,18.6490885 27.3320312,19.4628906 C27.5403646,20.2766927 27.8463542,21.0481771 28.25,21.7773438 C28.6536458,22.5065104 29.1451823,23.1803385 29.7246094,23.7988281 C30.3040365,24.4173177 30.9648438,24.9544271 31.7070312,25.4101562 C31.8502604,25.5013021 32.0065104,25.5273438 32.1757812,25.4882812 C32.3450521,25.4492188 32.4752604,25.3580729 32.5664062,25.2148438 C32.6575521,25.0716146 32.6835938,24.9153646 32.6445312,24.7460938 C32.6054688,24.5768229 32.5143229,24.4466146 32.3710938,24.3554688 C31.8372396,24.0169271 31.3522135,23.6360677 30.9160156,23.2128906 C30.4798177,22.7897135 30.0924479,22.3307292 29.7539062,21.8359375 L30.4179688,21.4453125 C30.5611979,21.3671875 30.655599,21.2434896 30.7011719,21.0742188 C30.7467448,20.9049479 30.7239583,20.7486979 30.6328125,20.6054688 C30.5546875,20.4492188 30.4309896,20.3483073 30.2617188,20.3027344 C30.0924479,20.2571615 29.9361979,20.2799479 29.7929688,20.3710938 L29.1289062,20.7421875 C28.8945312,20.2604167 28.7057292,19.749349 28.5625,19.2089844 C28.4192708,18.6686198 28.328125,18.1184896 28.2890625,17.5585938 L28.9726562,17.5585938 C29.1549479,17.5585938 29.3046875,17.4967448 29.421875,17.3730469 C29.5390625,17.249349 29.5976562,17.1028646 29.5976562,16.9335938 C29.5976562,16.7643229 29.5390625,16.6178385 29.421875,16.4941406 C29.3046875,16.3704427 29.1549479,16.3085938 28.9726562,16.3085938 L28.2890625,16.3085938 C28.328125,15.7356771 28.422526,15.1790365 28.5722656,14.6386719 C28.7220052,14.0983073 28.9205729,13.5807292 29.1679688,13.0859375 L29.7929688,13.4570312 C29.8320312,13.4830729 29.8808594,13.5026042 29.9394531,13.515625 C29.9980469,13.5286458 30.0533854,13.5351562 30.1054688,13.5351562 C30.2096354,13.5351562 30.3105469,13.5091146 30.4082031,13.4570312 C30.5058594,13.4049479 30.5807292,13.3268229 30.6328125,13.2226562 C30.7239583,13.0794271 30.7467448,12.9231771 30.7011719,12.7539062 C30.655599,12.5846354 30.5611979,12.4609375 30.4179688,12.3828125 L29.7929688,12.0117188 C30.1054688,11.5559896 30.4570312,11.1328125 30.8476562,10.7421875 C31.2382812,10.3515625 31.6679688,10 32.1367188,9.6875 L32.4882812,10.2929688 C32.5403646,10.3971354 32.6152344,10.4752604 32.7128906,10.5273438 C32.8105469,10.5794271 32.9179688,10.6054688 33.0351562,10.6054688 C33.0872396,10.6054688 33.1393229,10.5989583 33.1914062,10.5859375 C33.2434896,10.5729167 33.2955729,10.5533854 33.3476562,10.5273438 C33.4908854,10.4361979 33.5852865,10.3092448 33.6308594,10.1464844 C33.6764323,9.98372396 33.6536458,9.82421875 33.5625,9.66796875 L33.2109375,9.0625 C33.6927083,8.828125 34.1972656,8.64257812 34.7246094,8.50585938 C35.2519531,8.36914062 35.7955729,8.27473958 36.3554688,8.22265625 L36.3554688,9.00390625 C36.3554688,9.18619792 36.4173177,9.3359375 36.5410156,9.453125 C36.6647135,9.5703125 36.8111979,9.62890625 36.9804688,9.62890625 C37.1627604,9.62890625 37.3125,9.5703125 37.4296875,9.453125 C37.546875,9.3359375 37.6054688,9.18619792 37.6054688,9.00390625 L37.6054688,8.22265625 C38.1783854,8.26171875 38.735026,8.35611979 39.2753906,8.50585938 C39.8157552,8.65559896 40.3333333,8.84765625 40.828125,9.08203125 L40.4765625,9.66796875 C40.3984375,9.82421875 40.3821615,9.98372396 40.4277344,10.1464844 C40.4733073,10.3092448 40.5677083,10.4361979 40.7109375,10.5273438 C40.7630208,10.5533854 40.8151042,10.5729167 40.8671875,10.5859375 C40.9192708,10.5989583 40.9713542,10.6054688 41.0234375,10.6054688 C41.1276042,10.6054688 41.2285156,10.5794271 41.3261719,10.5273438 C41.4238281,10.4752604 41.5052083,10.3971354 41.5703125,10.2929688 L41.9023438,9.70703125 C42.3580729,10.0195312 42.78125,10.3710938 43.171875,10.7617188 C43.5625,11.1523438 43.9140625,11.5755208 44.2265625,12.03125 L43.640625,12.3828125 C43.484375,12.4609375 43.3867188,12.5846354 43.3476562,12.7539062 C43.3085938,12.9231771 43.328125,13.0794271 43.40625,13.2226562 C43.4713542,13.3268229 43.5527344,13.4049479 43.6503906,13.4570312 C43.7480469,13.5091146 43.8489583,13.5351562 43.953125,13.5351562 C44.0052083,13.5351562 44.0572917,13.5286458 44.109375,13.515625 C44.1614583,13.5026042 44.2135417,13.4830729 44.265625,13.4570312 L44.8515625,13.125 C45.0859375,13.6067708 45.2779948,14.1178385 45.4277344,14.6582031 C45.577474,15.1985677 45.671875,15.7552083 45.7109375,16.328125 L45.0273438,16.328125 C44.8580729,16.328125 44.7115885,16.389974 44.5878906,16.5136719 C44.4641927,16.6373698 44.4023438,16.7838542 44.4023438,16.953125 C44.4023438,17.1223958 44.4641927,17.2688802 44.5878906,17.3925781 C44.7115885,17.516276 44.8580729,17.578125 45.0273438,17.578125 L45.7109375,17.578125 C45.671875,18.1380208 45.5839844,18.6816406 45.4472656,19.2089844 C45.3105469,19.7363281 45.125,20.2408854 44.890625,20.7226562 L44.265625,20.3710938 C44.109375,20.2799479 43.9498698,20.2571615 43.7871094,20.3027344 C43.624349,20.3483073 43.4973958,20.4492188 43.40625,20.6054688 C43.328125,20.7486979 43.3085938,20.9049479 43.3476562,21.0742188 C43.3867188,21.2434896 43.484375,21.3671875 43.640625,21.4453125 L44.265625,21.8164062 C43.9140625,22.3242188 43.5136719,22.796224 43.0644531,23.2324219 C42.6152344,23.6686198 42.1171875,24.0559896 41.5703125,24.3945312 C41.4270833,24.4856771 41.3359375,24.6126302 41.296875,24.7753906 C41.2578125,24.938151 41.2838542,25.0976562 41.375,25.2539062 C41.4270833,25.3450521 41.5019531,25.4166667 41.5996094,25.46875 C41.6972656,25.5208333 41.7981771,25.546875 41.9023438,25.546875 Z M36.9804688,18.203125 C37.3190104,18.203125 37.6119792,18.0794271 37.859375,17.8320312 C38.0714286,17.6199777 38.192602,17.374442 38.2228954,17.0954241 L38.2304688,16.953125 L38.2304688,16.953125 L41.609375,15 C41.765625,14.9088542 41.8632812,14.781901 41.9023438,14.6191406 C41.9414062,14.4563802 41.921875,14.296875 41.84375,14.140625 C41.7526042,13.9973958 41.625651,13.9029948 41.4628906,13.8574219 C41.3001302,13.811849 41.140625,13.828125 40.984375,13.90625 L37.5859375,15.8789062 C37.4947917,15.8268229 37.4003906,15.7845052 37.3027344,15.7519531 C37.2050781,15.719401 37.0976562,15.703125 36.9804688,15.703125 C36.6419271,15.703125 36.3489583,15.8268229 36.1015625,16.0742188 C35.8541667,16.3216146 35.7304688,16.6145833 35.7304688,16.953125 C35.7304688,17.2916667 35.8541667,17.5846354 36.1015625,17.8320312 C36.3489583,18.0794271 36.6419271,18.203125 36.9804688,18.203125 Z" id="config"></path>
            </g>
        </g>
    </g>
</svg>