<?xml version="1.0" encoding="UTF-8"?>
<svg width="20px" height="21px" viewBox="0 0 20 21" version="1.1" xmlns="http://www.w3.org/2000/svg" xmlns:xlink="http://www.w3.org/1999/xlink">
    <!-- Generator: sketchtool 62 (101010) - https://sketch.com -->
    <title>1C902228-5EAE-4703-8B1D-3F730AF91C18</title>
    <desc>Created with sketchtool.</desc>
    <g id="Page-1" stroke="none" stroke-width="1" fill="none" fill-rule="evenodd">
        <g id="Home-screen" transform="translate(-40.000000, -522.000000)" fill="#FFFFFF" fill-rule="nonzero">
            <g id="Group-2" transform="translate(22.000000, 522.000000)">
                <path d="M37.0625,20.25 C37.2317708,20.25 37.3782552,20.188151 37.5019531,20.0644531 C37.625651,19.9407552 37.6875,19.7942708 37.6875,19.625 L37.6875,0.875 C37.6875,0.705729167 37.625651,0.559244792 37.5019531,0.435546875 C37.3782552,0.311848958 37.2317708,0.25 37.0625,0.25 L32.6875,0.25 C32.5182292,0.25 32.3717448,0.311848958 32.2480469,0.435546875 C32.124349,0.559244792 32.0625,0.705729167 32.0625,0.875 L32.0625,19.625 C32.0625,19.7942708 32.124349,19.9407552 32.2480469,20.0644531 C32.3717448,20.188151 32.5182292,20.25 32.6875,20.25 L37.0625,20.25 Z M36.4375,19 L33.3125,19 L33.3125,1.5 L36.4375,1.5 L36.4375,19 Z M23.3125,20.25 C23.4817708,20.25 23.6282552,20.188151 23.7519531,20.0644531 C23.875651,19.9407552 23.9375,19.7942708 23.9375,19.625 L23.9375,7.125 C23.9375,6.95572917 23.875651,6.80924479 23.7519531,6.68554688 C23.6282552,6.56184896 23.4817708,6.5 23.3125,6.5 L18.9375,6.5 C18.7682292,6.5 18.6217448,6.56184896 18.4980469,6.68554688 C18.374349,6.80924479 18.3125,6.95572917 18.3125,7.125 L18.3125,19.625 C18.3125,19.7942708 18.374349,19.9407552 18.4980469,20.0644531 C18.6217448,20.188151 18.7682292,20.25 18.9375,20.25 L23.3125,20.25 Z M22.6875,19 L19.5625,19 L19.5625,7.75 L22.6875,7.75 L22.6875,19 Z M30.1875,20.25 C30.3567708,20.25 30.5032552,20.188151 30.6269531,20.0644531 C30.750651,19.9407552 30.8125,19.7942708 30.8125,19.625 L30.8125,10.8359375 C30.8125,10.6666667 30.750651,10.5201823 30.6269531,10.3964844 C30.5032552,10.2727865 30.3567708,10.2109375 30.1875,10.2109375 L25.8125,10.2109375 C25.6302083,10.2109375 25.4804688,10.2727865 25.3632812,10.3964844 C25.2460938,10.5201823 25.1875,10.6666667 25.1875,10.8359375 L25.1875,19.625 C25.1875,19.7942708 25.2460938,19.9407552 25.3632812,20.0644531 C25.4804688,20.188151 25.6302083,20.25 25.8125,20.25 L30.1875,20.25 Z M29.5625,19 L26.4375,19 L26.4375,11.4609375 L29.5625,11.4609375 L29.5625,19 Z" id="digital"></path>
            </g>
        </g>
    </g>
</svg>