<?xml version="1.0" encoding="UTF-8"?>
<svg width="21px" height="15px" viewBox="0 0 21 15" version="1.1" xmlns="http://www.w3.org/2000/svg" xmlns:xlink="http://www.w3.org/1999/xlink">
    <!-- Generator: sketchtool 62 (101010) - https://sketch.com -->
    <title>17F49672-9B11-4F79-86F9-A041DE0619A4</title>
    <desc>Created with sketchtool.</desc>
    <g id="Page-1" stroke="none" stroke-width="1" fill="none" fill-rule="evenodd">
        <g id="New-password" transform="translate(-734.000000, -311.000000)" fill="#333333" fill-rule="nonzero">
            <g id="Group" transform="translate(400.000000, 120.000000)">
                <g id="eye-active" transform="translate(334.980469, 191.000000)">
                    <path d="M10.0195312,14.1445313 C11.0611979,14.1445313 12.0800781,13.9980469 13.0761719,13.7050781 C14.0722656,13.4121094 15.0065104,12.9889323 15.8789062,12.4355469 C16.7513021,11.8821615 17.5390625,11.2018229 18.2421875,10.3945313 C18.9453125,9.58723958 19.5182292,8.66276042 19.9609375,7.62109375 C19.9739583,7.60807292 19.9804688,7.59830729 19.9804688,7.59179688 L19.9804688,7.5625 L19.9804688,7.5625 C19.9804688,7.5625 19.983724,7.55924479 19.9902344,7.55273438 C19.9967448,7.54622396 20,7.54296875 20,7.54296875 L20,7.484375 L20,7.484375 C20,7.47135417 20.0065104,7.45833333 20.0195312,7.4453125 C20.0195312,7.41927083 20.0227865,7.38997396 20.0292969,7.35742188 C20.0358073,7.32486979 20.0390625,7.29557292 20.0390625,7.26953125 C20.0390625,7.24348958 20.0358073,7.21744792 20.0292969,7.19140625 C20.0227865,7.16536458 20.0195312,7.13932292 20.0195312,7.11328125 C20.0065104,7.08723958 20,7.06770833 20,7.0546875 L20,7.015625 L20,7.015625 C20,7.00260417 19.9967448,6.99283854 19.9902344,6.98632813 L19.9804688,6.9765625 L19.9804688,6.9765625 L19.9804688,6.94726563 L19.9804688,6.94726563 C19.9804688,6.94075521 19.9739583,6.93098958 19.9609375,6.91796875 C19.5182292,5.87630208 18.9453125,4.94856771 18.2421875,4.13476563 C17.5390625,3.32096354 16.7578125,2.63411458 15.8984375,2.07421875 C15.0390625,1.51432292 14.1113281,1.08789063 13.1152344,0.794921875 C12.1191406,0.501953125 11.1002604,0.35546875 10.0585938,0.35546875 C9.01692708,0.35546875 7.99479167,0.501953125 6.9921875,0.794921875 C5.98958333,1.08789063 5.05208333,1.51432292 4.1796875,2.07421875 C3.30729167,2.63411458 2.51627604,3.32096354 1.80664062,4.13476563 C1.09700521,4.94856771 0.514322917,5.87630208 0.05859375,6.91796875 L0.05859375,6.9765625 L0.05859375,6.9765625 L0.048828125,6.98632813 L0.048828125,6.98632813 C0.0423177083,6.99283854 0.0390625,6.99609375 0.0390625,6.99609375 L0.0390625,7.0546875 L0.0390625,7.0546875 C0.0390625,7.06770833 0.0325520833,7.08072917 0.01953125,7.09375 C0.01953125,7.11979167 0.0162760417,7.14908854 0.009765625,7.18164063 C0.00325520833,7.21419271 0,7.24348958 0,7.26953125 C0,7.29557292 0.00325520833,7.32161458 0.009765625,7.34765625 C0.0162760417,7.37369792 0.01953125,7.39973958 0.01953125,7.42578125 C0.0325520833,7.45182292 0.0390625,7.47135417 0.0390625,7.484375 L0.0390625,7.5234375 L0.0390625,7.5234375 C0.0390625,7.53645833 0.0423177083,7.54622396 0.048828125,7.55273438 C0.0553385417,7.55924479 0.05859375,7.5625 0.05859375,7.5625 L0.05859375,7.62109375 L0.05859375,7.62109375 C0.514322917,8.66276042 1.09375,9.58723958 1.796875,10.3945313 C2.5,11.2018229 3.28776042,11.8821615 4.16015625,12.4355469 C5.03255208,12.9889323 5.96679688,13.4121094 6.96289062,13.7050781 C7.95898438,13.9980469 8.97786458,14.1445313 10.0195312,14.1445313 Z M10.0195312,12.8945313 C9.13411458,12.8945313 8.26171875,12.7773438 7.40234375,12.5429688 C6.54296875,12.3085938 5.73242188,11.9570313 4.97070312,11.4882813 C4.20898438,11.0195313 3.50911458,10.4335938 2.87109375,9.73046875 C2.23307292,9.02734375 1.70572917,8.20703125 1.2890625,7.26953125 C1.70572917,6.33203125 2.23307292,5.51171875 2.87109375,4.80859375 C3.50911458,4.10546875 4.21223958,3.51627604 4.98046875,3.04101563 C5.74869792,2.56575521 6.56575521,2.20768229 7.43164062,1.96679688 C8.29752604,1.72591146 9.17317708,1.60546875 10.0585938,1.60546875 C10.9440104,1.60546875 11.8164062,1.72591146 12.6757812,1.96679688 C13.5351562,2.20768229 14.3457031,2.56575521 15.1074219,3.04101563 C15.8691406,3.51627604 16.5625,4.10546875 17.1875,4.80859375 C17.8125,5.51171875 18.3333333,6.33203125 18.75,7.26953125 C18.3333333,8.20703125 17.8092448,9.02734375 17.1777344,9.73046875 C16.546224,10.4335938 15.8496094,11.0195313 15.0878906,11.4882813 C14.3261719,11.9570313 13.5123698,12.3085938 12.6464844,12.5429688 C11.780599,12.7773438 10.9049479,12.8945313 10.0195312,12.8945313 Z M10.078125,11.0195313 C11.1197917,11.0195313 12.0052083,10.6549479 12.734375,9.92578125 C13.4635417,9.19661458 13.828125,8.31119792 13.828125,7.26953125 C13.828125,6.24088542 13.4635417,5.35872396 12.734375,4.62304688 C12.0052083,3.88736979 11.1197917,3.51953125 10.078125,3.51953125 C9.04947917,3.51953125 8.16731771,3.88736979 7.43164062,4.62304688 C6.69596354,5.35872396 6.328125,6.24088542 6.328125,7.26953125 C6.328125,8.31119792 6.69596354,9.19661458 7.43164062,9.92578125 C8.16731771,10.6549479 9.04947917,11.0195313 10.078125,11.0195313 Z M10.078125,9.76953125 C9.40104167,9.76953125 8.81184896,9.52213542 8.31054688,9.02734375 C7.80924479,8.53255208 7.55859375,7.94010417 7.55859375,7.25 C7.55859375,6.55989583 7.80273438,5.97070313 8.29101562,5.48242188 C8.77929688,4.99414063 9.36848958,4.75 10.0585938,4.75 C10.7486979,4.75 11.3378906,4.99414063 11.8261719,5.48242188 C12.3144531,5.97070313 12.5585938,6.55989583 12.5585938,7.25 C12.5585938,7.94010417 12.3177083,8.53255208 11.8359375,9.02734375 C11.3541667,9.52213542 10.7682292,9.76953125 10.078125,9.76953125 Z" id="eye"></path>
                </g>
            </g>
        </g>
    </g>
</svg>