<?xml version="1.0" encoding="UTF-8"?>
<svg width="21px" height="18px" viewBox="0 0 21 18" version="1.1" xmlns="http://www.w3.org/2000/svg" xmlns:xlink="http://www.w3.org/1999/xlink">
    <!-- Generator: sketchtool 62 (101010) - https://sketch.com -->
    <title>4A8EFAA0-2E0D-4946-B963-2927F2126AB6</title>
    <desc>Created with sketchtool.</desc>
    <g id="Page-1" stroke="none" stroke-width="1" fill="none" fill-rule="evenodd">
        <g id="Sign-in" transform="translate(-734.000000, -357.000000)">
            <g id="Group" transform="translate(400.000000, 120.000000)">
                <g id="eye" transform="translate(334.980469, 238.000000)">
                    <path d="M10.0195312,15.1445312 C11.0611979,15.1445312 12.0800781,14.9980469 13.0761719,14.7050781 C14.0722656,14.4121094 15.0065104,13.9889323 15.8789062,13.4355469 C16.7513021,12.8821615 17.5390625,12.2018229 18.2421875,11.3945312 C18.9453125,10.5872396 19.5182292,9.66276042 19.9609375,8.62109375 C19.9739583,8.60807292 19.9804688,8.59830729 19.9804688,8.59179687 L19.9804688,8.5625 L19.9804688,8.5625 C19.9804688,8.5625 19.983724,8.55924479 19.9902344,8.55273437 C19.9967448,8.54622396 20,8.54296875 20,8.54296875 L20,8.484375 L20,8.484375 C20,8.47135417 20.0065104,8.45833333 20.0195312,8.4453125 C20.0195312,8.41927083 20.0227865,8.38997396 20.0292969,8.35742187 C20.0358073,8.32486979 20.0390625,8.29557292 20.0390625,8.26953125 C20.0390625,8.24348958 20.0358073,8.21744792 20.0292969,8.19140625 C20.0227865,8.16536458 20.0195312,8.13932292 20.0195312,8.11328125 C20.0065104,8.08723958 20,8.06770833 20,8.0546875 L20,8.015625 L20,8.015625 C20,8.00260417 19.9967448,7.99283854 19.9902344,7.98632812 L19.9804688,7.9765625 L19.9804688,7.9765625 L19.9804688,7.94726562 L19.9804688,7.94726562 C19.9804688,7.94075521 19.9739583,7.93098958 19.9609375,7.91796875 C19.5182292,6.87630208 18.9453125,5.94856771 18.2421875,5.13476562 C17.5390625,4.32096354 16.7578125,3.63411458 15.8984375,3.07421875 C15.0390625,2.51432292 14.1113281,2.08789062 13.1152344,1.79492187 C12.1191406,1.50195312 11.1002604,1.35546875 10.0585938,1.35546875 C9.01692708,1.35546875 7.99479167,1.50195312 6.9921875,1.79492187 C5.98958333,2.08789062 5.05208333,2.51432292 4.1796875,3.07421875 C3.30729167,3.63411458 2.51627604,4.32096354 1.80664062,5.13476562 C1.09700521,5.94856771 0.514322917,6.87630208 0.05859375,7.91796875 L0.05859375,7.9765625 L0.05859375,7.9765625 L0.048828125,7.98632812 L0.048828125,7.98632812 C0.0423177083,7.99283854 0.0390625,7.99609375 0.0390625,7.99609375 L0.0390625,8.0546875 L0.0390625,8.0546875 C0.0390625,8.06770833 0.0325520833,8.08072917 0.01953125,8.09375 C0.01953125,8.11979167 0.0162760417,8.14908854 0.009765625,8.18164062 C0.00325520833,8.21419271 0,8.24348958 0,8.26953125 C0,8.29557292 0.00325520833,8.32161458 0.009765625,8.34765625 C0.0162760417,8.37369792 0.01953125,8.39973958 0.01953125,8.42578125 C0.0325520833,8.45182292 0.0390625,8.47135417 0.0390625,8.484375 L0.0390625,8.5234375 L0.0390625,8.5234375 C0.0390625,8.53645833 0.0423177083,8.54622396 0.048828125,8.55273437 C0.0553385417,8.55924479 0.05859375,8.5625 0.05859375,8.5625 L0.05859375,8.62109375 L0.05859375,8.62109375 C0.514322917,9.66276042 1.09375,10.5872396 1.796875,11.3945312 C2.5,12.2018229 3.28776042,12.8821615 4.16015625,13.4355469 C5.03255208,13.9889323 5.96679688,14.4121094 6.96289062,14.7050781 C7.95898438,14.9980469 8.97786458,15.1445312 10.0195312,15.1445312 Z M10.0195312,13.8945312 C9.13411458,13.8945312 8.26171875,13.7773437 7.40234375,13.5429687 C6.54296875,13.3085937 5.73242188,12.9570312 4.97070312,12.4882812 C4.20898438,12.0195312 3.50911458,11.4335937 2.87109375,10.7304687 C2.23307292,10.0273437 1.70572917,9.20703125 1.2890625,8.26953125 C1.70572917,7.33203125 2.23307292,6.51171875 2.87109375,5.80859375 C3.50911458,5.10546875 4.21223958,4.51627604 4.98046875,4.04101562 C5.74869792,3.56575521 6.56575521,3.20768229 7.43164062,2.96679687 C8.29752604,2.72591146 9.17317708,2.60546875 10.0585938,2.60546875 C10.9440104,2.60546875 11.8164062,2.72591146 12.6757812,2.96679687 C13.5351562,3.20768229 14.3457031,3.56575521 15.1074219,4.04101562 C15.8691406,4.51627604 16.5625,5.10546875 17.1875,5.80859375 C17.8125,6.51171875 18.3333333,7.33203125 18.75,8.26953125 C18.3333333,9.20703125 17.8092448,10.0273437 17.1777344,10.7304687 C16.546224,11.4335937 15.8496094,12.0195312 15.0878906,12.4882812 C14.3261719,12.9570312 13.5123698,13.3085937 12.6464844,13.5429687 C11.780599,13.7773437 10.9049479,13.8945312 10.0195312,13.8945312 Z M10.078125,12.0195312 C11.1197917,12.0195312 12.0052083,11.6549479 12.734375,10.9257812 C13.4635417,10.1966146 13.828125,9.31119792 13.828125,8.26953125 C13.828125,7.24088542 13.4635417,6.35872396 12.734375,5.62304687 C12.0052083,4.88736979 11.1197917,4.51953125 10.078125,4.51953125 C9.04947917,4.51953125 8.16731771,4.88736979 7.43164062,5.62304687 C6.69596354,6.35872396 6.328125,7.24088542 6.328125,8.26953125 C6.328125,9.31119792 6.69596354,10.1966146 7.43164062,10.9257812 C8.16731771,11.6549479 9.04947917,12.0195312 10.078125,12.0195312 Z M10.078125,10.7695312 C9.40104167,10.7695312 8.81184896,10.5221354 8.31054688,10.0273437 C7.80924479,9.53255208 7.55859375,8.94010417 7.55859375,8.25 C7.55859375,7.55989583 7.80273438,6.97070312 8.29101562,6.48242187 C8.77929688,5.99414062 9.36848958,5.75 10.0585938,5.75 C10.7486979,5.75 11.3378906,5.99414062 11.8261719,6.48242187 C12.3144531,6.97070312 12.5585938,7.55989583 12.5585938,8.25 C12.5585938,8.94010417 12.3177083,9.53255208 11.8359375,10.0273437 C11.3541667,10.5221354 10.7682292,10.7695312 10.078125,10.7695312 Z" fill="#B0B0B0" fill-rule="nonzero"></path>
                    <line x1="2.01953125" y1="8.8817842e-15" x2="18.2829872" y2="16.263456" id="Path" stroke="#B0B0B0" stroke-width="1.5" stroke-linecap="round"></line>
                </g>
            </g>
        </g>
    </g>
</svg>
