<?xml version="1.0" encoding="UTF-8"?>
<svg width="20px" height="21px" viewBox="0 0 20 21" version="1.1" xmlns="http://www.w3.org/2000/svg" xmlns:xlink="http://www.w3.org/1999/xlink">
    <!-- Generator: sketchtool 62 (101010) - https://sketch.com -->
    <title>F23D1B72-B726-4256-BFC4-1AC07C16FEA1</title>
    <desc>Created with sketchtool.</desc>
    <g id="Page-1" stroke="none" stroke-width="1" fill="none" fill-rule="evenodd">
        <g id="Dashboard---No-connected-devices" transform="translate(-39.000000, -779.000000)" fill="#FFFFFF" fill-rule="nonzero">
            <g id="Group-2" transform="translate(38.000000, 779.000000)">
                <path d="M11,20.25 C12.3802083,20.25 13.6790365,19.9895833 14.8964844,19.46875 C16.1139323,18.9479167 17.1751302,18.235026 18.0800781,17.3300781 C18.985026,16.4251302 19.6979167,15.3639323 20.21875,14.1464844 C20.7395833,12.9290365 21,11.6302083 21,10.25 C21,8.86979167 20.7395833,7.57096354 20.21875,6.35351562 C19.6979167,5.13606771 18.985026,4.07486979 18.0800781,3.16992187 C17.1751302,2.26497396 16.1139323,1.55208333 14.8964844,1.03125 C13.6790365,0.510416667 12.3802083,0.25 11,0.25 C9.61979167,0.25 8.32096354,0.510416667 7.10351562,1.03125 C5.88606771,1.55208333 4.82486979,2.26497396 3.91992188,3.16992187 C3.01497396,4.07486979 2.30208333,5.13606771 1.78125,6.35351562 C1.26041667,7.57096354 1,8.86979167 1,10.25 C1,11.6302083 1.26041667,12.9290365 1.78125,14.1464844 C2.30208333,15.3639323 3.01497396,16.4251302 3.91992188,17.3300781 C4.82486979,18.235026 5.88606771,18.9479167 7.10351562,19.46875 C8.32096354,19.9895833 9.61979167,20.25 11,20.25 Z M11,19.0195312 C9.7890625,19.0195312 8.65299479,18.7884115 7.59179688,18.3261719 C6.53059896,17.8639323 5.60611979,17.2356771 4.81835938,16.4414062 C4.03059896,15.6471354 3.40559896,14.719401 2.94335938,13.6582031 C2.48111979,12.5970052 2.25,11.4609375 2.25,10.25 C2.25,9.0390625 2.48111979,7.90299479 2.94335938,6.84179687 C3.40559896,5.78059896 4.03059896,4.85611979 4.81835938,4.06835937 C5.60611979,3.28059896 6.53059896,2.65559896 7.59179688,2.19335937 C8.65299479,1.73111979 9.7890625,1.5 11,1.5 C12.2109375,1.5 13.3470052,1.73111979 14.4082031,2.19335937 C15.469401,2.65559896 16.3938802,3.28059896 17.1816406,4.06835937 C17.969401,4.85611979 18.594401,5.78059896 19.0566406,6.84179687 C19.5188802,7.90299479 19.75,9.0390625 19.75,10.25 C19.75,11.4609375 19.5188802,12.5970052 19.0566406,13.6582031 C18.594401,14.719401 17.969401,15.6471354 17.1816406,16.4414062 C16.3938802,17.2356771 15.469401,17.8639323 14.4082031,18.3261719 C13.3470052,18.7884115 12.2109375,19.0195312 11,19.0195312 Z M11.6054688,12.75 C11.6054688,12.5286458 11.6119792,12.3300781 11.625,12.1542969 C11.6380208,11.9785156 11.6575521,11.8385417 11.6835938,11.734375 C11.7096354,11.6302083 11.764974,11.516276 11.8496094,11.3925781 C11.9342448,11.2688802 12.0481771,11.1354167 12.1914062,10.9921875 C12.4778646,10.7057292 12.7415365,10.422526 12.9824219,10.1425781 C13.2233073,9.86263021 13.4348958,9.59244792 13.6171875,9.33203125 C13.7864583,9.05859375 13.9166667,8.77213542 14.0078125,8.47265625 C14.0989583,8.17317708 14.1445312,7.85416667 14.1445312,7.515625 C14.1445312,7.05989583 14.0761719,6.65299479 13.9394531,6.29492187 C13.8027344,5.93684896 13.5976562,5.63411458 13.3242188,5.38671875 C13.0377604,5.12630208 12.702474,4.93424479 12.3183594,4.81054687 C11.9342448,4.68684896 11.4882812,4.625 10.9804688,4.625 C10.5247396,4.625 10.1080729,4.68359375 9.73046875,4.80078125 C9.35286458,4.91796875 9.01432292,5.10026042 8.71484375,5.34765625 C8.41536458,5.59505208 8.19401042,5.94010417 8.05078125,6.3828125 C7.90755208,6.82552083 7.84244792,7.24869792 7.85546875,7.65234375 L7.875,7.7109375 L9.3203125,7.7109375 C9.3203125,7.46354167 9.359375,7.19010417 9.4375,6.890625 C9.515625,6.59114583 9.63932292,6.3828125 9.80859375,6.265625 C9.96484375,6.13541667 10.140625,6.03776042 10.3359375,5.97265625 C10.53125,5.90755208 10.7460938,5.875 10.9804688,5.875 C11.2539062,5.875 11.4915365,5.9140625 11.6933594,5.9921875 C11.8951823,6.0703125 12.0677083,6.18098958 12.2109375,6.32421875 C12.3541667,6.46744792 12.4615885,6.64322917 12.5332031,6.8515625 C12.6048177,7.05989583 12.640625,7.29427083 12.640625,7.5546875 C12.640625,7.7890625 12.6145833,8.00065104 12.5625,8.18945312 C12.5104167,8.37825521 12.4322917,8.55729167 12.328125,8.7265625 C12.2239583,8.8828125 12.0807292,9.07486979 11.8984375,9.30273437 C11.7161458,9.53059896 11.5013021,9.79427083 11.2539062,10.09375 C10.9934896,10.328125 10.781901,10.5397135 10.6191406,10.7285156 C10.4563802,10.9173177 10.3489583,11.0833333 10.296875,11.2265625 C10.2317708,11.3697917 10.1829427,11.5683594 10.1503906,11.8222656 C10.1178385,12.0761719 10.1015625,12.3854167 10.1015625,12.75 L11.6054688,12.75 Z M11.6445312,15.875 L11.6445312,14.2929687 L10.0820312,14.2929687 L10.0820312,15.875 L11.6445312,15.875 Z" id="help"></path>
            </g>
        </g>
    </g>
</svg>