<?xml version="1.0" encoding="UTF-8"?>
<svg width="20px" height="21px" viewBox="0 0 20 21" version="1.1" xmlns="http://www.w3.org/2000/svg" xmlns:xlink="http://www.w3.org/1999/xlink">
    <!-- Generator: sketchtool 62 (101010) - https://sketch.com -->
    <title>20A37157-E2FD-4B65-9964-B05DB65D64D7</title>
    <desc>Created with sketchtool.</desc>
    <g id="Page-1" stroke="none" stroke-width="1" fill="none" fill-rule="evenodd">
        <g id="Dashboard---No-connected-devices" transform="translate(-40.000000, -361.000000)" fill="#FFFFFF" fill-rule="nonzero">
            <g id="Group-2" transform="translate(12.000000, 361.000000)">
                <path d="M37.9023438,20.2695312 C38.0065104,20.2695312 38.1269531,20.2630208 38.2636719,20.25 C38.4003906,20.2369792 38.5338542,20.2109375 38.6640625,20.171875 L46.9257812,17.9257812 C47.2252604,17.8476562 47.4791667,17.6751302 47.6875,17.4082031 C47.8958333,17.141276 48,16.8515625 48,16.5390625 L48,1.34375 C48,0.979166667 47.8567708,0.686197917 47.5703125,0.46484375 C47.2838542,0.243489583 46.9583333,0.184895833 46.59375,0.2890625 L38.3320312,2.515625 C38.2278646,2.54166667 38.0813802,2.5546875 37.8925781,2.5546875 C37.703776,2.5546875 37.5572917,2.54166667 37.453125,2.515625 L29.40625,0.2890625 C29.0416667,0.184895833 28.7161458,0.243489583 28.4296875,0.46484375 C28.1432292,0.686197917 28,0.979166667 28,1.34375 L28,16.5390625 C28,16.8515625 28.1041667,17.141276 28.3125,17.4082031 C28.5208333,17.6751302 28.7747396,17.8541667 29.0742188,17.9453125 L37.1210938,20.171875 C37.2252604,20.1979167 37.3457031,20.2207031 37.4824219,20.2402344 C37.6191406,20.2597656 37.7591146,20.2695312 37.9023438,20.2695312 Z M37.375,18.9414062 L29.3867188,16.734375 C29.3606771,16.7213542 29.3313802,16.6953125 29.2988281,16.65625 C29.266276,16.6171875 29.25,16.578125 29.25,16.5390625 L29.25,1.5390625 L37.1210938,3.7265625 C37.1601562,3.7265625 37.202474,3.73307292 37.2480469,3.74609375 C37.2936198,3.75911458 37.3359375,3.765625 37.375,3.765625 L37.375,18.9414062 Z M38.625,18.8828125 L38.625,3.7265625 L38.6640625,3.7265625 L38.6640625,3.7265625 L46.75,1.5390625 L46.75,16.5390625 C46.75,16.578125 46.7304688,16.6171875 46.6914062,16.65625 C46.6523438,16.6953125 46.6197917,16.7213542 46.59375,16.734375 L38.625,18.8828125 Z M40.6269531,7.3984375 C40.6595052,7.3984375 40.6888021,7.39192708 40.7148438,7.37890625 L45.0898438,6.1484375 C45.2460938,6.09635417 45.3665365,5.99544271 45.4511719,5.84570312 C45.5358073,5.69596354 45.5585938,5.54296875 45.5195313,5.38671875 C45.4674479,5.21744792 45.3665365,5.09049479 45.2167969,5.00585938 C45.0670573,4.92122396 44.9075521,4.8984375 44.7382813,4.9375 L40.3632813,6.16796875 C40.2070313,6.22005208 40.0865885,6.32096354 40.0019531,6.47070312 C39.9173177,6.62044271 39.8945313,6.77994792 39.9335938,6.94921875 C39.9726563,7.09244792 40.0507813,7.203125 40.1679688,7.28125 C40.2851563,7.359375 40.4088542,7.3984375 40.5390625,7.3984375 L40.6269531,7.3984375 L40.6269531,7.3984375 Z M35.5390625,7.3984375 C35.6692708,7.3984375 35.7929688,7.359375 35.9101562,7.28125 C36.0273438,7.203125 36.1054688,7.09244792 36.1445312,6.94921875 C36.1835938,6.77994792 36.1608073,6.62044271 36.0761719,6.47070312 C35.9915365,6.32096354 35.8710938,6.22005208 35.7148438,6.16796875 L31.3398438,4.9375 C31.1705729,4.8984375 31.0110677,4.92122396 30.8613281,5.00585938 C30.7115885,5.09049479 30.6106771,5.21744792 30.5585938,5.38671875 C30.5195312,5.54296875 30.5423177,5.69596354 30.6269531,5.84570312 C30.7115885,5.99544271 30.8320312,6.09635417 30.9882812,6.1484375 L35.3632812,7.37890625 C35.3893229,7.39192708 35.4186198,7.3984375 35.4511719,7.3984375 L35.5390625,7.3984375 L35.5390625,7.3984375 Z M40.6269531,11.1484375 C40.6595052,11.1484375 40.6888021,11.1419271 40.7148438,11.1289062 L45.0898438,9.8984375 C45.2460938,9.84635417 45.3665365,9.74544271 45.4511719,9.59570312 C45.5358073,9.44596354 45.5585938,9.29296875 45.5195313,9.13671875 C45.4674479,8.96744792 45.3665365,8.84049479 45.2167969,8.75585938 C45.0670573,8.67122396 44.9075521,8.6484375 44.7382813,8.6875 L40.3632813,9.91796875 C40.2070313,9.97005208 40.0865885,10.0709635 40.0019531,10.2207031 C39.9173177,10.3704427 39.8945313,10.5299479 39.9335938,10.6992188 C39.9726563,10.8424479 40.0507813,10.953125 40.1679688,11.03125 C40.2851563,11.109375 40.4088542,11.1484375 40.5390625,11.1484375 L40.6269531,11.1484375 L40.6269531,11.1484375 Z M35.5390625,11.1484375 C35.6692708,11.1484375 35.7929688,11.109375 35.9101562,11.03125 C36.0273438,10.953125 36.1054688,10.8424479 36.1445312,10.6992188 C36.1835938,10.5299479 36.1608073,10.3704427 36.0761719,10.2207031 C35.9915365,10.0709635 35.8710938,9.97005208 35.7148438,9.91796875 L31.3398438,8.6875 C31.1705729,8.6484375 31.0110677,8.67122396 30.8613281,8.75585938 C30.7115885,8.84049479 30.6106771,8.96744792 30.5585938,9.13671875 C30.5195312,9.29296875 30.5423177,9.44596354 30.6269531,9.59570312 C30.7115885,9.74544271 30.8320312,9.84635417 30.9882812,9.8984375 L35.3632812,11.1289062 C35.3893229,11.1419271 35.4186198,11.1484375 35.4511719,11.1484375 L35.5390625,11.1484375 L35.5390625,11.1484375 Z M40.6269531,14.8984375 C40.6595052,14.8984375 40.6888021,14.8919271 40.7148438,14.8789063 L45.0898438,13.6484375 C45.2460938,13.5963542 45.3665365,13.4954427 45.4511719,13.3457031 C45.5358073,13.1959635 45.5585938,13.0429688 45.5195313,12.8867188 C45.4674479,12.7174479 45.3665365,12.5904948 45.2167969,12.5058594 C45.0670573,12.421224 44.9075521,12.3984375 44.7382813,12.4375 L40.3632813,13.6679688 C40.2070313,13.7200521 40.0865885,13.8209635 40.0019531,13.9707031 C39.9173177,14.1204427 39.8945313,14.2799479 39.9335938,14.4492188 C39.9726563,14.5924479 40.0507813,14.703125 40.1679688,14.78125 C40.2851563,14.859375 40.4088542,14.8984375 40.5390625,14.8984375 L40.6269531,14.8984375 L40.6269531,14.8984375 Z M35.5390625,14.8984375 C35.6692708,14.8984375 35.7929688,14.859375 35.9101562,14.78125 C36.0273438,14.703125 36.1054688,14.5924479 36.1445312,14.4492188 C36.1835938,14.2799479 36.1608073,14.1204427 36.0761719,13.9707031 C35.9915365,13.8209635 35.8710938,13.7200521 35.7148438,13.6679688 L31.3398438,12.4375 C31.1705729,12.3984375 31.0110677,12.421224 30.8613281,12.5058594 C30.7115885,12.5904948 30.6106771,12.7174479 30.5585938,12.8867188 C30.5195312,13.0429688 30.5423177,13.1959635 30.6269531,13.3457031 C30.7115885,13.4954427 30.8320312,13.5963542 30.9882812,13.6484375 L35.3632812,14.8789063 C35.3893229,14.8919271 35.4186198,14.8984375 35.4511719,14.8984375 L35.5390625,14.8984375 L35.5390625,14.8984375 Z" id="history"></path>
            </g>
        </g>
    </g>
</svg>