<?xml version="1.0" encoding="UTF-8"?>
<svg width="20px" height="21px" viewBox="0 0 20 21" version="1.1" xmlns="http://www.w3.org/2000/svg" xmlns:xlink="http://www.w3.org/1999/xlink">
    <!-- Generator: sketchtool 62 (101010) - https://sketch.com -->
    <title>05A8E626-C1A6-41B5-9011-62C793F4CEC7</title>
    <desc>Created with sketchtool.</desc>
    <g id="Page-1" stroke="none" stroke-width="1" fill="none" fill-rule="evenodd">
        <g id="Dashboard---No-connected-devices" transform="translate(-40.000000, -37.000000)" fill="#FFFFFF" fill-rule="nonzero">
            <path d="M46.875,57.25 C47.0442708,57.25 47.1907552,57.188151 47.3144531,57.0644531 C47.438151,56.9407552 47.5,56.7942708 47.5,56.625 L47.5195312,50.375 L52.5,50.375 L52.5,56.625 C52.5,56.7942708 52.561849,56.9407552 52.6855469,57.0644531 C52.8092448,57.188151 52.9557292,57.25 53.125,57.25 L57.5,57.25 C57.6692708,57.25 57.8157552,57.188151 57.9394531,57.0644531 C58.063151,56.9407552 58.125,56.7942708 58.125,56.625 L58.125,47.2695312 L58.9648438,48.1484375 C59.0169271,48.2135417 59.0820312,48.2623698 59.1601562,48.2949219 C59.2382812,48.327474 59.3229167,48.34375 59.4140625,48.34375 C59.4921875,48.34375 59.5670573,48.327474 59.6386719,48.2949219 C59.7102865,48.2623698 59.7786458,48.2200521 59.84375,48.1679688 C59.9609375,48.0377604 60.0227865,47.8880208 60.0292969,47.71875 C60.0358073,47.5494792 59.9804688,47.3997396 59.8632812,47.2695312 L50.46875,37.4453125 C50.4166667,37.3802083 50.3515625,37.3313802 50.2734375,37.2988281 C50.1953125,37.266276 50.1106771,37.25 50.0195312,37.25 C49.9414062,37.25 49.8632812,37.266276 49.7851562,37.2988281 C49.7070312,37.3313802 49.6354167,37.3802083 49.5703125,37.4453125 L40.1367188,47.2695312 C40.0195312,47.3997396 39.9641927,47.5494792 39.9707031,47.71875 C39.9772135,47.8880208 40.0390625,48.0377604 40.15625,48.1679688 C40.2864583,48.2851562 40.4361979,48.3404948 40.6054688,48.3339844 C40.7747396,48.327474 40.9244792,48.265625 41.0546875,48.1484375 L41.8945312,47.2695312 L41.8945312,56.625 C41.8945312,56.7942708 41.953125,56.9407552 42.0703125,57.0644531 C42.1875,57.188151 42.3372396,57.25 42.5195312,57.25 L46.875,57.25 Z M46.25,56 L43.1445312,56 L43.1445312,46.1367188 C43.1445312,46.1106771 43.141276,46.0846354 43.1347656,46.0585938 C43.1282552,46.0325521 43.125,46.0065104 43.125,45.9804688 L50.0195312,38.7929688 L56.8945312,45.9804688 C56.8815104,46.0065104 56.875,46.0325521 56.875,46.0585938 L56.875,56 L53.75,56 L53.75,49.75 C53.75,49.5807292 53.688151,49.4342448 53.5644531,49.3105469 C53.4407552,49.186849 53.2942708,49.125 53.125,49.125 L46.8945312,49.125 C46.7252604,49.125 46.578776,49.186849 46.4550781,49.3105469 C46.3313802,49.4342448 46.2695312,49.5807292 46.2695312,49.75 L46.25,56 Z" id="dashboard"></path>
        </g>
    </g>
</svg>