<?xml version="1.0" encoding="UTF-8"?>
<svg width="12px" height="13px" viewBox="0 0 12 13" version="1.1" xmlns="http://www.w3.org/2000/svg" xmlns:xlink="http://www.w3.org/1999/xlink">
    <!-- Generator: sketchtool 62 (101010) - https://sketch.com -->
    <title>BC38F05B-2FAC-41D1-96EE-F2FF1BF9B726</title>
    <desc>Created with sketchtool.</desc>
    <g id="Page-1" stroke="none" stroke-width="1" fill="none" fill-rule="evenodd" opacity="0.70156715">
        <g id="My-information" transform="translate(-900.000000, -593.000000)" fill="#333333" fill-rule="nonzero">
            <g id="Group" transform="translate(0.000000, 60.000000)">
                <path d="M906,545.75 C906.828125,545.75 907.607422,545.59375 908.337891,545.28125 C909.068359,544.96875 909.705078,544.541016 910.248047,543.998047 C910.791016,543.455078 911.21875,542.818359 911.53125,542.087891 C911.84375,541.357422 912,540.578125 912,539.75 C912,538.921875 911.84375,538.142578 911.53125,537.412109 C911.21875,536.681641 910.791016,536.044922 910.248047,535.501953 C909.705078,534.958984 909.068359,534.53125 908.337891,534.21875 C907.607422,533.90625 906.828125,533.75 906,533.75 C905.171875,533.75 904.392578,533.90625 903.662109,534.21875 C902.931641,534.53125 902.294922,534.958984 901.751953,535.501953 C901.208984,536.044922 900.78125,536.681641 900.46875,537.412109 C900.15625,538.142578 900,538.921875 900,539.75 C900,540.578125 900.15625,541.357422 900.46875,542.087891 C900.78125,542.818359 901.208984,543.455078 901.751953,543.998047 C902.294922,544.541016 902.931641,544.96875 903.662109,545.28125 C904.392578,545.59375 905.171875,545.75 906,545.75 Z M906,545.011719 C905.273438,545.011719 904.591797,544.873047 903.955078,544.595703 C903.318359,544.318359 902.763672,543.941406 902.291016,543.464844 C901.818359,542.988281 901.443359,542.431641 901.166016,541.794922 C900.888672,541.158203 900.75,540.476562 900.75,539.75 C900.75,539.023438 900.888672,538.341797 901.166016,537.705078 C901.443359,537.068359 901.818359,536.513672 902.291016,536.041016 C902.763672,535.568359 903.318359,535.193359 903.955078,534.916016 C904.591797,534.638672 905.273438,534.5 906,534.5 C906.726562,534.5 907.408203,534.638672 908.044922,534.916016 C908.681641,535.193359 909.236328,535.568359 909.708984,536.041016 C910.181641,536.513672 910.556641,537.068359 910.833984,537.705078 C911.111328,538.341797 911.25,539.023438 911.25,539.75 C911.25,540.476562 911.111328,541.158203 910.833984,541.794922 C910.556641,542.431641 910.181641,542.988281 909.708984,543.464844 C909.236328,543.941406 908.681641,544.318359 908.044922,544.595703 C907.408203,544.873047 906.726562,545.011719 906,545.011719 Z M906,537.875 C906.210938,537.875 906.388672,537.802734 906.533203,537.658203 C906.677734,537.513672 906.75,537.335938 906.75,537.125 C906.75,536.914062 906.677734,536.736328 906.533203,536.591797 C906.388672,536.447266 906.210938,536.375 906,536.375 C905.789062,536.375 905.611328,536.447266 905.466797,536.591797 C905.322266,536.736328 905.25,536.914062 905.25,537.125 C905.25,537.335938 905.322266,537.513672 905.466797,537.658203 C905.611328,537.802734 905.789062,537.875 906,537.875 Z M906.75,543.125 C906.851562,543.125 906.939453,543.087891 907.013672,543.013672 C907.087891,542.939453 907.125,542.851562 907.125,542.75 C907.125,542.648438 907.087891,542.560547 907.013672,542.486328 C906.939453,542.412109 906.851562,542.375 906.75,542.375 L906.375,542.375 L906.375,539 L906.375,539 C906.375,538.898438 906.337891,538.810547 906.263672,538.736328 C906.189453,538.662109 906.101562,538.625 906,538.625 L905.25,538.625 C905.148438,538.625 905.060547,538.662109 904.986328,538.736328 C904.912109,538.810547 904.875,538.898438 904.875,539 C904.875,539.101562 904.912109,539.189453 904.986328,539.263672 C905.060547,539.337891 905.148438,539.375 905.25,539.375 L905.625,539.375 L905.625,542.375 L905.25,542.375 C905.148438,542.375 905.060547,542.412109 904.986328,542.486328 C904.912109,542.560547 904.875,542.648438 904.875,542.75 C904.875,542.851562 904.912109,542.939453 904.986328,543.013672 C905.060547,543.087891 905.148438,543.125 905.25,543.125 L906.75,543.125 Z" id="info"></path>
            </g>
        </g>
    </g>
</svg>