<?xml version="1.0" encoding="UTF-8"?>
<svg width="20px" height="18px" viewBox="0 0 20 18" version="1.1" xmlns="http://www.w3.org/2000/svg" xmlns:xlink="http://www.w3.org/1999/xlink">
    <!-- Generator: sketchtool 62 (101010) - https://sketch.com -->
    <title>4D0C101A-C593-4B3B-825E-14A666F3968B</title>
    <desc>Created with sketchtool.</desc>
    <g id="Page-1" stroke="none" stroke-width="1" fill="none" fill-rule="evenodd">
        <g id="Dashboard---No-connected-devices" transform="translate(-215.000000, -730.000000)" fill="#333333" fill-rule="nonzero">
            <g id="Group" transform="translate(98.000000, 60.000000)">
                <path d="M117.683594,687.648438 C117.839844,687.648438 117.966797,687.593099 118.064453,687.482422 C118.162109,687.371745 118.217448,687.238281 118.230469,687.082031 C118.230469,687.029948 118.311849,686.694661 118.474609,686.076172 C118.63737,685.457682 119.03125,684.790365 119.65625,684.074219 C120.28125,683.358073 121.21875,682.707031 122.46875,682.121094 C123.71875,681.535156 125.4375,681.242188 127.625,681.242188 L127.644531,684.835938 C127.644531,684.953125 127.677083,685.063802 127.742188,685.167969 C127.807292,685.272135 127.891927,685.35026 127.996094,685.402344 C128.113281,685.454427 128.230469,685.473958 128.347656,685.460938 C128.464844,685.447917 128.56901,685.402344 128.660156,685.324219 L136.765625,678.605469 C136.84375,678.540365 136.902344,678.465495 136.941406,678.380859 C136.980469,678.296224 137,678.208333 137,678.117188 C137,678.026042 136.980469,677.938151 136.941406,677.853516 C136.902344,677.76888 136.84375,677.69401 136.765625,677.628906 L128.660156,670.988281 C128.56901,670.910156 128.464844,670.864583 128.347656,670.851562 C128.230469,670.838542 128.113281,670.858073 127.996094,670.910156 C127.891927,670.96224 127.807292,671.037109 127.742188,671.134766 C127.677083,671.232422 127.644531,671.346354 127.644531,671.476562 L127.625,674.972656 C126.713542,674.998698 125.857422,675.093099 125.056641,675.255859 C124.255859,675.41862 123.507161,675.643229 122.810547,675.929688 C122.113932,676.216146 121.479167,676.564453 120.90625,676.974609 C120.333333,677.384766 119.81901,677.856771 119.363281,678.390625 C118.621094,679.263021 118.083984,680.197266 117.751953,681.193359 C117.419922,682.189453 117.201823,683.117188 117.097656,683.976562 C116.99349,684.835938 116.964193,685.561849 117.009766,686.154297 C117.055339,686.746745 117.078125,687.06901 117.078125,687.121094 C117.104167,687.277344 117.169271,687.404297 117.273438,687.501953 C117.377604,687.599609 117.507812,687.648438 117.664062,687.648438 L117.683594,687.648438 L117.683594,687.648438 Z" id="left" transform="translate(126.994480, 679.248047) scale(-1, -1) translate(-126.994480, -679.248047) "></path>
            </g>
        </g>
    </g>
</svg>