<svg width="24" height="24" xmlns="http://www.w3.org/2000/svg">
 <!-- Generator: sketchtool 62 (101010) - https://sketch.com -->

 <title>A5B26706-1562-42F2-80BE-CBCD1DEA8BBF</title>
 <desc>Created with sketchtool.</desc>
 <g>
  <title>background</title>
  <rect fill="none" id="canvas_background" height="402" width="582" y="-1" x="-1"/>
 </g>
 <g>
  <title>Layer 1</title>
  <g fill-rule="evenodd" fill="none" id="Page-1">
   <g fill-rule="nonzero" fill="#333333" id="Home-screen">
    <path stroke="#ffffff" fill="#fff" id="logout" d="m22.5,24c0.40625,0 0.75781,-0.14453 1.05469,-0.43359c0.29687,-0.28907 0.44531,-0.64453 0.44531,-1.06641l0,-21c0,-0.42187 -0.14844,-0.77734 -0.44531,-1.06641c-0.29688,-0.28906 -0.64844,-0.43359 -1.05469,-0.43359l-12.75,0c-0.42188,0 -0.77734,0.14453 -1.06641,0.43359c-0.28906,0.28907 -0.43359,0.64454 -0.43359,1.06641l0,6.75l1.5,0l0,-5.83594c0,-0.25 0.08984,-0.46484 0.26953,-0.64453c0.17969,-0.17969 0.39453,-0.26953 0.64453,-0.26953l10.89844,0c0.25,0 0.46094,0.08984 0.63281,0.26953c0.17188,0.17969 0.25781,0.39453 0.25781,0.64453l0.02344,19.17188c0,0.25 -0.08594,0.46484 -0.25781,0.64453c-0.17187,0.17969 -0.38281,0.26953 -0.63281,0.26953l-10.92188,0c-0.25,0 -0.46484,-0.08984 -0.64453,-0.26953c-0.17969,-0.17969 -0.26953,-0.39453 -0.26953,-0.64453l0,-5.85938l-1.5,0l0,6.77344c0,0.42188 0.14453,0.77734 0.43359,1.06641c0.28907,0.28906 0.64453,0.43359 1.06641,0.43359l12.75,0zm-17.53125,-7.21875c0.09375,0 0.1875,-0.01953 0.28125,-0.05859c0.09375,-0.03907 0.17969,-0.08985 0.25781,-0.15235c0.14063,-0.15625 0.21094,-0.33593 0.21094,-0.53906c0,-0.20312 -0.07031,-0.38281 -0.21094,-0.53906l-2.76562,-2.74219l12.98437,0c0.21875,0 0.39844,-0.07422 0.53906,-0.22266c0.14063,-0.14843 0.21094,-0.32421 0.21094,-0.52734c0,-0.21875 -0.07031,-0.39844 -0.21094,-0.53906c-0.14062,-0.14063 -0.32031,-0.21094 -0.53906,-0.21094l-12.9375,0l2.71875,-2.71875c0.14063,-0.14062 0.21094,-0.31641 0.21094,-0.52734c0,-0.21094 -0.07031,-0.38672 -0.21094,-0.52735c-0.15625,-0.15625 -0.33593,-0.23437 -0.53906,-0.23437c-0.20313,0 -0.38281,0.07812 -0.53906,0.23437l-4.42969,4.54688l4.42969,4.54687c0.07812,0.0625 0.16406,0.11328 0.25781,0.15235c0.09375,0.03906 0.1875,0.05859 0.28125,0.05859z"/>
   </g>
  </g>
 </g>
</svg>