<?xml version="1.0" encoding="UTF-8"?>
<svg width="24px" height="24px" viewBox="0 0 24 24" version="1.1" xmlns="http://www.w3.org/2000/svg" xmlns:xlink="http://www.w3.org/1999/xlink">
    <!-- Generator: sketchtool 62 (101010) - https://sketch.com -->
    <title>A5B26706-1562-42F2-80BE-CBCD1DEA8BBF</title>
    <desc>Created with sketchtool.</desc>
    <g id="Page-1" stroke="none" stroke-width="1" fill="none" fill-rule="evenodd">
        <g id="Home-screen" transform="translate(-1146.000000, -18.000000)" fill="#333333" fill-rule="nonzero">
            <path d="M1168.5,42 C1168.90625,42 1169.25781,41.8554688 1169.55469,41.5664062 C1169.85156,41.2773438 1170,40.921875 1170,40.5 L1170,19.5 C1170,19.078125 1169.85156,18.7226562 1169.55469,18.4335938 C1169.25781,18.1445312 1168.90625,18 1168.5,18 L1155.75,18 C1155.32812,18 1154.97266,18.1445312 1154.68359,18.4335938 C1154.39453,18.7226562 1154.25,19.078125 1154.25,19.5 L1154.25,26.25 L1155.75,26.25 L1155.75,20.4140625 C1155.75,20.1640625 1155.83984,19.9492188 1156.01953,19.7695312 C1156.19922,19.5898438 1156.41406,19.5 1156.66406,19.5 L1167.5625,19.5 C1167.8125,19.5 1168.02344,19.5898438 1168.19531,19.7695312 C1168.36719,19.9492188 1168.45312,20.1640625 1168.45312,20.4140625 L1168.47656,39.5859375 C1168.47656,39.8359375 1168.39062,40.0507812 1168.21875,40.2304688 C1168.04688,40.4101562 1167.83594,40.5 1167.58594,40.5 L1156.66406,40.5 C1156.41406,40.5 1156.19922,40.4101562 1156.01953,40.2304688 C1155.83984,40.0507812 1155.75,39.8359375 1155.75,39.5859375 L1155.75,33.7265625 L1154.25,33.7265625 L1154.25,40.5 C1154.25,40.921875 1154.39453,41.2773438 1154.68359,41.5664062 C1154.97266,41.8554688 1155.32812,42 1155.75,42 L1168.5,42 Z M1150.96875,34.78125 C1151.0625,34.78125 1151.15625,34.7617188 1151.25,34.7226562 C1151.34375,34.6835938 1151.42969,34.6328125 1151.50781,34.5703125 C1151.64844,34.4140625 1151.71875,34.234375 1151.71875,34.03125 C1151.71875,33.828125 1151.64844,33.6484375 1151.50781,33.4921875 L1148.74219,30.75 L1161.72656,30.75 C1161.94531,30.75 1162.125,30.6757812 1162.26562,30.5273438 C1162.40625,30.3789062 1162.47656,30.203125 1162.47656,30 C1162.47656,29.78125 1162.40625,29.6015625 1162.26562,29.4609375 C1162.125,29.3203125 1161.94531,29.25 1161.72656,29.25 L1148.78906,29.25 L1151.50781,26.53125 C1151.64844,26.390625 1151.71875,26.2148438 1151.71875,26.0039062 C1151.71875,25.7929688 1151.64844,25.6171875 1151.50781,25.4765625 C1151.35156,25.3203125 1151.17188,25.2421875 1150.96875,25.2421875 C1150.76562,25.2421875 1150.58594,25.3203125 1150.42969,25.4765625 L1146,30.0234375 L1150.42969,34.5703125 C1150.50781,34.6328125 1150.59375,34.6835938 1150.6875,34.7226562 C1150.78125,34.7617188 1150.875,34.78125 1150.96875,34.78125 Z" id="logout"></path>
        </g>
    </g>
</svg>