<?xml version="1.0" encoding="UTF-8"?>
<svg width="80px" height="80px" viewBox="0 0 80 80" version="1.1" xmlns="http://www.w3.org/2000/svg" xmlns:xlink="http://www.w3.org/1999/xlink">
    <!-- Generator: sketchtool 62 (101010) - https://sketch.com -->
    <title>3B88F074-F5BB-42A5-89D9-330737118581</title>
    <desc>Created with sketchtool.</desc>
    <g id="Page-1" stroke="none" stroke-width="1" fill="none" fill-rule="evenodd">
        <g id="Dashboard---No-connected-devices" transform="translate(-760.000000, -284.000000)">
            <g id="Group" transform="translate(98.000000, 60.000000)">
                <g id="lpc-data" transform="translate(662.000000, 224.000000)">
                    <path d="M63.59375,80 L16.40625,80 C7.35984375,80 0,72.6401563 0,63.59375 L0,16.40625 C0,7.35984375 7.35984375,0 16.40625,0 L63.59375,0 C72.6401563,0 80,7.35984375 80,16.40625 L80,63.59375 C80,72.6401563 72.6401563,80 63.59375,80 Z" id="Path" fill="#333333" fill-rule="nonzero"></path>
                    <g id="Group-3" transform="translate(11.000000, 10.000000)">
                        <circle id="Oval" stroke="#F2F2F2" stroke-width="3" cx="29" cy="29.9415182" r="27.5"></circle>
                        <path d="M39.6333333,21.2666667 C37.3133333,21.2666667 35.1222474,22.1689141 33.5514141,23.7397474 L29,27.7675 L28.9919193,27.7594193 L26.5510859,29.9102526 L26.5671719,29.9263385 L22.2252526,33.7769193 C21.1941667,34.8 19.8247474,35.3639141 18.3666667,35.3639141 C15.3539141,35.3639141 12.905,32.9230807 12.905,29.9264141 C12.905,26.9297474 15.3539141,24.4889141 18.3666667,24.4889141 C19.8247474,24.4889141 21.1941667,25.0528281 22.2977526,26.1483333 L22.9107827,26.691156 C23.6048194,27.305708 24.6482097,27.3061058 25.3427148,26.6920833 C25.9370665,26.1666081 25.9929018,25.258809 25.4674266,24.6644574 C25.4286699,24.6206208 25.3872711,24.5791932 25.3434614,24.5404062 L24.5210104,23.8122474 L24.5210104,23.8122474 C22.8776771,22.1769948 20.6945964,21.2747474 18.3665911,21.2747474 C13.5655807,21.2666667 9.66666667,25.1494948 9.66666667,29.9264141 C9.66666667,34.7033333 13.5655807,38.5861615 18.3666667,38.5861615 C20.6866667,38.5861615 22.8697474,37.6839141 24.4485859,36.1211615 L29,32.0853281 L29.0080807,32.0934089 L31.4408333,29.9344948 L31.4327526,29.9264141 L35.7746719,26.0839141 C36.8058333,25.0528281 38.1752526,24.4889141 39.6333333,24.4889141 C42.6460859,24.4889141 45.095,26.9297474 45.095,29.9264141 C45.095,32.9230807 42.6460859,35.3639141 39.6333333,35.3639141 C38.1752526,35.3639141 36.8058333,34.8 35.7022474,33.7125 L35.0912441,33.171472 C34.3963751,32.5561831 33.3514495,32.556749 32.6572474,33.1727904 C32.061771,33.7012216 32.0074202,34.6123286 32.5358514,35.207805 C32.5742368,35.2510605 32.6151903,35.291967 32.6584901,35.3303025 L33.4789141,36.0566667 L33.4789141,36.0566667 C35.1222474,37.6919193 37.3053281,38.5861615 39.6253281,38.5861615 C44.4344193,38.5861615 48.3333333,34.7033333 48.3333333,29.9264141 C48.3333333,25.1494948 44.4344193,21.2666667 39.6333333,21.2666667 Z" id="Path" fill="#F2F2F2" fill-rule="nonzero" transform="translate(29.000000, 29.926414) scale(-1, 1) translate(-29.000000, -29.926414) "></path>
                    </g>
                    <g id="endless" transform="translate(40.000000, 40.000000) scale(-1, 1) translate(-40.000000, -40.000000) translate(20.000000, 31.000000)"></g>
                </g>
            </g>
        </g>
    </g>
</svg>