<?xml version="1.0" encoding="UTF-8"?>
<svg width="20px" height="21px" viewBox="0 0 20 21" version="1.1" xmlns="http://www.w3.org/2000/svg" xmlns:xlink="http://www.w3.org/1999/xlink">
    <!-- Generator: sketchtool 62 (101010) - https://sketch.com -->
    <title>FA73470B-0495-4BEE-9325-B06295CC03FF</title>
    <desc>Created with sketchtool.</desc>
    <g id="Page-1" stroke="none" stroke-width="1" fill="none" fill-rule="evenodd">
        <g id="Home-screen" transform="translate(-40.000000, -118.000000)" fill="#FFFFFF" fill-rule="nonzero">
            <g id="Group-2" transform="translate(18.000000, 118.000000)">
                <path d="M32,20.25 C33.3802083,20.25 34.6790365,19.9895833 35.8964844,19.46875 C37.1139323,18.9479167 38.1751302,18.235026 39.0800781,17.3300781 C39.985026,16.4251302 40.6979167,15.3639323 41.21875,14.1464844 C41.7395833,12.9290365 42,11.6302083 42,10.25 C42,8.86979167 41.7395833,7.57096354 41.21875,6.35351562 C40.6979167,5.13606771 39.985026,4.07486979 39.0800781,3.16992188 C38.1751302,2.26497396 37.1139323,1.55208333 35.8964844,1.03125 C34.6790365,0.510416667 33.3802083,0.25 32,0.25 C30.6197917,0.25 29.3209635,0.510416667 28.1035156,1.03125 C26.8860677,1.55208333 25.8248698,2.26497396 24.9199219,3.16992188 C24.014974,4.07486979 23.3020833,5.13606771 22.78125,6.35351562 C22.2604167,7.57096354 22,8.86979167 22,10.25 C22,11.6302083 22.2604167,12.9290365 22.78125,14.1464844 C23.3020833,15.3639323 24.014974,16.4251302 24.9199219,17.3300781 C25.8248698,18.235026 26.8860677,18.9479167 28.1035156,19.46875 C29.3209635,19.9895833 30.6197917,20.25 32,20.25 Z M32,19.0195312 C30.7890625,19.0195312 29.6529948,18.7884115 28.5917969,18.3261719 C27.530599,17.8639323 26.6061198,17.2356771 25.8183594,16.4414062 C25.030599,15.6471354 24.405599,14.719401 23.9433594,13.6582031 C23.4811198,12.5970052 23.25,11.4609375 23.25,10.25 C23.25,9.0390625 23.4811198,7.90299479 23.9433594,6.84179688 C24.405599,5.78059896 25.030599,4.85611979 25.8183594,4.06835938 C26.6061198,3.28059896 27.530599,2.65559896 28.5917969,2.19335938 C29.6529948,1.73111979 30.7890625,1.5 32,1.5 C33.2109375,1.5 34.3470052,1.73111979 35.4082031,2.19335938 C36.469401,2.65559896 37.3938802,3.28059896 38.1816406,4.06835938 C38.969401,4.85611979 39.594401,5.78059896 40.0566406,6.84179688 C40.5188802,7.90299479 40.75,9.0390625 40.75,10.25 C40.75,11.4609375 40.5188802,12.5970052 40.0566406,13.6582031 C39.594401,14.719401 38.969401,15.6471354 38.1816406,16.4414062 C37.3938802,17.2356771 36.469401,17.8639323 35.4082031,18.3261719 C34.3470052,18.7884115 33.2109375,19.0195312 32,19.0195312 Z M32,7.125 C32.3515625,7.125 32.6477865,7.00455729 32.8886719,6.76367188 C33.1295573,6.52278646 33.25,6.2265625 33.25,5.875 C33.25,5.5234375 33.1295573,5.22721354 32.8886719,4.98632812 C32.6477865,4.74544271 32.3515625,4.625 32,4.625 C31.6484375,4.625 31.3522135,4.74544271 31.1113281,4.98632812 C30.8704427,5.22721354 30.75,5.5234375 30.75,5.875 C30.75,6.2265625 30.8704427,6.52278646 31.1113281,6.76367188 C31.3522135,7.00455729 31.6484375,7.125 32,7.125 Z M33.25,15.875 C33.4192708,15.875 33.5657552,15.813151 33.6894531,15.6894531 C33.813151,15.5657552 33.875,15.4192708 33.875,15.25 C33.875,15.0807292 33.813151,14.9342448 33.6894531,14.8105469 C33.5657552,14.686849 33.4192708,14.625 33.25,14.625 L32.625,14.625 L32.625,9 L32.625,9 C32.625,8.83072917 32.563151,8.68424479 32.4394531,8.56054688 C32.3157552,8.43684896 32.1692708,8.375 32,8.375 L30.75,8.375 C30.5807292,8.375 30.4342448,8.43684896 30.3105469,8.56054688 C30.186849,8.68424479 30.125,8.83072917 30.125,9 C30.125,9.16927083 30.186849,9.31575521 30.3105469,9.43945312 C30.4342448,9.56315104 30.5807292,9.625 30.75,9.625 L31.375,9.625 L31.375,14.625 L30.75,14.625 C30.5807292,14.625 30.4342448,14.686849 30.3105469,14.8105469 C30.186849,14.9342448 30.125,15.0807292 30.125,15.25 C30.125,15.4192708 30.186849,15.5657552 30.3105469,15.6894531 C30.4342448,15.813151 30.5807292,15.875 30.75,15.875 L33.25,15.875 Z" id="my-info"></path>
            </g>
        </g>
    </g>
</svg>