<svg width="22" height="25" xmlns="http://www.w3.org/2000/svg">
 <!-- Generator: sketchtool 62 (101010) - https://sketch.com -->

 <title>FA9E10B3-5F11-4FC9-8F30-F6A0A2925B08</title>
 <desc>Created with sketchtool.</desc>
 <g>
  <title>background</title>
  <rect fill="none" id="canvas_background" height="402" width="582" y="-1" x="-1"/>
 </g>
 <g>
  <title>Layer 1</title>
  <g fill-rule="evenodd" fill="none" id="Page-1">
   <g fill-rule="nonzero" fill="#333333" id="My-information">
    <path fill="#ffffff" id="notification" d="m10.976562,24.476563c1.109376,0 2.054688,-0.390625 2.835938,-1.171875c0.78125,-0.78125 1.171875,-1.726563 1.171875,-2.835938l4.382815,0c0.23437,0 0.5625,-0.03125 0.98437,-0.09375c0.42188,-0.0625 0.72656,-0.289062 0.91406,-0.679687c0.1875,-0.390625 0.16407,-0.78125 -0.07031,-1.171875c-0.23437,-0.390625 -0.55469,-0.835938 -0.96093,-1.335938c-0.4375,-0.53125 -0.89454,-1.15625 -1.3711,-1.875c-0.47656,-0.71875 -0.71484,-1.460937 -0.71484,-2.226562l0,-4.898438c0,-1.0625 -0.1836,-2.058594 -0.55078,-2.988281c-0.36719,-0.929688 -0.875,-1.742188 -1.52344,-2.4375c-0.64844,-0.695313 -1.410158,-1.242188 -2.285158,-1.640625c-0.875,-0.398438 -1.820312,-0.597656 -2.835937,-0.597656c-1,0 -1.9375,0.199218 -2.8125,0.597656c-0.875,0.398437 -1.632813,0.945312 -2.273437,1.640625c-0.640626,0.695312 -1.144532,1.507812 -1.511719,2.4375c-0.367188,0.929687 -0.550781,1.925781 -0.550781,2.988281l0,4.898438c0,0.75 -0.25,1.472656 -0.75,2.167968c-0.5,0.695313 -0.960938,1.316407 -1.382813,1.863282c-0.375,0.5 -0.671875,0.957031 -0.890625,1.371093c-0.21875,0.414063 -0.234375,0.816407 -0.046875,1.207032c0.171875,0.34375 0.449219,0.558593 0.832031,0.644531c0.382813,0.085937 0.753906,0.128906 1.113282,0.128906l4.289062,0c0,1.109375 0.390625,2.054688 1.171875,2.835938c0.78125,0.78125 1.726563,1.171875 2.835937,1.171875zm8.554688,-5.601563l-17.132812,0l0,0c0.078124,-0.125 0.167968,-0.257812 0.269531,-0.398437c0.101562,-0.140625 0.199219,-0.273438 0.292969,-0.398438c0.453124,-0.609375 0.972656,-1.339844 1.558593,-2.191406c0.585938,-0.851563 0.878907,-1.785156 0.878907,-2.800781l0,-4.898438c0,-0.84375 0.140624,-1.632812 0.421874,-2.367187c0.28125,-0.734375 0.671876,-1.375 1.171876,-1.921875c0.5,-0.546875 1.089843,-0.980469 1.769531,-1.300782c0.679687,-0.320312 1.410156,-0.480468 2.191406,-0.480468c0.796875,0 1.535156,0.160156 2.214844,0.480468c0.679687,0.320313 1.269531,0.753907 1.769531,1.300782c0.5,0.546875 0.89453,1.1875 1.18359,1.921875c0.28907,0.734375 0.4336,1.523437 0.4336,2.367187l0,4.898438c0,1.046875 0.27734,2.003906 0.83203,2.871093c0.55469,0.867188 1.08984,1.613282 1.60547,2.238282c0.09375,0.109375 0.1875,0.222656 0.28125,0.339843c0.09375,0.117188 0.17968,0.230469 0.25781,0.339844zm-8.554688,4.03125c-0.671874,0 -1.246093,-0.238281 -1.722656,-0.714844c-0.476562,-0.476562 -0.714844,-1.050781 -0.714844,-1.722656l4.875,0c0,0.671875 -0.238281,1.246094 -0.714843,1.722656c-0.476563,0.476563 -1.050781,0.714844 -1.722657,0.714844z"/>
   </g>
  </g>
 </g>
</svg>