<?xml version="1.0" encoding="UTF-8"?>
<svg width="22px" height="25px" viewBox="0 0 22 25" version="1.1" xmlns="http://www.w3.org/2000/svg" xmlns:xlink="http://www.w3.org/1999/xlink">
    <!-- Generator: sketchtool 62 (101010) - https://sketch.com -->
    <title>FA9E10B3-5F11-4FC9-8F30-F6A0A2925B08</title>
    <desc>Created with sketchtool.</desc>
    <g id="Page-1" stroke="none" stroke-width="1" fill="none" fill-rule="evenodd">
        <g id="My-information" transform="translate(-985.000000, -17.000000)" fill="#333333" fill-rule="nonzero">
            <path d="M995.976562,41.4765625 C997.085938,41.4765625 998.03125,41.0859375 998.8125,40.3046875 C999.59375,39.5234375 999.984375,38.578125 999.984375,37.46875 L1004.36719,37.46875 C1004.60156,37.46875 1004.92969,37.4375 1005.35156,37.375 C1005.77344,37.3125 1006.07812,37.0859375 1006.26562,36.6953125 C1006.45312,36.3046875 1006.42969,35.9140625 1006.19531,35.5234375 C1005.96094,35.1328125 1005.64062,34.6875 1005.23438,34.1875 C1004.79688,33.65625 1004.33984,33.03125 1003.86328,32.3125 C1003.38672,31.59375 1003.14844,30.8515625 1003.14844,30.0859375 L1003.14844,25.1875 C1003.14844,24.125 1002.96484,23.1289062 1002.59766,22.1992188 C1002.23047,21.2695312 1001.72266,20.4570312 1001.07422,19.7617188 C1000.42578,19.0664062 999.664062,18.5195312 998.789062,18.1210938 C997.914062,17.7226562 996.96875,17.5234375 995.953125,17.5234375 C994.953125,17.5234375 994.015625,17.7226562 993.140625,18.1210938 C992.265625,18.5195312 991.507812,19.0664062 990.867188,19.7617188 C990.226562,20.4570312 989.722656,21.2695312 989.355469,22.1992188 C988.988281,23.1289062 988.804688,24.125 988.804688,25.1875 L988.804688,30.0859375 C988.804688,30.8359375 988.554688,31.5585938 988.054688,32.2539062 C987.554688,32.9492188 987.09375,33.5703125 986.671875,34.1171875 C986.296875,34.6171875 986,35.0742188 985.78125,35.4882812 C985.5625,35.9023438 985.546875,36.3046875 985.734375,36.6953125 C985.90625,37.0390625 986.183594,37.2539062 986.566406,37.3398438 C986.949219,37.4257812 987.320312,37.46875 987.679688,37.46875 L991.96875,37.46875 C991.96875,38.578125 992.359375,39.5234375 993.140625,40.3046875 C993.921875,41.0859375 994.867188,41.4765625 995.976562,41.4765625 Z M1004.53125,35.875 L987.398438,35.875 L987.398438,35.875 C987.476562,35.75 987.566406,35.6171875 987.667969,35.4765625 C987.769531,35.3359375 987.867188,35.203125 987.960938,35.078125 C988.414062,34.46875 988.933594,33.7382812 989.519531,32.8867188 C990.105469,32.0351562 990.398438,31.1015625 990.398438,30.0859375 L990.398438,25.1875 C990.398438,24.34375 990.539062,23.5546875 990.820312,22.8203125 C991.101562,22.0859375 991.492188,21.4453125 991.992188,20.8984375 C992.492188,20.3515625 993.082031,19.9179688 993.761719,19.5976562 C994.441406,19.2773438 995.171875,19.1171875 995.953125,19.1171875 C996.75,19.1171875 997.488281,19.2773438 998.167969,19.5976562 C998.847656,19.9179688 999.4375,20.3515625 999.9375,20.8984375 C1000.4375,21.4453125 1000.83203,22.0859375 1001.12109,22.8203125 C1001.41016,23.5546875 1001.55469,24.34375 1001.55469,25.1875 L1001.55469,30.0859375 C1001.55469,31.1328125 1001.83203,32.0898438 1002.38672,32.9570312 C1002.94141,33.8242188 1003.47656,34.5703125 1003.99219,35.1953125 C1004.08594,35.3046875 1004.17969,35.4179688 1004.27344,35.5351562 C1004.36719,35.6523438 1004.45312,35.765625 1004.53125,35.875 Z M995.976562,39.90625 C995.304688,39.90625 994.730469,39.6679688 994.253906,39.1914062 C993.777344,38.7148438 993.539062,38.140625 993.539062,37.46875 L998.414062,37.46875 C998.414062,38.140625 998.175781,38.7148438 997.699219,39.1914062 C997.222656,39.6679688 996.648438,39.90625 995.976562,39.90625 Z" id="notification"></path>
        </g>
    </g>
</svg>