<?xml version="1.0" encoding="UTF-8"?>
<svg width="80px" height="80px" viewBox="0 0 80 80" version="1.1" xmlns="http://www.w3.org/2000/svg" xmlns:xlink="http://www.w3.org/1999/xlink">
    <!-- Generator: sketchtool 62 (101010) - https://sketch.com -->
    <title>B4122609-4997-4B87-8356-411D264753AC</title>
    <desc>Created with sketchtool.</desc>
    <g id="Page-1" stroke="none" stroke-width="1" fill="none" fill-rule="evenodd">
        <g id="Book-service" transform="translate(-129.000000, -146.000000)" fill-rule="nonzero">
            <g id="Group" transform="translate(100.000000, 76.000000)">
                <g id="applewatch" transform="translate(0.000000, 42.000000)">
                    <g id="Nutritional" transform="translate(29.000000, 28.000000)">
                        <path d="M63.59375,80 L16.40625,80 C7.35984375,80 0,72.6401563 0,63.59375 L0,16.40625 C0,7.35984375 7.35984375,0 16.40625,0 L63.59375,0 C72.6401563,0 80,7.35984375 80,16.40625 L80,63.59375 C80,72.6401563 72.6401563,80 63.59375,80 Z" id="Path" fill="#333333"></path>
                        <path d="M34.4661915,14 C36.57846,14 38.4603893,15.334445 39.1594024,17.3275463 L39.1594024,17.3275463 L43.6150402,17.3275463 C44.6685094,17.332115 45.6058571,17.9976243 45.9572673,18.9909387 L45.9572673,18.9909387 L49.4371041,18.9909387 C50.8149519,18.9909387 51.9320023,20.1079892 51.9320023,21.4862177 L51.9320023,21.4862177 L51.9320023,35.520544 C52.8251858,36.2797119 53.511635,37.2524671 53.9281493,38.3481969 C53.9799281,38.4795474 54.0271382,38.6200353 54.0713023,38.7639498 C55.0234984,36.4080166 56.7653205,34.4560337 58.9982791,33.2430404 C59.3927114,33.0233614 59.8899397,33.1585191 60.1195175,33.5472405 C60.3487146,33.9359619 60.2261209,34.4366168 59.8434911,34.675332 C56.248675,36.7978801 55.3014285,39.5756579 55.1209643,41.4888066 C55.4788469,41.1899366 55.8881275,40.9584552 56.3286276,40.805784 C56.3556591,40.7962659 56.3834521,40.7882706 56.4116258,40.7817982 C56.7740771,40.6721491 57.1502345,40.6161824 57.5286763,40.615421 L57.5286763,40.615421 L59.3534966,40.615421 C63.5163559,40.615421 66.9029148,44.2250853 66.9029148,48.6578795 L66.9029148,48.6578795 L66.9029148,52.2591678 C66.9029148,58.6808753 62.0033504,63.9032967 55.9817861,63.9032967 L55.9817861,63.9032967 L52.8727766,63.9032967 C52.092288,63.9021534 51.3144645,63.8111598 50.554916,63.63298 C50.2092166,63.8111598 49.8258254,63.9032967 49.4371041,63.9032967 L49.4371041,63.9032967 L19.4956597,63.9032967 C18.1174312,63.9032967 17.0003807,62.7862451 17.0003807,61.4080166 L17.0003807,61.4080166 L17.0003807,21.4862177 C17.0003807,20.1079892 18.1174312,18.9909387 19.4956597,18.9909387 L19.4956597,18.9909387 L22.9754965,18.9909387 C23.3265259,17.9976243 24.2638737,17.332115 25.3173429,17.3275463 L25.3173429,17.3275463 L29.7729806,17.3275463 C30.4719938,15.334445 32.353923,14 34.4661915,14 Z M22.8224445,20.6543312 L19.4956597,20.6543312 C19.0361233,20.6543312 18.6637731,21.0266813 18.6637731,21.4862177 L18.6637731,21.4862177 L18.6637731,61.4080166 C18.6637731,61.867553 19.0361233,62.2399031 19.4956597,62.2399031 L19.4956597,62.2399031 L47.2745797,62.2399031 C46.5340673,61.767422 45.8525676,61.2092776 45.2434058,60.5765107 L45.2434058,60.5765107 L21.990558,60.5765107 C21.0718659,60.5765107 20.3271656,59.8318104 20.3271656,58.9131183 L20.3271656,58.9131183 L20.3271656,23.981116 C20.3271656,23.0624239 21.0718659,22.3177236 21.990558,22.3177236 L21.990558,22.3177236 L22.8224445,22.3177236 L22.8224445,20.6543312 Z M59.3527351,42.2772904 L57.5161123,42.2772904 C57.2903417,42.2803363 57.0660941,42.316886 56.8509838,42.3861782 L56.8509838,42.3861782 L56.8110076,42.3975999 C55.8466283,42.7889864 55.2279483,43.7388981 55.2587871,44.7790418 L55.2587871,44.7790418 L55.2587871,45.6055982 C55.2587871,46.0651346 54.886437,46.4374848 54.4272813,46.4374848 C53.9677448,46.4374848 53.5953947,46.0651346 53.5953947,45.6055982 L53.5953947,45.6055982 L53.5953947,44.7813261 C53.6235684,43.7400402 52.9999391,42.79089 52.0328947,42.4036915 C51.8086471,42.3233583 51.5729776,42.2810977 51.3350238,42.2788134 L51.3350238,42.2788134 L49.5010661,42.2788134 C46.2557565,42.2788134 43.6150402,45.1422545 43.6150402,48.6578795 L43.6150402,48.6578795 L43.6150402,52.2591678 C43.6150402,57.7637061 47.7687622,62.2399031 52.8727766,62.2399031 L52.8727766,62.2399031 L55.9817861,62.2399031 C61.0858004,62.2399031 65.2395224,57.7618025 65.2395224,52.2591678 L65.2395224,52.2591678 L65.2395224,48.6578795 C65.2395224,45.1422545 62.598806,42.2788134 59.3527351,42.2772904 L59.3527351,42.2772904 Z M22.9754965,23.981116 L21.990558,23.981116 L21.990558,58.9131183 L43.9226669,58.9131183 C42.6301018,56.9352461 41.9447947,54.6219542 41.9516478,52.2591678 L41.9516478,52.2591678 L41.9516478,48.6578795 C41.9124329,45.5633376 43.6443561,42.7177905 46.4110928,41.3308053 C44.4309363,39.7313749 44.2820723,36.7015564 44.5748508,34.9905732 C44.6513767,34.6486812 44.7937682,34.0505604 46.941825,33.9740345 L46.941825,33.9740345 L46.941825,23.981116 L45.9572673,23.981116 C45.6058571,24.9744304 44.6685094,25.6403205 43.6150402,25.6445084 L43.6150402,25.6445084 L25.3173429,25.6445084 C24.2638737,25.6403205 23.3265259,24.9744304 22.9754965,23.981116 L22.9754965,23.981116 Z M27.8126218,50.5957754 C28.7313139,50.5957754 29.4760142,51.3404757 29.4760142,52.2591678 L29.4760142,52.2591678 L29.4760142,54.7544469 C29.4760142,55.673139 28.7313139,56.4178393 27.8126218,56.4178393 L27.8126218,56.4178393 L25.3173429,56.4178393 C24.3986507,56.4178393 23.6539504,55.673139 23.6539504,54.7544469 L23.6539504,54.7544469 L23.6539504,52.2591678 C23.6539504,51.3404757 24.3986507,50.5957754 25.3173429,50.5957754 L25.3173429,50.5957754 Z M27.8126218,52.2591678 L25.3173429,52.2591678 L25.3173429,54.7544469 L27.8126218,54.7544469 L27.8126218,52.2591678 Z M39.4563688,53.0910545 C39.9159053,53.0910545 40.2882554,53.4634046 40.2882554,53.922941 C40.2882554,54.3820967 39.9159053,54.7544469 39.4563688,54.7544469 L39.4563688,54.7544469 L31.9712933,54.7544469 C31.5117568,54.7544469 31.1394066,54.3820967 31.1394066,53.922941 C31.1394066,53.4634046 31.5117568,53.0910545 31.9712933,53.0910545 L31.9712933,53.0910545 Z M27.8126218,43.1106999 C28.7313139,43.1106999 29.4760142,43.8554002 29.4760142,44.7740924 L29.4760142,44.7740924 L29.4760142,47.2689906 C29.4760142,48.1876827 28.7313139,48.932383 27.8126218,48.932383 L27.8126218,48.932383 L25.3173429,48.932383 C24.3986507,48.932383 23.6539504,48.1876827 23.6539504,47.2689906 L23.6539504,47.2689906 L23.6539504,44.7740924 C23.6539504,43.8554002 24.3986507,43.1106999 25.3173429,43.1106999 L25.3173429,43.1106999 Z M27.8126218,44.7740924 L25.3173429,44.7740924 L25.3173429,47.2689906 L27.8126218,47.2689906 L27.8126218,44.7740924 Z M39.4563688,45.6055982 C39.9159053,45.6055982 40.2882554,45.9779483 40.2882554,46.4374848 C40.2882554,46.8966404 39.9159053,47.2689906 39.4563688,47.2689906 L39.4563688,47.2689906 L31.9712933,47.2689906 C31.5117568,47.2689906 31.1394066,46.8966404 31.1394066,46.4374848 C31.1394066,45.9779483 31.5117568,45.6055982 31.9712933,45.6055982 L31.9712933,45.6055982 Z M27.8126218,35.6252437 C28.7313139,35.6252437 29.4760142,36.369944 29.4760142,37.2886361 L29.4760142,37.2886361 L29.4760142,39.7835343 C29.4760142,40.7022265 28.7313139,41.4473075 27.8126218,41.4473075 L27.8126218,41.4473075 L25.3173429,41.4473075 C24.3986507,41.4473075 23.6539504,40.7022265 23.6539504,39.7835343 L23.6539504,39.7835343 L23.6539504,37.2886361 C23.6539504,36.369944 24.3986507,35.6252437 25.3173429,35.6252437 L25.3173429,35.6252437 Z M47.7737116,35.6275281 L47.7561982,35.6275281 C47.2220395,35.6256244 46.6882614,35.6553211 46.1575292,35.7166179 C46.053591,36.8660301 46.0155184,40.077455 48.7681682,40.6287464 C48.7898696,40.6329343 48.8050986,40.6462597 48.8256579,40.6519707 C49.0487634,40.6310307 49.2730111,40.615421 49.5010661,40.615421 L49.5010661,40.615421 L51.3209368,40.615421 C51.7557261,40.615421 52.1874696,40.690424 52.5967501,40.8373842 C52.6805098,40.8647965 52.7547515,40.9123873 52.8377497,40.9481755 C52.7448526,40.2670565 52.5891356,39.5962172 52.3728831,38.9436525 L52.3728831,38.9436525 C51.6993787,36.9768214 49.855522,35.6461836 47.7737116,35.6275281 L47.7737116,35.6275281 Z M27.8126218,37.2886361 L25.3173429,37.2886361 L25.3173429,39.7835343 L27.8126218,39.7835343 L27.8126218,37.2886361 Z M41.1197612,38.1201419 C41.5792977,38.1201419 41.9516478,38.4924921 41.9516478,38.9520285 C41.9516478,39.4111842 41.5792977,39.7835343 41.1197612,39.7835343 L41.1197612,39.7835343 L31.9712933,39.7835343 C31.5117568,39.7835343 31.1394066,39.4111842 31.1394066,38.9520285 C31.1394066,38.4924921 31.5117568,38.1201419 31.9712933,38.1201419 L31.9712933,38.1201419 Z M49.4371041,20.6543312 L46.1103192,20.6543312 L46.1103192,22.3177236 L46.941825,22.3177236 C47.8605172,22.3177236 48.6052174,23.0624239 48.6052174,23.981116 L48.6052174,23.981116 L48.6052174,34.045611 C49.1770681,34.124802 49.7363548,34.2778539 50.2686099,34.5013402 L50.2686099,34.5013402 L50.2686099,21.4862177 C50.2686099,21.0266813 49.8962597,20.6543312 49.4371041,20.6543312 L49.4371041,20.6543312 Z M27.8126218,28.1397874 C28.7313139,28.1397874 29.4760142,28.8844877 29.4760142,29.8031798 L29.4760142,29.8031798 L29.4760142,32.2984589 C29.4760142,33.217151 28.7313139,33.9618513 27.8126218,33.9618513 L27.8126218,33.9618513 L25.3173429,33.9618513 C24.3986507,33.9618513 23.6539504,33.217151 23.6539504,32.2984589 L23.6539504,32.2984589 L23.6539504,29.8031798 C23.6539504,28.8844877 24.3986507,28.1397874 25.3173429,28.1397874 L25.3173429,28.1397874 Z M27.8126218,29.8031798 L25.3173429,29.8031798 L25.3173429,32.2984589 L27.8126218,32.2984589 L27.8126218,29.8031798 Z M43.6150402,30.6350664 C44.0745766,30.6350664 44.4469268,31.0074166 44.4469268,31.4665722 C44.4469268,31.9261087 44.0745766,32.2984589 43.6150402,32.2984589 L43.6150402,32.2984589 L31.9712933,32.2984589 C31.5117568,32.2984589 31.1394066,31.9261087 31.1394066,31.4665722 C31.1394066,31.0074166 31.5117568,30.6350664 31.9712933,30.6350664 L31.9712933,30.6350664 Z M34.4620035,15.6633924 C32.8816094,15.6633924 31.5189906,16.7754934 31.2026072,18.3239065 C31.1930891,18.3505574 31.182048,18.3760661 31.169484,18.401194 C31.1538743,18.4541149 31.1321729,18.5051322 31.1051413,18.5534844 C31.0308997,18.691688 30.9174434,18.8051443 30.7792398,18.879386 C30.7308875,18.905656 30.6798703,18.9269767 30.6269493,18.9425865 C30.5770742,18.9578156 30.5260569,18.9680951 30.4738975,18.9734253 C30.4464852,18.9810399 30.4190729,18.9867507 30.3908991,18.9909387 L30.3908991,18.9909387 L25.3173429,18.9909387 C24.8581871,18.9909387 24.485837,19.3632889 24.485837,19.8228253 L24.485837,19.8228253 L24.485837,23.1496101 C24.485837,23.6087659 24.8581871,23.981116 25.3173429,23.981116 L25.3173429,23.981116 L43.6150402,23.981116 C44.0745766,23.981116 44.4469268,23.6087659 44.4469268,23.1496101 L44.4469268,23.1496101 L44.4469268,19.8228253 C44.4469268,19.3632889 44.0745766,18.9909387 43.6150402,18.9909387 L43.6150402,18.9909387 L38.5414839,18.9909387 C38.4006152,18.9977918 38.2608888,18.9581963 38.1440058,18.8786246 C38.0861355,18.8489279 38.0320723,18.8123782 37.982578,18.7697368 C37.9544043,18.7423246 37.9285148,18.7130087 37.9045291,18.6814084 C37.8653143,18.6353405 37.8310489,18.5847039 37.8032559,18.5310215 C37.7849811,18.4925682 37.7693713,18.452592 37.7564267,18.412235 C37.7431013,18.3832998 37.7312987,18.3539839 37.7213998,18.3239065 C37.4050165,16.7754934 36.0427784,15.6633924 34.4620035,15.6633924 Z" id="Combined-Shape" fill="#FFFFFF"></path>
                    </g>
                </g>
            </g>
        </g>
    </g>
</svg>