<?xml version="1.0" encoding="UTF-8"?>
<svg width="20px" height="18px" viewBox="0 0 20 18" version="1.1" xmlns="http://www.w3.org/2000/svg" xmlns:xlink="http://www.w3.org/1999/xlink">
    <!-- Generator: sketchtool 62 (101010) - https://sketch.com -->
    <title>5C5EA105-586C-422C-BA98-ABC88818F88C</title>
    <desc>Created with sketchtool.</desc>
    <g id="Page-1" stroke="none" stroke-width="1" fill="none" fill-rule="evenodd">
        <g id="Dashboard---No-connected-devices" transform="translate(-265.000000, -730.000000)" fill="#333333" fill-rule="nonzero">
            <g id="Group" transform="translate(98.000000, 60.000000)">
                <path d="M167.683594,687.648438 C167.839844,687.648438 167.966797,687.593099 168.064453,687.482422 C168.162109,687.371745 168.217448,687.238281 168.230469,687.082031 C168.230469,687.029948 168.311849,686.694661 168.474609,686.076172 C168.63737,685.457682 169.03125,684.790365 169.65625,684.074219 C170.28125,683.358073 171.21875,682.707031 172.46875,682.121094 C173.71875,681.535156 175.4375,681.242188 177.625,681.242188 L177.644531,684.835938 C177.644531,684.953125 177.677083,685.063802 177.742187,685.167969 C177.807292,685.272135 177.891927,685.35026 177.996094,685.402344 C178.113281,685.454427 178.230469,685.473958 178.347656,685.460938 C178.464844,685.447917 178.56901,685.402344 178.660156,685.324219 L186.765625,678.605469 C186.84375,678.540365 186.902344,678.465495 186.941406,678.380859 C186.980469,678.296224 187,678.208333 187,678.117188 C187,678.026042 186.980469,677.938151 186.941406,677.853516 C186.902344,677.76888 186.84375,677.69401 186.765625,677.628906 L178.660156,670.988281 C178.56901,670.910156 178.464844,670.864583 178.347656,670.851562 C178.230469,670.838542 178.113281,670.858073 177.996094,670.910156 C177.891927,670.96224 177.807292,671.037109 177.742187,671.134766 C177.677083,671.232422 177.644531,671.346354 177.644531,671.476562 L177.625,674.972656 C176.713542,674.998698 175.857422,675.093099 175.056641,675.255859 C174.255859,675.41862 173.507161,675.643229 172.810547,675.929688 C172.113932,676.216146 171.479167,676.564453 170.90625,676.974609 C170.333333,677.384766 169.81901,677.856771 169.363281,678.390625 C168.621094,679.263021 168.083984,680.197266 167.751953,681.193359 C167.419922,682.189453 167.201823,683.117188 167.097656,683.976562 C166.99349,684.835938 166.964193,685.561849 167.009766,686.154297 C167.055339,686.746745 167.078125,687.06901 167.078125,687.121094 C167.104167,687.277344 167.169271,687.404297 167.273437,687.501953 C167.377604,687.599609 167.507812,687.648438 167.664062,687.648438 L167.683594,687.648438 L167.683594,687.648438 Z" id="right" transform="translate(176.994480, 679.248047) scale(1, -1) translate(-176.994480, -679.248047) "></path>
            </g>
        </g>
    </g>
</svg>