<?xml version="1.0" encoding="UTF-8"?>
<svg width="22px" height="16px" viewBox="0 0 22 16" version="1.1" xmlns="http://www.w3.org/2000/svg" xmlns:xlink="http://www.w3.org/1999/xlink">
    <!-- Generator: sketchtool 62 (101010) - https://sketch.com -->
    <title>4F70A7D0-9257-486B-A66D-E73A146B9CE3</title>
    <desc>Created with sketchtool.</desc>
    <g id="Page-1" stroke="none" stroke-width="1" fill="none" fill-rule="evenodd">
        <g id="Home-screen-Bubbles" transform="translate(-39.000000, -633.000000)" fill="#FFFFFF" fill-rule="nonzero">
            <path d="M52.7070312,648.958984 C53.09375,648.958984 53.4267578,648.819336 53.7060547,648.540039 C53.9853516,648.260742 54.125,647.920573 54.125,647.519531 L54.125,644.833984 L59.7753906,648.121094 C59.8613281,648.207031 59.9472656,648.253581 60.0332031,648.260742 C60.1191406,648.267904 60.2050781,648.271484 60.2910156,648.271484 C60.3626302,648.271484 60.4235026,648.260742 60.4736328,648.239258 C60.523763,648.217773 60.5559896,648.207031 60.5703125,648.207031 C60.6992188,648.14974 60.8030599,648.063802 60.8818359,647.949219 C60.960612,647.834635 61,647.705729 61,647.5625 L61,635.208984 C61,635.051432 60.960612,634.915365 60.8818359,634.800781 C60.8030599,634.686198 60.6992188,634.60026 60.5703125,634.542969 C60.5559896,634.542969 60.523763,634.532227 60.4736328,634.510742 C60.4235026,634.489258 60.3554688,634.478516 60.2695312,634.478516 C60.1979167,634.478516 60.101237,634.492839 59.9794922,634.521484 C59.8577474,634.55013 59.7539062,634.607422 59.6679688,634.693359 L54.125,637.958984 L54.125,635.230469 C54.125,634.829427 53.9889323,634.489258 53.7167969,634.209961 C53.4446615,633.930664 53.1080729,633.791016 52.7070312,633.791016 L40.4179688,633.791016 C40.03125,633.791016 39.6982422,633.930664 39.4189453,634.209961 C39.1396484,634.489258 39,634.829427 39,635.230469 L39,647.519531 C39,647.920573 39.1396484,648.260742 39.4189453,648.540039 C39.6982422,648.819336 40.03125,648.958984 40.4179688,648.958984 L52.7070312,648.958984 Z M52.7070312,647.583984 L40.4179688,647.583984 C40.4036458,647.583984 40.3929036,647.576823 40.3857422,647.5625 C40.3785807,647.548177 40.375,647.533854 40.375,647.519531 L40.375,635.230469 C40.375,635.216146 40.3785807,635.201823 40.3857422,635.1875 C40.3929036,635.173177 40.4036458,635.166016 40.4179688,635.166016 L52.7070312,635.166016 C52.7213542,635.166016 52.7320964,635.173177 52.7392578,635.1875 C52.7464193,635.201823 52.75,635.216146 52.75,635.230469 L52.75,637.958984 C52.75,638.216797 52.8180339,638.456706 52.9541016,638.678711 C53.0901693,638.900716 53.265625,639.06901 53.4804688,639.183594 C53.5950521,639.240885 53.7060547,639.280273 53.8134766,639.301758 C53.9208984,639.323242 54.0247396,639.333984 54.125,639.333984 C54.2682292,639.333984 54.4114583,639.316081 54.5546875,639.280273 C54.6979167,639.244466 54.8268229,639.183594 54.9414062,639.097656 L59.625,636.455078 L59.625,646.273438 L54.9199219,643.695312 C54.8053385,643.609375 54.680013,643.548503 54.5439453,643.512695 C54.4078776,643.476888 54.2682292,643.458984 54.125,643.458984 C54.0247396,643.458984 53.9208984,643.469727 53.8134766,643.491211 C53.7060547,643.512695 53.6022135,643.552083 53.5019531,643.609375 C53.2727865,643.723958 53.0901693,643.892253 52.9541016,644.114258 C52.8180339,644.336263 52.75,644.576172 52.75,644.833984 L52.75,647.519531 C52.75,647.533854 52.7464193,647.548177 52.7392578,647.5625 C52.7320964,647.576823 52.7213542,647.583984 52.7070312,647.583984 Z" id="telehealth"></path>
        </g>
    </g>
</svg>