<?xml version="1.0" encoding="UTF-8"?>
<svg width="20px" height="21px" viewBox="0 0 20 21" version="1.1" xmlns="http://www.w3.org/2000/svg" xmlns:xlink="http://www.w3.org/1999/xlink">
    <!-- Generator: sketchtool 62 (101010) - https://sketch.com -->
    <title>A8A1854F-52D9-4377-8B69-2FD636E810A8</title>
    <desc>Created with sketchtool.</desc>
    <g id="Page-1" stroke="none" stroke-width="1" fill="none" fill-rule="evenodd">
        <g id="Connections" transform="translate(-150.000000, -536.000000)" fill="#F24A0B" fill-rule="nonzero">
            <path d="M160.625,556.25 C160.976562,556.25 161.272786,556.116536 161.513672,555.849609 C161.754557,555.582682 161.901042,555.299479 161.953125,555 L162.304688,553.378906 C162.513021,553.313802 162.708333,553.242188 162.890625,553.164062 C163.072917,553.085938 163.255208,553.001302 163.4375,552.910156 L164.84375,553.808594 C165.104167,553.977865 165.410156,554.072266 165.761719,554.091797 C166.113281,554.111328 166.41276,553.997396 166.660156,553.75 L167.539062,552.871094 C167.786458,552.623698 167.890625,552.330729 167.851562,551.992188 C167.8125,551.653646 167.708333,551.354167 167.539062,551.09375 L166.679688,549.648438 C166.770833,549.479167 166.852214,549.306641 166.923828,549.130859 C166.995443,548.955078 167.063802,548.769531 167.128906,548.574219 L168.75,548.183594 C169.049479,548.105469 169.332682,547.96224 169.599609,547.753906 C169.866536,547.545573 170,547.272135 170,546.933594 L170,545.683594 C170,545.332031 169.866536,545.035807 169.599609,544.794922 C169.332682,544.554036 169.049479,544.407552 168.75,544.355469 L167.148438,544.003906 C167.096354,543.795573 167.027995,543.597005 166.943359,543.408203 C166.858724,543.219401 166.770833,543.033854 166.679688,542.851562 L167.539062,541.40625 C167.708333,541.145833 167.8125,540.846354 167.851562,540.507812 C167.890625,540.169271 167.786458,539.876302 167.539062,539.628906 L166.660156,538.75 C166.41276,538.502604 166.113281,538.388672 165.761719,538.408203 C165.410156,538.427734 165.104167,538.522135 164.84375,538.691406 L163.4375,539.589844 C163.255208,539.498698 163.069661,539.414062 162.880859,539.335938 C162.692057,539.257812 162.5,539.186198 162.304688,539.121094 L161.953125,537.480469 C161.888021,537.19401 161.738281,536.917318 161.503906,536.650391 C161.269531,536.383464 160.976562,536.25 160.625,536.25 L159.375,536.25 C159.023438,536.25 158.74349,536.383464 158.535156,536.650391 C158.326823,536.917318 158.190104,537.200521 158.125,537.5 L157.714844,539.101562 C157.50651,539.166667 157.301432,539.241536 157.099609,539.326172 C156.897786,539.410807 156.699219,539.505208 156.503906,539.609375 L155.058594,538.691406 C154.811198,538.522135 154.508464,538.427734 154.150391,538.408203 C153.792318,538.388672 153.496094,538.502604 153.261719,538.75 L152.363281,539.628906 C152.128906,539.876302 152.03125,540.169271 152.070312,540.507812 C152.109375,540.846354 152.207031,541.145833 152.363281,541.40625 L153.28125,542.929688 C153.203125,543.098958 153.125,543.27474 153.046875,543.457031 C152.96875,543.639323 152.903646,543.821615 152.851562,544.003906 L151.25,544.355469 C150.950521,544.407552 150.667318,544.554036 150.400391,544.794922 C150.133464,545.035807 150,545.332031 150,545.683594 L150,546.933594 C150,547.272135 150.133464,547.545573 150.400391,547.753906 C150.667318,547.96224 150.950521,548.105469 151.25,548.183594 L152.871094,548.574219 C152.923177,548.75651 152.985026,548.929036 153.056641,549.091797 C153.128255,549.254557 153.203125,549.414062 153.28125,549.570312 L152.363281,551.09375 C152.207031,551.354167 152.109375,551.653646 152.070312,551.992188 C152.03125,552.330729 152.128906,552.623698 152.363281,552.871094 L153.261719,553.75 C153.496094,553.997396 153.792318,554.111328 154.150391,554.091797 C154.508464,554.072266 154.811198,553.977865 155.058594,553.808594 L156.503906,552.890625 C156.699219,552.994792 156.901042,553.089193 157.109375,553.173828 C157.317708,553.258464 157.526042,553.333333 157.734375,553.398438 L158.125,555 C158.203125,555.299479 158.346354,555.582682 158.554688,555.849609 C158.763021,556.116536 159.036458,556.25 159.375,556.25 L160.625,556.25 Z M160.605469,555 L159.472656,555 C159.446615,554.973958 159.423828,554.938151 159.404297,554.892578 C159.384766,554.847005 159.36849,554.791667 159.355469,554.726562 L158.769531,552.421875 L158.105469,552.207031 C157.936198,552.154948 157.766927,552.093099 157.597656,552.021484 C157.428385,551.94987 157.259115,551.86849 157.089844,551.777344 L156.445312,551.445312 L154.394531,552.753906 C154.355469,552.779948 154.313151,552.802734 154.267578,552.822266 C154.222005,552.841797 154.179688,552.851562 154.140625,552.851562 L153.320312,552.050781 C153.320312,552.011719 153.330078,551.966146 153.349609,551.914062 C153.369141,551.861979 153.398438,551.809896 153.4375,551.757812 L154.707031,549.628906 L154.414062,549.023438 C154.335938,548.880208 154.267578,548.740234 154.208984,548.603516 C154.150391,548.466797 154.101562,548.333333 154.0625,548.203125 L153.847656,547.539062 L151.5625,546.953125 C151.484375,546.940104 151.419271,546.923828 151.367188,546.904297 C151.315104,546.884766 151.276042,546.861979 151.25,546.835938 L151.25,545.683594 L151.25,545.683594 C151.263021,545.683594 151.292318,545.670573 151.337891,545.644531 C151.383464,545.61849 151.425781,545.598958 151.464844,545.585938 L153.828125,545.058594 L154.042969,544.375 C154.082031,544.231771 154.130859,544.088542 154.189453,543.945312 C154.248047,543.802083 154.316406,543.645833 154.394531,543.476562 L154.707031,542.871094 L153.4375,540.761719 C153.398438,540.696615 153.369141,540.638021 153.349609,540.585938 C153.330078,540.533854 153.320312,540.488281 153.320312,540.449219 L154.140625,539.628906 C154.179688,539.641927 154.21875,539.658203 154.257812,539.677734 L154.355469,539.726562 L154.355469,539.726562 L156.445312,541.054688 L157.089844,540.722656 C157.259115,540.63151 157.428385,540.55013 157.597656,540.478516 C157.766927,540.406901 157.936198,540.345052 158.105469,540.292969 L158.769531,540.078125 L159.335938,537.8125 C159.348958,537.734375 159.36849,537.669271 159.394531,537.617188 C159.420573,537.565104 159.446615,537.526042 159.472656,537.5 L160.625,537.5 C160.625,537.5 160.638021,537.522786 160.664062,537.568359 C160.690104,537.613932 160.709635,537.66276 160.722656,537.714844 L161.230469,540.078125 L161.914062,540.3125 C162.083333,540.351562 162.246094,540.406901 162.402344,540.478516 C162.558594,540.55013 162.714844,540.625 162.871094,540.703125 L163.515625,541.035156 L165.527344,539.746094 C165.566406,539.720052 165.608724,539.700521 165.654297,539.6875 C165.69987,539.674479 165.742188,539.667969 165.78125,539.667969 L166.601562,540.46875 C166.601562,540.494792 166.591797,540.533854 166.572266,540.585938 C166.552734,540.638021 166.523438,540.690104 166.484375,540.742188 L165.253906,542.792969 L165.566406,543.417969 C165.657552,543.58724 165.735677,543.75 165.800781,543.90625 C165.865885,544.0625 165.917969,544.21875 165.957031,544.375 L166.171875,545.058594 L168.496094,545.585938 C168.561198,545.598958 168.619792,545.621745 168.671875,545.654297 C168.723958,545.686849 168.75651,545.709635 168.769531,545.722656 L168.75,546.835938 C168.723958,546.861979 168.688151,546.884766 168.642578,546.904297 C168.597005,546.923828 168.541667,546.940104 168.476562,546.953125 L166.152344,547.539062 L165.9375,548.183594 C165.885417,548.339844 165.830078,548.492839 165.771484,548.642578 C165.712891,548.792318 165.644531,548.938802 165.566406,549.082031 L165.253906,549.707031 L166.484375,551.738281 C166.523438,551.803385 166.552734,551.861979 166.572266,551.914062 C166.591797,551.966146 166.601562,552.011719 166.601562,552.050781 L165.78125,552.871094 C165.742188,552.858073 165.703125,552.841797 165.664062,552.822266 L165.566406,552.773438 L165.566406,552.773438 L163.515625,551.464844 L162.871094,551.796875 C162.714844,551.875 162.558594,551.946615 162.402344,552.011719 C162.246094,552.076823 162.089844,552.135417 161.933594,552.1875 L161.25,552.421875 L160.742188,554.746094 C160.729167,554.798177 160.70638,554.85026 160.673828,554.902344 C160.641276,554.954427 160.61849,554.986979 160.605469,555 Z M160,550 C161.041667,550 161.930339,549.635417 162.666016,548.90625 C163.401693,548.177083 163.769531,547.291667 163.769531,546.25 C163.769531,545.208333 163.401693,544.322917 162.666016,543.59375 C161.930339,542.864583 161.041667,542.5 160,542.5 C158.971354,542.5 158.089193,542.864583 157.353516,543.59375 C156.617839,544.322917 156.25,545.208333 156.25,546.25 C156.25,547.291667 156.617839,548.177083 157.353516,548.90625 C158.089193,549.635417 158.971354,550 160,550 Z M160,548.75 C159.309896,548.75 158.720703,548.505859 158.232422,548.017578 C157.744141,547.529297 157.5,546.940104 157.5,546.25 C157.5,545.559896 157.744141,544.970703 158.232422,544.482422 C158.720703,543.994141 159.309896,543.75 160,543.75 C160.690104,543.75 161.279297,543.994141 161.767578,544.482422 C162.255859,544.970703 162.5,545.559896 162.5,546.25 C162.5,546.940104 162.255859,547.529297 161.767578,548.017578 C161.279297,548.505859 160.690104,548.75 160,548.75 Z" id="tab-configure-active"></path>
        </g>
    </g>
</svg>