<?xml version="1.0" encoding="UTF-8"?>
<svg width="20px" height="21px" viewBox="0 0 20 21" version="1.1" xmlns="http://www.w3.org/2000/svg" xmlns:xlink="http://www.w3.org/1999/xlink">
    <!-- Generator: sketchtool 62 (101010) - https://sketch.com -->
    <title>744F4ED2-3D8B-42B9-9351-ED264E515157</title>
    <desc>Created with sketchtool.</desc>
    <g id="Page-1" stroke="none" stroke-width="1" fill="none" fill-rule="evenodd">
        <g id="Chat" transform="translate(-60.000000, -536.000000)" fill="#7A7A7A" fill-rule="nonzero">
            <path d="M78.75,556.230469 C79.0885417,556.230469 79.3782552,556.110026 79.6191406,555.869141 C79.860026,555.628255 79.9804688,555.338542 79.9804688,555 L79.9804688,553.105469 C79.9804688,552.740885 79.7753906,552.444661 79.3652344,552.216797 C78.9550781,551.988932 78.75,551.875 78.75,551.875 L73.3007812,549.277344 C73.7304688,548.938802 74.0950521,548.531901 74.3945312,548.056641 C74.6940104,547.58138 74.9348958,547.086589 75.1171875,546.572266 C75.2994792,546.057943 75.4296875,545.553385 75.5078125,545.058594 C75.5859375,544.563802 75.625,544.127604 75.625,543.75 L75.625,540.625 C75.625,540.104167 75.4589844,539.583333 75.1269531,539.0625 C74.7949219,538.541667 74.3652344,538.072917 73.8378906,537.65625 C73.3105469,537.239583 72.7115885,536.901042 72.0410156,536.640625 C71.3704427,536.380208 70.6901042,536.25 70,536.25 C69.3098958,536.25 68.6263021,536.380208 67.9492188,536.640625 C67.2721354,536.901042 66.6699219,537.239583 66.1425781,537.65625 C65.6152344,538.072917 65.1888021,538.541667 64.8632812,539.0625 C64.5377604,539.583333 64.375,540.104167 64.375,540.625 L64.375,543.75 C64.375,544.088542 64.4140625,544.501953 64.4921875,544.990234 C64.5703125,545.478516 64.703776,545.979818 64.8925781,546.494141 C65.0813802,547.008464 65.3255208,547.513021 65.625,548.007812 C65.9244792,548.502604 66.2955729,548.925781 66.7382812,549.277344 L61.25,551.875 C61.25,551.875 61.0416667,551.995443 60.625,552.236328 C60.2083333,552.477214 60,552.766927 60,553.105469 L60,555 C60,555.338542 60.1204427,555.628255 60.3613281,555.869141 C60.6022135,556.110026 60.8984375,556.230469 61.25,556.230469 L78.75,556.230469 Z M61.25,555 L61.25,553.730469 C61.25,553.470052 61.3183594,553.291016 61.4550781,553.193359 C61.5917969,553.095703 61.6992188,553.033854 61.7773438,553.007812 L67.265625,550.410156 C67.4609375,550.31901 67.6204427,550.185547 67.7441406,550.009766 C67.8678385,549.833984 67.9492188,549.641927 67.9882812,549.433594 C68.0143229,549.21224 67.985026,549.000651 67.9003906,548.798828 C67.8157552,548.597005 67.6888021,548.43099 67.5195312,548.300781 C66.8684896,547.779948 66.389974,547.044271 66.0839844,546.09375 C65.7779948,545.143229 65.625,544.361979 65.625,543.75 L65.625,540.625 C65.625,540.299479 65.7519531,539.954427 66.0058594,539.589844 C66.2597656,539.22526 66.5950521,538.886719 67.0117188,538.574219 C67.4283854,538.261719 67.8971354,538.004557 68.4179688,537.802734 C68.9388021,537.600911 69.4661458,537.5 70,537.5 C70.5208333,537.5 71.0449219,537.600911 71.5722656,537.802734 C72.0996094,538.004557 72.5683594,538.258464 72.9785156,538.564453 C73.3886719,538.870443 73.7239583,539.205729 73.984375,539.570312 C74.2447917,539.934896 74.375,540.286458 74.375,540.625 L74.375,543.75 C74.375,544.348958 74.235026,545.126953 73.9550781,546.083984 C73.6751302,547.041016 73.1966146,547.779948 72.5195312,548.300781 C72.3502604,548.43099 72.2233073,548.597005 72.1386719,548.798828 C72.0540365,549.000651 72.0247396,549.21224 72.0507812,549.433594 C72.0768229,549.654948 72.1549479,549.853516 72.2851562,550.029297 C72.4153646,550.205078 72.578125,550.338542 72.7734375,550.429688 L78.2226562,553.007812 C78.2356771,553.007812 78.3235677,553.05013 78.4863281,553.134766 C78.6490885,553.219401 78.7304688,553.43099 78.7304688,553.769531 L78.7304688,554.980469 L61.25,555 Z" id="tab-avatar"></path>
        </g>
    </g>
</svg>