<?xml version="1.0" encoding="UTF-8"?>
<svg width="20px" height="19px" viewBox="0 0 20 19" version="1.1" xmlns="http://www.w3.org/2000/svg" xmlns:xlink="http://www.w3.org/1999/xlink">
    <!-- Generator: sketchtool 62 (101010) - https://sketch.com -->
    <title>03B01375-2DF2-4F53-AD81-0527AC1373CF</title>
    <desc>Created with sketchtool.</desc>
    <g id="Page-1" stroke="none" stroke-width="1" fill="none" fill-rule="evenodd">
        <g id="Home-screen" transform="translate(-240.000000, -537.000000)" fill="#7A7A7A" fill-rule="nonzero">
            <path d="M242.539062,551.953125 C242.565104,551.953125 242.591146,551.94987 242.617188,551.943359 C242.643229,551.936849 242.65625,551.933594 242.65625,551.933594 L242.675781,551.933594 L242.675781,551.933594 C243.079427,551.86849 243.51237,551.72526 243.974609,551.503906 C244.436849,551.282552 244.876302,551.035156 245.292969,550.761719 C245.709635,550.488281 246.070964,550.227865 246.376953,549.980469 C246.682943,549.733073 246.88151,549.557292 246.972656,549.453125 C247.154948,549.479167 247.314453,549.495443 247.451172,549.501953 C247.587891,549.508464 247.727865,549.511719 247.871094,549.511719 L248.300781,549.511719 L248.300781,549.511719 C249.420573,549.511719 250.46875,549.358724 251.445312,549.052734 C252.421875,548.746745 253.268229,548.313802 253.984375,547.753906 C254.700521,547.19401 255.260417,546.520182 255.664062,545.732422 C256.067708,544.944661 256.263021,544.075521 256.25,543.125 C256.25,542.278646 256.038411,541.484375 255.615234,540.742188 C255.192057,540 254.615885,539.355469 253.886719,538.808594 C253.157552,538.261719 252.301432,537.828776 251.318359,537.509766 C250.335286,537.190755 249.283854,537.03125 248.164062,537.03125 C247.03125,537.03125 245.970052,537.190755 244.980469,537.509766 C243.990885,537.828776 243.125,538.261719 242.382812,538.808594 C241.640625,539.355469 241.057943,540 240.634766,540.742188 C240.211589,541.484375 240,542.278646 240,543.125 C240,543.645833 240.065104,544.173177 240.195312,544.707031 C240.325521,545.240885 240.520833,545.748698 240.78125,546.230469 C241.041667,546.71224 241.373698,547.154948 241.777344,547.558594 C242.18099,547.96224 242.64974,548.300781 243.183594,548.574219 L243.183594,548.613281 L243.183594,548.613281 C243.183594,549.06901 243.04362,549.567057 242.763672,550.107422 C242.483724,550.647786 242.265625,551.048177 242.109375,551.308594 L242.128906,551.308594 C242.115885,551.334635 242.10612,551.360677 242.099609,551.386719 C242.093099,551.41276 242.089844,551.445312 242.089844,551.484375 C242.089844,551.614583 242.132161,551.72526 242.216797,551.816406 C242.301432,551.907552 242.408854,551.953125 242.539062,551.953125 Z M243.964844,550.15625 C244.186198,549.557292 244.309896,549.14388 244.335938,548.916016 C244.361979,548.688151 244.375,548.574219 244.375,548.574219 L244.433594,547.8125 L243.75,547.460938 C242.890625,547.018229 242.259115,546.386719 241.855469,545.566406 C241.451823,544.746094 241.25,543.932292 241.25,543.125 C241.25,542.447917 241.429036,541.816406 241.787109,541.230469 C242.145182,540.644531 242.639974,540.133464 243.271484,539.697266 C243.902995,539.261068 244.638672,538.916016 245.478516,538.662109 C246.318359,538.408203 247.213542,538.28125 248.164062,538.28125 C249.114583,538.28125 250.00651,538.408203 250.839844,538.662109 C251.673177,538.916016 252.395833,539.261068 253.007812,539.697266 C253.619792,540.133464 254.104818,540.644531 254.462891,541.230469 C254.820964,541.816406 255,542.447917 255,543.125 C255,543.867188 254.830729,544.554036 254.492188,545.185547 C254.153646,545.817057 253.688151,546.363932 253.095703,546.826172 C252.503255,547.288411 251.80013,547.646484 250.986328,547.900391 C250.172526,548.154297 249.290365,548.28125 248.339844,548.28125 L247.96875,548.28125 L247.96875,548.28125 C247.721354,548.28125 247.447917,548.261719 247.148438,548.222656 L246.464844,548.164062 L245.664062,548.828125 C245.572917,548.945312 245.354818,549.14388 245.009766,549.423828 C244.664714,549.703776 244.316406,549.947917 243.964844,550.15625 Z M257.578125,555.46875 C257.695312,555.46875 257.792969,555.429688 257.871094,555.351562 C257.949219,555.273438 257.988281,555.175781 257.988281,555.058594 C257.988281,555.032552 257.985026,555.00651 257.978516,554.980469 C257.972005,554.954427 257.96224,554.928385 257.949219,554.902344 C257.81901,554.68099 257.675781,554.303385 257.519531,553.769531 C257.363281,553.235677 257.285156,552.766927 257.285156,552.363281 L257.285156,552.324219 L257.285156,552.324219 C258.209635,551.855469 258.893229,551.272786 259.335938,550.576172 C259.778646,549.879557 260,549.075521 260,548.164062 C260,547.317708 259.820964,546.56901 259.462891,545.917969 C259.104818,545.266927 258.515625,544.700521 257.695312,544.21875 C257.669271,544.440104 257.626953,544.667969 257.568359,544.902344 C257.509766,545.136719 257.447917,545.358073 257.382812,545.566406 C257.916667,545.94401 258.277995,546.334635 258.466797,546.738281 C258.655599,547.141927 258.75,547.617188 258.75,548.164062 C258.75,548.841146 258.58724,549.430339 258.261719,549.931641 C257.936198,550.432943 257.402344,550.872396 256.660156,551.25 L256.054688,551.542969 C256.054688,551.542969 256.067708,551.829427 256.09375,552.402344 C256.119792,552.97526 256.158854,553.359375 256.210938,553.554688 C255.598958,553.111979 255.172526,552.727865 254.931641,552.402344 C254.690755,552.076823 254.570312,551.914062 254.570312,551.914062 L253.90625,552.011719 C253.776042,552.03776 253.583984,552.050781 253.330078,552.050781 L252.949219,552.050781 L252.949219,552.050781 C252.102865,552.050781 251.354167,551.94987 250.703125,551.748047 C250.052083,551.546224 249.459635,551.236979 248.925781,550.820312 C249.06901,550.807292 248.811849,550.800781 248.154297,550.800781 C247.496745,550.800781 247.154948,550.813802 247.128906,550.839844 C247.441406,551.217448 247.799479,551.559245 248.203125,551.865234 C248.606771,552.171224 249.05599,552.431641 249.550781,552.646484 C250.045573,552.861328 250.576172,553.024089 251.142578,553.134766 C251.708984,553.245443 252.311198,553.300781 252.949219,553.300781 L253.320312,553.300781 L253.320312,553.300781 C253.450521,553.300781 253.574219,553.297526 253.691406,553.291016 C253.808594,553.284505 253.945312,553.27474 254.101562,553.261719 C254.244792,553.44401 254.667969,553.828125 255.371094,554.414062 C256.074219,555 256.770833,555.351562 257.460938,555.46875 L257.578125,555.46875 L257.578125,555.46875 Z" id="tab-chat"></path>
        </g>
    </g>
</svg>