<?xml version="1.0" encoding="UTF-8"?>
<svg width="20px" height="13px" viewBox="0 0 20 13" version="1.1" xmlns="http://www.w3.org/2000/svg" xmlns:xlink="http://www.w3.org/1999/xlink">
    <!-- Generator: sketchtool 62 (101010) - https://sketch.com -->
    <title>B8E8FF6E-7103-4258-AED4-651E18D6D642</title>
    <desc>Created with sketchtool.</desc>
    <g id="Page-1" stroke="none" stroke-width="1" fill="none" fill-rule="evenodd">
        <g id="My-information---Avatar" transform="translate(-90.000000, -540.000000)" fill="#7A7A7A" fill-rule="nonzero">
            <path d="M91.875,542.5 C92.0442708,542.5 92.1907552,542.438151 92.3144531,542.314453 C92.438151,542.190755 92.5,542.044271 92.5,541.875 L92.5,540.625 C92.5,540.455729 92.438151,540.309245 92.3144531,540.185547 C92.1907552,540.061849 92.0442708,540 91.875,540 L90.625,540 C90.4557292,540 90.3092448,540.061849 90.1855469,540.185547 C90.061849,540.309245 90,540.455729 90,540.625 L90,541.875 C90,542.044271 90.061849,542.190755 90.1855469,542.314453 C90.3092448,542.438151 90.4557292,542.5 90.625,542.5 L91.875,542.5 Z M109.375,541.875 C109.544271,541.875 109.690755,541.813151 109.814453,541.689453 C109.938151,541.565755 110,541.419271 110,541.25 C110,541.080729 109.938151,540.934245 109.814453,540.810547 C109.690755,540.686849 109.544271,540.625 109.375,540.625 L96.25,540.625 C96.0807292,540.625 95.9342448,540.686849 95.8105469,540.810547 C95.686849,540.934245 95.625,541.080729 95.625,541.25 C95.625,541.419271 95.686849,541.565755 95.8105469,541.689453 C95.9342448,541.813151 96.0807292,541.875 96.25,541.875 L109.375,541.875 Z M91.875,547.5 C92.0442708,547.5 92.1907552,547.438151 92.3144531,547.314453 C92.438151,547.190755 92.5,547.044271 92.5,546.875 L92.5,545.625 C92.5,545.455729 92.438151,545.309245 92.3144531,545.185547 C92.1907552,545.061849 92.0442708,545 91.875,545 L90.625,545 C90.4557292,545 90.3092448,545.061849 90.1855469,545.185547 C90.061849,545.309245 90,545.455729 90,545.625 L90,546.875 C90,547.044271 90.061849,547.190755 90.1855469,547.314453 C90.3092448,547.438151 90.4557292,547.5 90.625,547.5 L91.875,547.5 Z M109.375,546.875 C109.544271,546.875 109.690755,546.813151 109.814453,546.689453 C109.938151,546.565755 110,546.419271 110,546.25 C110,546.080729 109.938151,545.934245 109.814453,545.810547 C109.690755,545.686849 109.544271,545.625 109.375,545.625 L96.25,545.625 C96.0807292,545.625 95.9342448,545.686849 95.8105469,545.810547 C95.686849,545.934245 95.625,546.080729 95.625,546.25 C95.625,546.419271 95.686849,546.565755 95.8105469,546.689453 C95.9342448,546.813151 96.0807292,546.875 96.25,546.875 L109.375,546.875 Z M91.875,552.5 C92.0442708,552.5 92.1907552,552.438151 92.3144531,552.314453 C92.438151,552.190755 92.5,552.044271 92.5,551.875 L92.5,550.625 C92.5,550.455729 92.438151,550.309245 92.3144531,550.185547 C92.1907552,550.061849 92.0442708,550 91.875,550 L90.625,550 C90.4557292,550 90.3092448,550.061849 90.1855469,550.185547 C90.061849,550.309245 90,550.455729 90,550.625 L90,551.875 C90,552.044271 90.061849,552.190755 90.1855469,552.314453 C90.3092448,552.438151 90.4557292,552.5 90.625,552.5 L91.875,552.5 Z M109.375,551.875 C109.544271,551.875 109.690755,551.813151 109.814453,551.689453 C109.938151,551.565755 110,551.419271 110,551.25 C110,551.080729 109.938151,550.934245 109.814453,550.810547 C109.690755,550.686849 109.544271,550.625 109.375,550.625 L96.25,550.625 C96.0807292,550.625 95.9342448,550.686849 95.8105469,550.810547 C95.686849,550.934245 95.625,551.080729 95.625,551.25 C95.625,551.419271 95.686849,551.565755 95.8105469,551.689453 C95.9342448,551.813151 96.0807292,551.875 96.25,551.875 L109.375,551.875 Z" id="info"></path>
        </g>
    </g>
</svg>