<?xml version="1.0" encoding="UTF-8"?>
<svg width="20px" height="21px" viewBox="0 0 20 21" version="1.1" xmlns="http://www.w3.org/2000/svg" xmlns:xlink="http://www.w3.org/1999/xlink">
    <!-- Generator: sketchtool 62 (101010) - https://sketch.com -->
    <title>E9F858A1-3130-4854-B032-1CCEB8B4437B</title>
    <desc>Created with sketchtool.</desc>
    <g id="Page-1" stroke="none" stroke-width="1" fill="none" fill-rule="evenodd">
        <g id="My-information" transform="translate(-210.000000, -1091.000000)" fill="#7A7A7A" fill-rule="nonzero">
            <path d="M228.75,1111.23047 C229.088542,1111.23047 229.378255,1111.11003 229.619141,1110.86914 C229.860026,1110.62826 229.980469,1110.33854 229.980469,1110 L229.980469,1108.10547 C229.980469,1107.74089 229.775391,1107.44466 229.365234,1107.2168 C228.955078,1106.98893 228.75,1106.875 228.75,1106.875 L223.300781,1104.27734 C223.730469,1103.9388 224.095052,1103.5319 224.394531,1103.05664 C224.69401,1102.58138 224.934896,1102.08659 225.117188,1101.57227 C225.299479,1101.05794 225.429688,1100.55339 225.507812,1100.05859 C225.585938,1099.5638 225.625,1099.1276 225.625,1098.75 L225.625,1095.625 C225.625,1095.10417 225.458984,1094.58333 225.126953,1094.0625 C224.794922,1093.54167 224.365234,1093.07292 223.837891,1092.65625 C223.310547,1092.23958 222.711589,1091.90104 222.041016,1091.64062 C221.370443,1091.38021 220.690104,1091.25 220,1091.25 C219.309896,1091.25 218.626302,1091.38021 217.949219,1091.64062 C217.272135,1091.90104 216.669922,1092.23958 216.142578,1092.65625 C215.615234,1093.07292 215.188802,1093.54167 214.863281,1094.0625 C214.53776,1094.58333 214.375,1095.10417 214.375,1095.625 L214.375,1098.75 C214.375,1099.08854 214.414062,1099.50195 214.492188,1099.99023 C214.570312,1100.47852 214.703776,1100.97982 214.892578,1101.49414 C215.08138,1102.00846 215.325521,1102.51302 215.625,1103.00781 C215.924479,1103.5026 216.295573,1103.92578 216.738281,1104.27734 L211.25,1106.875 C211.25,1106.875 211.041667,1106.99544 210.625,1107.23633 C210.208333,1107.47721 210,1107.76693 210,1108.10547 L210,1110 C210,1110.33854 210.120443,1110.62826 210.361328,1110.86914 C210.602214,1111.11003 210.898438,1111.23047 211.25,1111.23047 L228.75,1111.23047 Z M211.25,1110 L211.25,1108.73047 C211.25,1108.47005 211.318359,1108.29102 211.455078,1108.19336 C211.591797,1108.0957 211.699219,1108.03385 211.777344,1108.00781 L217.265625,1105.41016 C217.460938,1105.31901 217.620443,1105.18555 217.744141,1105.00977 C217.867839,1104.83398 217.949219,1104.64193 217.988281,1104.43359 C218.014323,1104.21224 217.985026,1104.00065 217.900391,1103.79883 C217.815755,1103.59701 217.688802,1103.43099 217.519531,1103.30078 C216.86849,1102.77995 216.389974,1102.04427 216.083984,1101.09375 C215.777995,1100.14323 215.625,1099.36198 215.625,1098.75 L215.625,1095.625 C215.625,1095.29948 215.751953,1094.95443 216.005859,1094.58984 C216.259766,1094.22526 216.595052,1093.88672 217.011719,1093.57422 C217.428385,1093.26172 217.897135,1093.00456 218.417969,1092.80273 C218.938802,1092.60091 219.466146,1092.5 220,1092.5 C220.520833,1092.5 221.044922,1092.60091 221.572266,1092.80273 C222.099609,1093.00456 222.568359,1093.25846 222.978516,1093.56445 C223.388672,1093.87044 223.723958,1094.20573 223.984375,1094.57031 C224.244792,1094.9349 224.375,1095.28646 224.375,1095.625 L224.375,1098.75 C224.375,1099.34896 224.235026,1100.12695 223.955078,1101.08398 C223.67513,1102.04102 223.196615,1102.77995 222.519531,1103.30078 C222.35026,1103.43099 222.223307,1103.59701 222.138672,1103.79883 C222.054036,1104.00065 222.02474,1104.21224 222.050781,1104.43359 C222.076823,1104.65495 222.154948,1104.85352 222.285156,1105.0293 C222.415365,1105.20508 222.578125,1105.33854 222.773438,1105.42969 L228.222656,1108.00781 C228.235677,1108.00781 228.323568,1108.05013 228.486328,1108.13477 C228.649089,1108.2194 228.730469,1108.43099 228.730469,1108.76953 L228.730469,1109.98047 L211.25,1110 Z" id="avatar"></path>
        </g>
    </g>
</svg>