<?xml version="1.0" encoding="UTF-8"?>
<svg width="20px" height="21px" viewBox="0 0 20 21" version="1.1" xmlns="http://www.w3.org/2000/svg" xmlns:xlink="http://www.w3.org/1999/xlink">
    <!-- Generator: sketchtool 62 (101010) - https://sketch.com -->
    <title>D676B22B-6D9C-438A-B326-F382FC01C570</title>
    <desc>Created with sketchtool.</desc>
    <g id="Page-1" stroke="none" stroke-width="1" fill="none" fill-rule="evenodd">
        <g id="My-information---Avatar" transform="translate(-210.000000, -536.000000)" fill="#F24A0B" fill-rule="nonzero">
            <path d="M228.75,556.230469 C229.088542,556.230469 229.378255,556.110026 229.619141,555.869141 C229.860026,555.628255 229.980469,555.338542 229.980469,555 L229.980469,553.105469 C229.980469,552.740885 229.775391,552.444661 229.365234,552.216797 C228.955078,551.988932 228.75,551.875 228.75,551.875 L223.300781,549.277344 C223.730469,548.938802 224.095052,548.531901 224.394531,548.056641 C224.69401,547.58138 224.934896,547.086589 225.117188,546.572266 C225.299479,546.057943 225.429688,545.553385 225.507812,545.058594 C225.585938,544.563802 225.625,544.127604 225.625,543.75 L225.625,540.625 C225.625,540.104167 225.458984,539.583333 225.126953,539.0625 C224.794922,538.541667 224.365234,538.072917 223.837891,537.65625 C223.310547,537.239583 222.711589,536.901042 222.041016,536.640625 C221.370443,536.380208 220.690104,536.25 220,536.25 C219.309896,536.25 218.626302,536.380208 217.949219,536.640625 C217.272135,536.901042 216.669922,537.239583 216.142578,537.65625 C215.615234,538.072917 215.188802,538.541667 214.863281,539.0625 C214.53776,539.583333 214.375,540.104167 214.375,540.625 L214.375,543.75 C214.375,544.088542 214.414062,544.501953 214.492188,544.990234 C214.570312,545.478516 214.703776,545.979818 214.892578,546.494141 C215.08138,547.008464 215.325521,547.513021 215.625,548.007812 C215.924479,548.502604 216.295573,548.925781 216.738281,549.277344 L211.25,551.875 C211.25,551.875 211.041667,551.995443 210.625,552.236328 C210.208333,552.477214 210,552.766927 210,553.105469 L210,555 C210,555.338542 210.120443,555.628255 210.361328,555.869141 C210.602214,556.110026 210.898438,556.230469 211.25,556.230469 L228.75,556.230469 Z M211.25,555 L211.25,553.730469 C211.25,553.470052 211.318359,553.291016 211.455078,553.193359 C211.591797,553.095703 211.699219,553.033854 211.777344,553.007812 L217.265625,550.410156 C217.460938,550.31901 217.620443,550.185547 217.744141,550.009766 C217.867839,549.833984 217.949219,549.641927 217.988281,549.433594 C218.014323,549.21224 217.985026,549.000651 217.900391,548.798828 C217.815755,548.597005 217.688802,548.43099 217.519531,548.300781 C216.86849,547.779948 216.389974,547.044271 216.083984,546.09375 C215.777995,545.143229 215.625,544.361979 215.625,543.75 L215.625,540.625 C215.625,540.299479 215.751953,539.954427 216.005859,539.589844 C216.259766,539.22526 216.595052,538.886719 217.011719,538.574219 C217.428385,538.261719 217.897135,538.004557 218.417969,537.802734 C218.938802,537.600911 219.466146,537.5 220,537.5 C220.520833,537.5 221.044922,537.600911 221.572266,537.802734 C222.099609,538.004557 222.568359,538.258464 222.978516,538.564453 C223.388672,538.870443 223.723958,539.205729 223.984375,539.570312 C224.244792,539.934896 224.375,540.286458 224.375,540.625 L224.375,543.75 C224.375,544.348958 224.235026,545.126953 223.955078,546.083984 C223.67513,547.041016 223.196615,547.779948 222.519531,548.300781 C222.35026,548.43099 222.223307,548.597005 222.138672,548.798828 C222.054036,549.000651 222.02474,549.21224 222.050781,549.433594 C222.076823,549.654948 222.154948,549.853516 222.285156,550.029297 C222.415365,550.205078 222.578125,550.338542 222.773438,550.429688 L228.222656,553.007812 C228.235677,553.007812 228.323568,553.05013 228.486328,553.134766 C228.649089,553.219401 228.730469,553.43099 228.730469,553.769531 L228.730469,554.980469 L211.25,555 Z" id="avatar-active"></path>
        </g>
    </g>
</svg>