<?xml version="1.0" encoding="UTF-8"?>
<svg width="20px" height="13px" viewBox="0 0 20 13" version="1.1" xmlns="http://www.w3.org/2000/svg" xmlns:xlink="http://www.w3.org/1999/xlink">
    <!-- Generator: sketchtool 62 (101010) - https://sketch.com -->
    <title>54C33A33-8BA3-4A09-96CD-C60A5A34A1B6</title>
    <desc>Created with sketchtool.</desc>
    <g id="Page-1" stroke="none" stroke-width="1" fill="none" fill-rule="evenodd">
        <g id="My-information" transform="translate(-90.000000, -1095.000000)" fill="#F24A0B" fill-rule="nonzero">
            <path d="M91.875,1097.5 C92.0442708,1097.5 92.1907552,1097.43815 92.3144531,1097.31445 C92.438151,1097.19076 92.5,1097.04427 92.5,1096.875 L92.5,1095.625 C92.5,1095.45573 92.438151,1095.30924 92.3144531,1095.18555 C92.1907552,1095.06185 92.0442708,1095 91.875,1095 L90.625,1095 C90.4557292,1095 90.3092448,1095.06185 90.1855469,1095.18555 C90.061849,1095.30924 90,1095.45573 90,1095.625 L90,1096.875 C90,1097.04427 90.061849,1097.19076 90.1855469,1097.31445 C90.3092448,1097.43815 90.4557292,1097.5 90.625,1097.5 L91.875,1097.5 Z M109.375,1096.875 C109.544271,1096.875 109.690755,1096.81315 109.814453,1096.68945 C109.938151,1096.56576 110,1096.41927 110,1096.25 C110,1096.08073 109.938151,1095.93424 109.814453,1095.81055 C109.690755,1095.68685 109.544271,1095.625 109.375,1095.625 L96.25,1095.625 C96.0807292,1095.625 95.9342448,1095.68685 95.8105469,1095.81055 C95.686849,1095.93424 95.625,1096.08073 95.625,1096.25 C95.625,1096.41927 95.686849,1096.56576 95.8105469,1096.68945 C95.9342448,1096.81315 96.0807292,1096.875 96.25,1096.875 L109.375,1096.875 Z M91.875,1102.5 C92.0442708,1102.5 92.1907552,1102.43815 92.3144531,1102.31445 C92.438151,1102.19076 92.5,1102.04427 92.5,1101.875 L92.5,1100.625 C92.5,1100.45573 92.438151,1100.30924 92.3144531,1100.18555 C92.1907552,1100.06185 92.0442708,1100 91.875,1100 L90.625,1100 C90.4557292,1100 90.3092448,1100.06185 90.1855469,1100.18555 C90.061849,1100.30924 90,1100.45573 90,1100.625 L90,1101.875 C90,1102.04427 90.061849,1102.19076 90.1855469,1102.31445 C90.3092448,1102.43815 90.4557292,1102.5 90.625,1102.5 L91.875,1102.5 Z M109.375,1101.875 C109.544271,1101.875 109.690755,1101.81315 109.814453,1101.68945 C109.938151,1101.56576 110,1101.41927 110,1101.25 C110,1101.08073 109.938151,1100.93424 109.814453,1100.81055 C109.690755,1100.68685 109.544271,1100.625 109.375,1100.625 L96.25,1100.625 C96.0807292,1100.625 95.9342448,1100.68685 95.8105469,1100.81055 C95.686849,1100.93424 95.625,1101.08073 95.625,1101.25 C95.625,1101.41927 95.686849,1101.56576 95.8105469,1101.68945 C95.9342448,1101.81315 96.0807292,1101.875 96.25,1101.875 L109.375,1101.875 Z M91.875,1107.5 C92.0442708,1107.5 92.1907552,1107.43815 92.3144531,1107.31445 C92.438151,1107.19076 92.5,1107.04427 92.5,1106.875 L92.5,1105.625 C92.5,1105.45573 92.438151,1105.30924 92.3144531,1105.18555 C92.1907552,1105.06185 92.0442708,1105 91.875,1105 L90.625,1105 C90.4557292,1105 90.3092448,1105.06185 90.1855469,1105.18555 C90.061849,1105.30924 90,1105.45573 90,1105.625 L90,1106.875 C90,1107.04427 90.061849,1107.19076 90.1855469,1107.31445 C90.3092448,1107.43815 90.4557292,1107.5 90.625,1107.5 L91.875,1107.5 Z M109.375,1106.875 C109.544271,1106.875 109.690755,1106.81315 109.814453,1106.68945 C109.938151,1106.56576 110,1106.41927 110,1106.25 C110,1106.08073 109.938151,1105.93424 109.814453,1105.81055 C109.690755,1105.68685 109.544271,1105.625 109.375,1105.625 L96.25,1105.625 C96.0807292,1105.625 95.9342448,1105.68685 95.8105469,1105.81055 C95.686849,1105.93424 95.625,1106.08073 95.625,1106.25 C95.625,1106.41927 95.686849,1106.56576 95.8105469,1106.68945 C95.9342448,1106.81315 96.0807292,1106.875 96.25,1106.875 L109.375,1106.875 Z" id="info-active"></path>
        </g>
    </g>
</svg>